{"glyphs":{"0":{"ha":899,"x_min":78,"x_max":821,"o":"m 450 -21 q 278 21 349 -21 q 163 135 207 63 q 98 305 118 208 q 78 510 78 401 q 97 718 78 622 q 160 885 117 814 q 274 997 203 957 q 450 1038 346 1038 q 669 969 589 1038 q 785 783 750 901 q 821 510 821 664 q 784 240 821 361 q 666 49 747 119 q 450 -21 585 -21 m 450 121 q 552 154 513 121 q 613 244 592 188 q 643 370 635 301 q 651 510 651 439 q 643 657 651 588 q 613 781 635 726 q 552 866 592 835 q 450 897 513 897 q 347 866 388 897 q 285 781 307 835 q 256 657 264 726 q 247 510 247 588 q 256 370 247 439 q 285 245 264 301 q 347 155 307 189 q 450 121 388 121 z "},"1":{"ha":514,"x_min":179,"x_max":336,"o":"m 179 0 l 179 1006 l 336 1050 l 336 0 l 179 0 z "},"2":{"ha":897,"x_min":99,"x_max":793,"o":"m 99 0 l 442 429 q 505 517 469 465 q 567 626 540 569 q 594 731 594 682 q 553 849 594 807 q 431 890 513 890 q 335 865 374 890 q 272 807 296 840 q 233 747 247 774 l 104 817 q 173 917 131 867 q 279 1003 215 968 q 435 1038 343 1038 q 611 1000 540 1038 q 717 897 682 963 q 753 749 753 832 q 709 567 753 660 q 586 376 665 474 l 397 138 l 793 138 l 793 0 l 99 0 z "},"3":{"ha":885,"x_min":76,"x_max":785,"o":"m 385 -21 q 267 -9 328 -21 q 155 24 206 3 q 76 71 104 44 l 142 203 q 242 148 178 175 q 378 121 306 121 q 493 137 439 121 q 581 195 547 153 q 615 314 615 238 q 551 446 615 396 q 376 496 486 496 q 308 494 343 496 q 247 488 274 492 l 503 885 l 119 885 l 119 1021 l 779 1021 l 490 608 q 647 567 581 606 q 749 465 713 528 q 785 325 785 401 q 738 148 785 226 q 602 24 692 69 q 385 -21 513 -21 z "},"4":{"ha":908,"x_min":63,"x_max":833,"o":"m 529 0 l 529 256 l 63 256 l 356 1056 l 500 1001 l 279 401 l 529 401 l 538 633 l 692 633 l 692 401 l 833 401 l 833 256 l 692 256 l 692 0 l 529 0 z "},"5":{"ha":897,"x_min":115,"x_max":788,"o":"m 414 -21 q 245 3 322 -21 q 115 72 168 26 l 186 203 q 230 174 199 193 q 308 140 261 156 q 410 125 354 125 q 564 178 503 125 q 625 324 625 231 q 603 420 625 375 q 531 494 582 465 q 393 522 481 522 q 306 517 351 522 q 224 504 261 513 q 167 485 186 496 l 188 1021 l 711 1021 l 711 885 l 339 885 l 325 643 q 373 651 344 649 q 442 654 401 654 q 695 570 603 654 q 788 339 788 486 q 744 152 788 233 q 617 25 700 71 q 414 -21 533 -21 z "},"6":{"ha":897,"x_min":103,"x_max":803,"o":"m 444 -21 q 272 20 350 -21 q 149 137 194 61 q 103 318 103 213 q 109 397 103 358 q 135 486 115 436 q 192 610 154 536 q 293 792 231 685 q 450 1056 356 900 l 583 978 q 464 793 508 864 q 397 683 419 722 q 364 625 374 643 q 347 600 354 607 q 405 633 368 619 q 493 646 442 646 q 658 601 589 646 q 765 484 728 557 q 803 328 803 411 q 757 139 803 217 q 630 20 711 61 q 444 -21 549 -21 m 454 115 q 593 172 543 115 q 643 314 643 228 q 590 460 643 408 q 458 513 536 513 q 316 459 369 513 q 263 311 263 406 q 317 171 263 226 q 454 115 372 115 z "},"7":{"ha":740,"x_min":28,"x_max":699,"o":"m 163 0 l 503 885 l 28 885 l 28 1021 l 699 1021 l 340 0 l 163 0 z "},"8":{"ha":897,"x_min":94,"x_max":800,"o":"m 447 -21 q 271 18 351 -21 q 142 128 190 57 q 94 294 94 199 q 118 416 94 365 q 180 500 142 467 q 260 551 218 533 q 173 635 208 582 q 138 761 138 689 q 178 909 138 847 q 290 1004 219 971 q 447 1038 360 1038 q 606 1004 536 1038 q 716 909 675 971 q 757 764 757 847 q 719 632 757 685 q 629 550 682 579 q 711 499 672 532 q 775 415 750 465 q 800 294 800 365 q 751 128 800 199 q 623 18 703 57 q 447 -21 543 -21 m 447 615 q 523 636 489 615 q 578 692 557 657 q 599 768 599 726 q 557 874 599 833 q 447 915 515 915 q 336 874 378 915 q 294 768 294 833 q 337 660 294 704 q 447 615 379 615 m 447 115 q 590 168 538 115 q 642 299 642 221 q 586 431 642 379 q 447 482 531 482 q 308 431 364 482 q 251 299 251 381 q 304 168 251 221 q 447 115 357 115 z "},"9":{"ha":897,"x_min":99,"x_max":804,"o":"m 313 0 l 492 313 q 528 374 507 339 q 561 422 549 408 q 507 390 542 404 q 413 376 472 376 q 249 420 319 376 q 138 538 178 464 q 99 704 99 613 q 144 879 99 804 q 272 996 190 954 q 464 1038 354 1038 q 635 997 558 1038 q 758 880 713 956 q 804 697 804 804 q 800 628 804 663 q 780 548 796 594 q 730 432 764 501 q 639 258 696 363 q 493 0 582 153 l 313 0 m 450 510 q 588 560 532 510 q 644 701 644 610 q 590 847 644 790 q 454 903 536 903 q 311 846 364 903 q 258 703 258 789 q 285 597 258 640 q 356 532 313 554 q 450 510 400 510 z "},"A":{"ha":951,"x_min":-22,"x_max":974,"o":"m 467 1022 l 482 1022 l 974 0 l 794 0 l 707 200 l 239 200 l 151 0 l -22 0 l 467 1022 m 474 726 l 413 588 l 301 340 l 646 340 l 536 586 l 476 726 l 474 726 z "},"Á":{"ha":951,"x_min":-22,"x_max":974,"o":"m 467 1022 l 482 1022 l 974 0 l 794 0 l 707 200 l 239 200 l 151 0 l -22 0 l 467 1022 m 474 726 l 413 588 l 301 340 l 646 340 l 536 586 l 476 726 l 474 726 m 419 1099 l 360 1190 l 632 1397 l 715 1282 l 419 1099 z "},"Ă":{"ha":951,"x_min":-22,"x_max":974,"o":"m 467 1022 l 482 1022 l 974 0 l 794 0 l 707 200 l 239 200 l 151 0 l -22 0 l 467 1022 m 474 726 l 413 588 l 301 340 l 646 340 l 536 586 l 476 726 l 474 726 m 474 1110 q 338 1142 394 1110 q 251 1232 281 1175 q 221 1360 221 1289 l 354 1360 q 365 1300 354 1329 q 403 1251 376 1271 q 474 1232 429 1232 q 562 1273 531 1232 q 593 1360 593 1314 l 725 1360 q 695 1232 725 1289 q 609 1142 665 1175 q 474 1110 553 1110 z "},"Ắ":{"ha":951,"x_min":-22,"x_max":974,"o":"m 467 1022 l 482 1022 l 974 0 l 794 0 l 707 200 l 239 200 l 151 0 l -22 0 l 467 1022 m 474 726 l 413 588 l 301 340 l 646 340 l 536 586 l 476 726 l 474 726 m 515 1364 l 414 1415 l 579 1651 l 697 1581 l 515 1364 m 474 1097 q 303 1162 364 1097 q 242 1325 242 1226 l 365 1325 q 388 1245 365 1282 q 474 1208 411 1208 q 555 1245 526 1208 q 583 1325 583 1282 l 706 1325 q 644 1162 706 1226 q 474 1097 582 1097 z "},"Ặ":{"ha":951,"x_min":-22,"x_max":974,"o":"m 467 1022 l 482 1022 l 974 0 l 794 0 l 707 200 l 239 200 l 151 0 l -22 0 l 467 1022 m 474 726 l 413 588 l 301 340 l 646 340 l 536 586 l 476 726 l 474 726 m 476 -303 q 404 -274 433 -303 q 375 -201 375 -244 q 404 -135 375 -162 q 476 -107 433 -107 q 548 -135 519 -107 q 576 -201 576 -162 q 548 -274 576 -244 q 476 -303 519 -303 m 474 1110 q 338 1142 394 1110 q 251 1232 281 1175 q 221 1360 221 1289 l 354 1360 q 365 1300 354 1329 q 403 1251 376 1271 q 474 1232 429 1232 q 562 1273 531 1232 q 593 1360 593 1314 l 725 1360 q 695 1232 725 1289 q 609 1142 665 1175 q 474 1110 553 1110 z "},"Ằ":{"ha":951,"x_min":-22,"x_max":974,"o":"m 467 1022 l 482 1022 l 974 0 l 794 0 l 707 200 l 239 200 l 151 0 l -22 0 l 467 1022 m 474 726 l 413 588 l 301 340 l 646 340 l 536 586 l 476 726 l 474 726 m 488 1364 l 306 1581 l 424 1651 l 589 1415 l 488 1364 m 474 1097 q 303 1162 364 1097 q 242 1325 242 1226 l 365 1325 q 388 1245 365 1282 q 474 1208 411 1208 q 555 1245 526 1208 q 583 1325 583 1282 l 706 1325 q 644 1162 706 1226 q 474 1097 582 1097 z "},"Ẳ":{"ha":951,"x_min":-22,"x_max":974,"o":"m 467 1022 l 482 1022 l 974 0 l 794 0 l 707 200 l 239 200 l 151 0 l -22 0 l 467 1022 m 474 726 l 413 588 l 301 340 l 646 340 l 536 586 l 476 726 l 474 726 m 489 1382 q 448 1383 464 1382 q 411 1389 432 1383 l 390 1457 q 408 1455 399 1456 q 428 1454 418 1454 q 486 1467 458 1454 q 514 1515 514 1479 q 492 1553 514 1536 q 433 1571 471 1571 q 393 1564 414 1571 q 347 1544 372 1557 l 321 1624 q 379 1655 336 1638 q 469 1672 422 1672 q 547 1660 506 1672 q 617 1617 588 1649 q 646 1526 646 1585 q 628 1460 646 1493 q 574 1404 610 1426 q 489 1382 539 1382 m 474 1097 q 303 1162 364 1097 q 242 1325 242 1226 l 365 1325 q 388 1245 365 1282 q 474 1208 411 1208 q 555 1247 526 1208 q 583 1325 583 1285 l 706 1325 q 644 1162 706 1226 q 474 1097 582 1097 z "},"Ẵ":{"ha":951,"x_min":-22,"x_max":974,"o":"m 467 1022 l 482 1022 l 974 0 l 794 0 l 707 200 l 239 200 l 151 0 l -22 0 l 467 1022 m 474 726 l 413 588 l 301 340 l 646 340 l 536 586 l 476 726 l 474 726 m 553 1418 q 493 1429 515 1418 q 456 1455 471 1440 q 427 1481 442 1469 q 390 1492 413 1492 q 344 1476 369 1492 q 303 1425 319 1461 l 250 1497 q 275 1542 257 1518 q 323 1585 293 1567 q 393 1603 353 1603 q 455 1592 432 1603 q 492 1565 478 1581 q 522 1539 507 1550 q 558 1528 536 1528 q 603 1543 578 1528 q 644 1597 628 1558 l 697 1522 q 651 1453 689 1488 q 553 1418 614 1418 m 474 1097 q 303 1162 364 1097 q 242 1325 242 1226 l 365 1325 q 388 1245 365 1282 q 474 1208 411 1208 q 555 1247 526 1208 q 583 1325 583 1285 l 706 1325 q 644 1162 706 1226 q 474 1097 582 1097 z "},"Ǎ":{"ha":951,"x_min":-22,"x_max":974,"o":"m 467 1022 l 482 1022 l 974 0 l 794 0 l 707 200 l 239 200 l 151 0 l -22 0 l 467 1022 m 474 726 l 413 588 l 301 340 l 646 340 l 536 586 l 476 726 l 474 726 m 474 1090 l 210 1304 l 286 1379 l 474 1258 l 661 1379 l 736 1304 l 474 1090 z "},"Â":{"ha":951,"x_min":-22,"x_max":974,"o":"m 467 1022 l 482 1022 l 974 0 l 794 0 l 707 200 l 239 200 l 151 0 l -22 0 l 467 1022 m 474 726 l 413 588 l 301 340 l 646 340 l 536 586 l 476 726 l 474 726 m 286 1101 l 210 1176 l 474 1390 l 736 1176 l 661 1101 l 474 1222 l 286 1101 z "},"Ấ":{"ha":951,"x_min":-22,"x_max":974,"o":"m 467 1022 l 482 1022 l 974 0 l 794 0 l 707 200 l 239 200 l 151 0 l -22 0 l 467 1022 m 474 726 l 413 588 l 301 340 l 646 340 l 536 586 l 476 726 l 474 726 m 710 1210 l 608 1261 l 774 1497 l 892 1426 l 710 1210 m 303 1017 l 232 1088 l 475 1296 l 717 1088 l 647 1017 l 475 1140 l 303 1017 z "},"Ậ":{"ha":951,"x_min":-22,"x_max":974,"o":"m 467 1022 l 482 1022 l 974 0 l 794 0 l 707 200 l 239 200 l 151 0 l -22 0 l 467 1022 m 474 726 l 413 588 l 301 340 l 646 340 l 536 586 l 476 726 l 474 726 m 476 -303 q 404 -274 433 -303 q 375 -201 375 -244 q 404 -135 375 -162 q 476 -107 433 -107 q 548 -135 519 -107 q 576 -201 576 -162 q 548 -274 576 -244 q 476 -303 519 -303 m 286 1101 l 210 1176 l 474 1390 l 736 1176 l 661 1101 l 474 1222 l 286 1101 z "},"Ầ":{"ha":951,"x_min":-22,"x_max":974,"o":"m 467 1022 l 482 1022 l 974 0 l 794 0 l 707 200 l 239 200 l 151 0 l -22 0 l 467 1022 m 474 726 l 413 588 l 301 340 l 646 340 l 536 586 l 476 726 l 474 726 m 729 1210 l 547 1426 l 665 1497 l 831 1261 l 729 1210 m 303 1017 l 232 1088 l 475 1296 l 717 1088 l 647 1017 l 475 1140 l 303 1017 z "},"Ẩ":{"ha":951,"x_min":-22,"x_max":974,"o":"m 467 1022 l 482 1022 l 974 0 l 794 0 l 707 200 l 239 200 l 151 0 l -22 0 l 467 1022 m 474 726 l 413 588 l 301 340 l 646 340 l 536 586 l 476 726 l 474 726 m 489 1335 q 448 1335 464 1335 q 411 1342 432 1336 l 390 1410 q 408 1408 399 1408 q 428 1407 418 1407 q 486 1419 458 1407 q 514 1468 514 1432 q 492 1506 514 1489 q 433 1524 471 1524 q 393 1517 414 1524 q 347 1497 372 1510 l 321 1576 q 379 1608 336 1590 q 469 1625 422 1625 q 547 1613 506 1625 q 617 1569 588 1601 q 646 1479 646 1538 q 628 1413 646 1446 q 574 1357 610 1379 q 489 1335 539 1335 m 303 1017 l 232 1088 l 475 1296 l 717 1088 l 647 1017 l 475 1140 l 303 1017 z "},"Ẫ":{"ha":951,"x_min":-22,"x_max":974,"o":"m 467 1022 l 482 1022 l 974 0 l 794 0 l 707 200 l 239 200 l 151 0 l -22 0 l 467 1022 m 474 726 l 413 588 l 301 340 l 646 340 l 536 586 l 476 726 l 474 726 m 553 1315 q 493 1326 515 1315 q 456 1352 471 1338 q 427 1378 442 1367 q 390 1389 413 1389 q 344 1374 369 1389 q 303 1322 319 1358 l 250 1394 q 275 1440 257 1415 q 323 1482 293 1464 q 393 1500 353 1500 q 455 1489 432 1500 q 492 1463 478 1478 q 522 1436 507 1447 q 558 1425 536 1425 q 603 1440 578 1425 q 644 1494 628 1456 l 697 1419 q 651 1350 689 1385 q 553 1315 614 1315 m 303 1017 l 232 1088 l 475 1296 l 717 1088 l 647 1017 l 475 1140 l 303 1017 z "},"Ȁ":{"ha":951,"x_min":-22,"x_max":974,"o":"m 467 1022 l 482 1022 l 974 0 l 794 0 l 707 200 l 239 200 l 151 0 l -22 0 l 467 1022 m 474 726 l 413 588 l 301 340 l 646 340 l 536 586 l 476 726 l 474 726 m 572 1090 l 397 1351 l 533 1419 l 672 1133 l 572 1090 m 283 1090 l 94 1350 l 231 1418 l 383 1133 l 283 1090 z "},"Ä":{"ha":951,"x_min":-22,"x_max":974,"o":"m 467 1022 l 482 1022 l 974 0 l 794 0 l 707 200 l 239 200 l 151 0 l -22 0 l 467 1022 m 474 726 l 413 588 l 301 340 l 646 340 l 536 586 l 476 726 l 474 726 m 640 1125 q 569 1154 599 1125 q 540 1224 540 1183 q 569 1294 540 1265 q 640 1322 597 1322 q 713 1294 683 1322 q 742 1224 742 1265 q 713 1154 742 1183 q 640 1125 683 1125 m 306 1125 q 235 1154 264 1125 q 206 1224 206 1183 q 234 1294 206 1265 q 306 1322 263 1322 q 378 1294 350 1322 q 406 1224 406 1265 q 377 1154 406 1183 q 306 1125 349 1125 z "},"Ǟ":{"ha":951,"x_min":-22,"x_max":974,"o":"m 467 1022 l 482 1022 l 974 0 l 794 0 l 707 200 l 239 200 l 151 0 l -22 0 l 467 1022 m 474 726 l 413 588 l 301 340 l 646 340 l 536 586 l 476 726 l 474 726 m 640 1125 q 569 1154 599 1125 q 540 1224 540 1183 q 569 1294 540 1265 q 640 1322 597 1322 q 713 1294 683 1322 q 742 1224 742 1265 q 713 1154 742 1183 q 640 1125 683 1125 m 306 1125 q 235 1154 264 1125 q 206 1224 206 1183 q 234 1294 206 1265 q 306 1322 263 1322 q 378 1294 350 1322 q 406 1224 406 1265 q 377 1154 406 1183 q 306 1125 349 1125 m 239 1418 l 239 1533 l 708 1533 l 708 1418 l 239 1418 z "},"Ȧ":{"ha":951,"x_min":-22,"x_max":974,"o":"m 467 1022 l 482 1022 l 974 0 l 794 0 l 707 200 l 239 200 l 151 0 l -22 0 l 467 1022 m 474 726 l 413 588 l 301 340 l 646 340 l 536 586 l 476 726 l 474 726 m 474 1136 q 402 1165 431 1136 q 374 1235 374 1193 q 402 1306 374 1278 q 474 1335 431 1335 q 545 1306 517 1335 q 574 1235 574 1278 q 544 1165 574 1193 q 474 1136 515 1136 z "},"Ạ":{"ha":951,"x_min":-22,"x_max":974,"o":"m 467 1022 l 482 1022 l 974 0 l 794 0 l 707 200 l 239 200 l 151 0 l -22 0 l 467 1022 m 474 726 l 413 588 l 301 340 l 646 340 l 536 586 l 476 726 l 474 726 m 476 -303 q 404 -274 433 -303 q 375 -201 375 -244 q 404 -135 375 -162 q 476 -107 433 -107 q 548 -135 519 -107 q 576 -201 576 -162 q 548 -274 576 -244 q 476 -303 519 -303 z "},"Ǡ":{"ha":951,"x_min":-22,"x_max":974,"o":"m 467 1022 l 482 1022 l 974 0 l 794 0 l 707 200 l 239 200 l 151 0 l -22 0 l 467 1022 m 474 726 l 413 588 l 301 340 l 646 340 l 536 586 l 476 726 l 474 726 m 474 1136 q 402 1165 431 1136 q 374 1235 374 1193 q 402 1306 374 1278 q 474 1335 431 1335 q 545 1306 517 1335 q 574 1235 574 1278 q 544 1165 574 1193 q 474 1136 515 1136 m 239 1414 l 239 1529 l 708 1529 l 708 1414 l 239 1414 z "},"À":{"ha":951,"x_min":-22,"x_max":974,"o":"m 467 1022 l 482 1022 l 974 0 l 794 0 l 707 200 l 239 200 l 151 0 l -22 0 l 467 1022 m 474 726 l 413 588 l 301 340 l 646 340 l 536 586 l 476 726 l 474 726 m 528 1099 l 232 1282 l 315 1397 l 588 1190 l 528 1099 z "},"Ả":{"ha":951,"x_min":-22,"x_max":974,"o":"m 467 1022 l 482 1022 l 974 0 l 794 0 l 707 200 l 239 200 l 151 0 l -22 0 l 467 1022 m 474 726 l 413 588 l 301 340 l 646 340 l 536 586 l 476 726 l 474 726 m 489 1100 q 445 1101 463 1100 q 406 1108 428 1103 l 382 1196 q 424 1192 401 1192 q 471 1197 446 1192 q 514 1217 496 1203 q 532 1257 532 1231 q 449 1306 532 1306 q 386 1298 408 1306 q 336 1276 364 1290 l 307 1363 q 362 1397 322 1378 q 468 1415 401 1415 q 551 1402 507 1415 q 628 1354 596 1389 q 660 1257 660 1319 q 640 1185 660 1221 q 582 1124 619 1149 q 489 1100 544 1100 z "},"Ȃ":{"ha":951,"x_min":-22,"x_max":974,"o":"m 467 1022 l 482 1022 l 974 0 l 794 0 l 707 200 l 239 200 l 151 0 l -22 0 l 467 1022 m 474 726 l 413 588 l 301 340 l 646 340 l 536 586 l 476 726 l 474 726 m 221 1118 q 251 1247 221 1190 q 338 1335 281 1303 q 474 1368 394 1368 q 609 1335 553 1368 q 695 1247 665 1303 q 725 1118 725 1190 l 593 1118 q 562 1205 593 1164 q 474 1246 531 1246 q 403 1226 429 1246 q 365 1178 376 1207 q 354 1118 354 1149 l 221 1118 z "},"Ā":{"ha":951,"x_min":-22,"x_max":974,"o":"m 467 1022 l 482 1022 l 974 0 l 794 0 l 707 200 l 239 200 l 151 0 l -22 0 l 467 1022 m 474 726 l 413 588 l 301 340 l 646 340 l 536 586 l 476 726 l 474 726 m 239 1147 l 239 1263 l 708 1263 l 708 1147 l 239 1147 z "},"Ą":{"ha":951,"x_min":-22,"x_max":974,"o":"m 888 -367 q 737 -324 796 -367 q 678 -181 678 -282 q 697 -101 678 -136 q 745 -42 717 -67 q 799 0 774 -17 l 794 0 l 707 200 l 239 200 l 151 0 l -22 0 l 467 1022 l 482 1022 l 974 0 l 968 0 q 901 -27 938 -8 q 838 -76 864 -46 q 813 -150 813 -106 q 834 -206 813 -178 q 910 -233 856 -233 q 934 -233 919 -233 q 956 -231 949 -232 l 956 -360 q 925 -364 943 -361 q 888 -367 907 -367 m 474 726 l 413 588 l 301 340 l 646 340 l 536 586 l 476 726 l 474 726 z "},"Å":{"ha":951,"x_min":-22,"x_max":974,"o":"m 467 1022 l 482 1022 l 974 0 l 794 0 l 707 200 l 239 200 l 151 0 l -22 0 l 467 1022 m 474 726 l 413 588 l 301 340 l 646 340 l 536 586 l 476 726 l 474 726 m 474 1068 q 372 1091 419 1068 q 297 1154 325 1114 q 268 1249 268 1194 q 297 1342 268 1303 q 372 1403 325 1382 q 474 1425 419 1425 q 576 1403 529 1425 q 651 1341 622 1381 q 679 1249 679 1301 q 651 1155 679 1196 q 576 1091 622 1114 q 474 1068 529 1068 m 474 1168 q 532 1191 507 1168 q 557 1249 557 1214 q 532 1304 557 1283 q 474 1325 507 1325 q 415 1304 439 1325 q 392 1249 392 1283 q 415 1191 392 1214 q 474 1168 439 1168 z "},"Ǻ":{"ha":951,"x_min":-22,"x_max":974,"o":"m 467 1022 l 482 1022 l 974 0 l 794 0 l 707 200 l 239 200 l 151 0 l -22 0 l 467 1022 m 474 726 l 413 588 l 301 340 l 646 340 l 536 586 l 476 726 l 474 726 m 474 1068 q 372 1091 419 1068 q 297 1154 325 1114 q 268 1249 268 1194 q 297 1342 268 1303 q 372 1403 325 1382 q 474 1425 419 1425 q 576 1403 529 1425 q 651 1341 622 1381 q 679 1249 679 1301 q 651 1155 679 1196 q 576 1091 622 1114 q 474 1068 529 1068 m 474 1168 q 532 1191 507 1168 q 557 1249 557 1214 q 532 1304 557 1283 q 474 1325 507 1325 q 415 1304 439 1325 q 392 1249 392 1283 q 415 1191 392 1214 q 474 1168 439 1168 m 575 1246 l 515 1338 l 788 1544 l 871 1429 l 575 1246 z "},"Ḁ":{"ha":951,"x_min":-22,"x_max":974,"o":"m 467 1022 l 482 1022 l 974 0 l 794 0 l 707 200 l 239 200 l 151 0 l -22 0 l 467 1022 m 474 726 l 413 588 l 301 340 l 646 340 l 536 586 l 476 726 l 474 726 m 475 -387 q 351 -342 403 -387 q 299 -219 299 -296 q 323 -133 299 -171 q 388 -73 347 -94 q 475 -51 428 -51 q 601 -99 549 -51 q 653 -219 653 -146 q 601 -341 653 -294 q 475 -387 549 -387 m 475 -297 q 526 -276 504 -297 q 549 -219 549 -256 q 527 -164 549 -185 q 475 -143 506 -143 q 425 -164 446 -143 q 404 -219 404 -185 q 426 -276 404 -256 q 475 -297 447 -297 z "},"Ã":{"ha":951,"x_min":-22,"x_max":974,"o":"m 467 1022 l 482 1022 l 974 0 l 794 0 l 707 200 l 239 200 l 151 0 l -22 0 l 467 1022 m 474 726 l 413 588 l 301 340 l 646 340 l 536 586 l 476 726 l 474 726 m 567 1133 q 498 1147 524 1133 q 453 1177 472 1160 q 413 1208 433 1194 q 361 1221 393 1221 q 322 1203 335 1221 q 289 1142 308 1185 l 229 1235 q 285 1316 240 1281 q 382 1351 329 1351 q 456 1338 428 1351 q 501 1307 483 1325 q 538 1276 519 1289 q 582 1263 556 1263 q 632 1277 610 1263 q 668 1326 654 1292 l 721 1246 q 667 1164 714 1194 q 567 1133 619 1133 z "},"Æ":{"ha":1132,"x_min":-60,"x_max":1083,"o":"m -60 0 l 625 1021 l 1051 1021 l 1051 885 l 776 885 l 776 608 l 994 608 l 994 465 l 776 465 l 776 138 l 1083 138 l 1083 0 l 625 0 l 625 258 l 294 258 l 131 0 l -60 0 m 379 390 l 625 390 l 625 794 l 578 710 l 379 390 z "},"Ǽ":{"ha":1132,"x_min":-60,"x_max":1083,"o":"m -60 0 l 625 1021 l 1051 1021 l 1051 885 l 776 885 l 776 608 l 994 608 l 994 465 l 776 465 l 776 138 l 1083 138 l 1083 0 l 625 0 l 625 258 l 294 258 l 131 0 l -60 0 m 379 390 l 625 390 l 625 794 l 578 710 l 379 390 m 660 1099 l 600 1190 l 872 1397 l 956 1282 l 660 1099 z "},"Ǣ":{"ha":1132,"x_min":-60,"x_max":1083,"o":"m -60 0 l 625 1021 l 1051 1021 l 1051 885 l 776 885 l 776 608 l 994 608 l 994 465 l 776 465 l 776 138 l 1083 138 l 1083 0 l 625 0 l 625 258 l 294 258 l 131 0 l -60 0 m 379 390 l 625 390 l 625 794 l 578 710 l 379 390 m 479 1147 l 479 1263 l 949 1263 l 949 1147 l 479 1147 z "},"B":{"ha":869,"x_min":108,"x_max":796,"o":"m 108 0 l 108 1021 l 368 1021 q 566 996 493 1021 q 674 932 639 971 q 721 850 710 893 q 732 769 732 807 q 720 685 732 729 q 681 605 708 642 q 604 546 653 568 q 752 455 708 519 q 796 311 796 390 q 783 201 796 257 q 731 101 771 146 q 613 28 692 56 q 400 0 533 0 l 108 0 m 261 588 l 393 588 q 504 612 465 588 q 559 675 543 636 q 575 757 575 714 q 559 823 575 793 q 502 871 543 853 q 386 889 461 889 l 261 889 l 261 588 m 261 131 l 421 131 q 534 147 492 131 q 599 190 576 164 q 628 248 621 217 q 635 310 635 279 q 586 423 635 382 q 433 464 538 464 l 261 464 l 261 131 z "},"Ḃ":{"ha":869,"x_min":108,"x_max":796,"o":"m 108 0 l 108 1021 l 368 1021 q 566 996 493 1021 q 674 932 639 971 q 721 850 710 893 q 732 769 732 807 q 720 685 732 729 q 681 605 708 642 q 604 546 653 568 q 752 455 708 519 q 796 311 796 390 q 783 201 796 257 q 731 101 771 146 q 613 28 692 56 q 400 0 533 0 l 108 0 m 261 588 l 393 588 q 504 612 465 588 q 559 675 543 636 q 575 757 575 714 q 559 823 575 793 q 502 871 543 853 q 386 889 461 889 l 261 889 l 261 588 m 261 131 l 421 131 q 534 147 492 131 q 599 190 576 164 q 628 248 621 217 q 635 310 635 279 q 586 423 635 382 q 433 464 538 464 l 261 464 l 261 131 m 413 1136 q 341 1165 369 1136 q 313 1235 313 1193 q 341 1306 313 1278 q 413 1335 369 1335 q 484 1306 456 1335 q 513 1235 513 1278 q 483 1165 513 1193 q 413 1136 454 1136 z "},"Ḅ":{"ha":869,"x_min":108,"x_max":796,"o":"m 108 0 l 108 1021 l 368 1021 q 566 996 493 1021 q 674 932 639 971 q 721 850 710 893 q 732 769 732 807 q 720 685 732 729 q 681 605 708 642 q 604 546 653 568 q 752 455 708 519 q 796 311 796 390 q 783 201 796 257 q 731 101 771 146 q 613 28 692 56 q 400 0 533 0 l 108 0 m 261 588 l 393 588 q 504 612 465 588 q 559 675 543 636 q 575 757 575 714 q 559 823 575 793 q 502 871 543 853 q 386 889 461 889 l 261 889 l 261 588 m 261 131 l 421 131 q 534 147 492 131 q 599 190 576 164 q 628 248 621 217 q 635 310 635 279 q 586 423 635 382 q 433 464 538 464 l 261 464 l 261 131 m 435 -303 q 363 -274 392 -303 q 333 -201 333 -244 q 363 -135 333 -162 q 435 -107 392 -107 q 506 -135 478 -107 q 535 -201 535 -162 q 506 -274 535 -244 q 435 -303 478 -303 z "},"Ɓ":{"ha":1079,"x_min":28,"x_max":1006,"o":"m 318 0 l 318 874 q 224 857 251 872 q 192 820 197 842 q 188 779 188 799 q 199 733 188 753 q 219 706 211 713 l 54 676 q 39 716 50 686 q 28 783 28 746 q 318 1021 28 1021 l 578 1021 q 776 996 703 1021 q 884 932 849 971 q 931 850 919 893 q 942 769 942 807 q 930 685 942 729 q 890 605 918 642 q 814 546 863 568 q 962 455 918 519 q 1006 311 1006 390 q 993 201 1006 257 q 941 101 981 146 q 822 28 901 56 q 610 0 743 0 l 318 0 m 471 588 l 603 588 q 714 612 675 588 q 769 675 753 636 q 785 757 785 714 q 769 823 785 793 q 712 871 753 853 q 596 889 671 889 l 471 889 l 471 588 m 471 131 l 631 131 q 744 147 701 131 q 808 190 786 164 q 838 248 831 217 q 844 310 844 279 q 796 423 844 382 q 643 464 747 464 l 471 464 l 471 131 z "},"Ḇ":{"ha":869,"x_min":108,"x_max":796,"o":"m 108 0 l 108 1021 l 368 1021 q 566 996 493 1021 q 674 932 639 971 q 721 850 710 893 q 732 769 732 807 q 720 685 732 729 q 681 605 708 642 q 604 546 653 568 q 752 455 708 519 q 796 311 796 390 q 783 201 796 257 q 731 101 771 146 q 613 28 692 56 q 400 0 533 0 l 108 0 m 261 588 l 393 588 q 504 612 465 588 q 559 675 543 636 q 575 757 575 714 q 559 823 575 793 q 502 871 543 853 q 386 889 461 889 l 261 889 l 261 588 m 261 131 l 421 131 q 534 147 492 131 q 599 190 576 164 q 628 248 621 217 q 635 310 635 279 q 586 423 635 382 q 433 464 538 464 l 261 464 l 261 131 m 151 -242 l 151 -126 l 621 -126 l 621 -242 l 151 -242 z "},"C":{"ha":901,"x_min":60,"x_max":858,"o":"m 572 -10 q 355 32 450 -10 q 194 147 260 74 q 94 313 128 219 q 60 513 60 407 q 98 724 60 628 q 206 890 136 819 q 371 999 275 960 q 582 1038 467 1038 q 715 1022 657 1038 q 811 988 774 1007 q 858 958 849 969 l 790 819 q 698 874 753 853 q 569 894 643 894 q 397 847 474 894 q 274 714 319 800 q 229 510 229 628 q 268 320 229 406 q 383 183 307 235 q 567 132 458 132 q 684 148 626 132 q 803 201 742 164 l 849 69 q 788 34 831 53 q 688 3 744 15 q 572 -10 632 -10 z "},"Ć":{"ha":901,"x_min":60,"x_max":858,"o":"m 572 -10 q 355 32 450 -10 q 194 147 260 74 q 94 313 128 219 q 60 513 60 407 q 98 724 60 628 q 206 890 136 819 q 371 999 275 960 q 582 1038 467 1038 q 715 1022 657 1038 q 811 988 774 1007 q 858 958 849 969 l 790 819 q 698 874 753 853 q 569 894 643 894 q 397 847 474 894 q 274 714 319 800 q 229 510 229 628 q 268 320 229 406 q 383 183 307 235 q 567 132 458 132 q 684 148 626 132 q 803 201 742 164 l 849 69 q 788 34 831 53 q 688 3 744 15 q 572 -10 632 -10 m 528 1099 l 468 1190 l 740 1397 l 824 1282 l 528 1099 z "},"Č":{"ha":901,"x_min":60,"x_max":858,"o":"m 572 -10 q 355 32 450 -10 q 194 147 260 74 q 94 313 128 219 q 60 513 60 407 q 98 724 60 628 q 206 890 136 819 q 371 999 275 960 q 582 1038 467 1038 q 715 1022 657 1038 q 811 988 774 1007 q 858 958 849 969 l 790 819 q 698 874 753 853 q 569 894 643 894 q 397 847 474 894 q 274 714 319 800 q 229 510 229 628 q 268 320 229 406 q 383 183 307 235 q 567 132 458 132 q 684 148 626 132 q 803 201 742 164 l 849 69 q 788 34 831 53 q 688 3 744 15 q 572 -10 632 -10 m 582 1090 l 318 1304 l 394 1379 l 582 1258 l 769 1379 l 844 1304 l 582 1090 z "},"Ç":{"ha":901,"x_min":60,"x_max":858,"o":"m 572 -10 q 355 32 450 -10 q 194 147 260 74 q 94 313 128 219 q 60 513 60 407 q 98 724 60 628 q 206 890 136 819 q 371 999 275 960 q 582 1038 467 1038 q 715 1022 657 1038 q 811 988 774 1007 q 858 958 849 969 l 790 819 q 698 874 753 853 q 569 894 643 894 q 397 847 474 894 q 274 714 319 800 q 229 510 229 628 q 268 320 229 406 q 383 183 307 235 q 567 132 458 132 q 684 148 626 132 q 803 201 742 164 l 849 69 q 788 34 831 53 q 688 3 744 15 q 572 -10 632 -10 m 478 -353 q 436 -350 457 -353 q 403 -346 415 -347 l 415 -217 q 454 -219 435 -219 q 531 -202 510 -219 q 553 -157 553 -185 q 540 -116 553 -135 q 515 -76 528 -97 q 503 -28 503 -56 q 508 3 503 -4 q 514 14 513 11 l 553 22 l 613 14 q 631 -33 613 -11 q 669 -85 650 -56 q 688 -167 688 -115 q 628 -310 688 -268 q 478 -353 569 -353 z "},"Ḉ":{"ha":901,"x_min":60,"x_max":858,"o":"m 572 -10 q 355 32 450 -10 q 194 147 260 74 q 94 313 128 219 q 60 513 60 407 q 98 724 60 628 q 206 890 136 819 q 371 999 275 960 q 582 1038 467 1038 q 715 1022 657 1038 q 811 988 774 1007 q 858 958 849 969 l 790 819 q 698 874 753 853 q 569 894 643 894 q 397 847 474 894 q 274 714 319 800 q 229 510 229 628 q 268 320 229 406 q 383 183 307 235 q 567 132 458 132 q 684 148 626 132 q 803 201 742 164 l 849 69 q 788 34 831 53 q 688 3 744 15 q 572 -10 632 -10 m 478 -353 q 436 -350 457 -353 q 403 -346 415 -347 l 415 -217 q 454 -219 435 -219 q 531 -202 510 -219 q 553 -157 553 -185 q 540 -116 553 -135 q 515 -76 528 -97 q 503 -28 503 -56 q 508 3 503 -4 q 514 14 513 11 l 553 22 l 613 14 q 631 -33 613 -11 q 669 -85 650 -56 q 688 -167 688 -115 q 628 -310 688 -268 q 478 -353 569 -353 m 528 1099 l 468 1190 l 740 1397 l 824 1282 l 528 1099 z "},"Ĉ":{"ha":901,"x_min":60,"x_max":858,"o":"m 572 -10 q 355 32 450 -10 q 194 147 260 74 q 94 313 128 219 q 60 513 60 407 q 98 724 60 628 q 206 890 136 819 q 371 999 275 960 q 582 1038 467 1038 q 715 1022 657 1038 q 811 988 774 1007 q 858 958 849 969 l 790 819 q 698 874 753 853 q 569 894 643 894 q 397 847 474 894 q 274 714 319 800 q 229 510 229 628 q 268 320 229 406 q 383 183 307 235 q 567 132 458 132 q 684 148 626 132 q 803 201 742 164 l 849 69 q 788 34 831 53 q 688 3 744 15 q 572 -10 632 -10 m 394 1101 l 318 1176 l 582 1390 l 844 1176 l 769 1101 l 582 1222 l 394 1101 z "},"Ċ":{"ha":901,"x_min":60,"x_max":858,"o":"m 572 -10 q 355 32 450 -10 q 194 147 260 74 q 94 313 128 219 q 60 513 60 407 q 98 724 60 628 q 206 890 136 819 q 371 999 275 960 q 582 1038 467 1038 q 715 1022 657 1038 q 811 988 774 1007 q 858 958 849 969 l 790 819 q 698 874 753 853 q 569 894 643 894 q 397 847 474 894 q 274 714 319 800 q 229 510 229 628 q 268 320 229 406 q 383 183 307 235 q 567 132 458 132 q 684 148 626 132 q 803 201 742 164 l 849 69 q 788 34 831 53 q 688 3 744 15 q 572 -10 632 -10 m 582 1136 q 510 1165 539 1136 q 482 1235 482 1193 q 510 1306 482 1278 q 582 1335 539 1335 q 653 1306 625 1335 q 682 1235 682 1278 q 653 1165 682 1193 q 582 1136 624 1136 z "},"D":{"ha":956,"x_min":108,"x_max":908,"o":"m 108 0 l 108 1021 l 354 1021 q 588 990 492 1021 q 747 909 685 960 q 845 794 810 858 q 894 660 881 729 q 908 528 908 592 q 881 338 908 432 q 792 168 854 244 q 624 46 729 92 q 363 0 519 0 l 108 0 m 264 138 l 379 138 q 552 169 482 138 q 665 256 622 201 q 726 380 707 311 q 744 521 744 449 q 710 702 744 619 q 595 835 675 785 q 379 885 515 885 l 264 885 l 264 138 z "},"Ǳ":{"ha":1736,"x_min":108,"x_max":1697,"o":"m 108 0 l 108 1021 l 354 1021 q 588 990 492 1021 q 747 909 685 960 q 845 794 810 858 q 894 660 881 729 q 908 528 908 592 q 881 338 908 432 q 792 168 854 244 q 624 46 729 92 q 363 0 519 0 l 108 0 m 264 138 l 379 138 q 552 169 482 138 q 665 256 622 201 q 726 380 707 311 q 744 521 744 449 q 710 702 744 619 q 595 835 675 785 q 379 885 515 885 l 264 885 l 264 138 m 942 0 l 1453 888 l 1007 888 l 1007 1021 l 1697 1021 l 1193 136 l 1676 136 l 1676 0 l 942 0 z "},"Ǆ":{"ha":1736,"x_min":108,"x_max":1697,"o":"m 108 0 l 108 1021 l 354 1021 q 588 990 492 1021 q 747 909 685 960 q 845 794 810 858 q 894 660 881 729 q 908 528 908 592 q 881 338 908 432 q 792 168 854 244 q 624 46 729 92 q 363 0 519 0 l 108 0 m 264 138 l 379 138 q 552 169 482 138 q 665 256 622 201 q 726 380 707 311 q 744 521 744 449 q 710 702 744 619 q 595 835 675 785 q 379 885 515 885 l 264 885 l 264 138 m 942 0 l 1453 888 l 1007 888 l 1007 1021 l 1697 1021 l 1193 136 l 1676 136 l 1676 0 l 942 0 m 1338 1076 l 1074 1290 l 1150 1365 l 1338 1244 l 1525 1365 l 1600 1290 l 1338 1076 z "},"Ď":{"ha":956,"x_min":108,"x_max":908,"o":"m 108 0 l 108 1021 l 354 1021 q 588 990 492 1021 q 747 909 685 960 q 845 794 810 858 q 894 660 881 729 q 908 528 908 592 q 881 338 908 432 q 792 168 854 244 q 624 46 729 92 q 363 0 519 0 l 108 0 m 264 138 l 379 138 q 552 169 482 138 q 665 256 622 201 q 726 380 707 311 q 744 521 744 449 q 710 702 744 619 q 595 835 675 785 q 379 885 515 885 l 264 885 l 264 138 m 474 1090 l 210 1304 l 286 1379 l 474 1258 l 661 1379 l 736 1304 l 474 1090 z "},"Ḑ":{"ha":956,"x_min":108,"x_max":908,"o":"m 108 0 l 108 1021 l 354 1021 q 588 990 492 1021 q 747 909 685 960 q 845 794 810 858 q 894 660 881 729 q 908 528 908 592 q 881 338 908 432 q 792 168 854 244 q 624 46 729 92 q 363 0 519 0 l 108 0 m 264 138 l 379 138 q 552 169 482 138 q 665 256 622 201 q 726 380 707 311 q 744 521 744 449 q 710 702 744 619 q 595 835 675 785 q 379 885 515 885 l 264 885 l 264 138 m 388 -367 q 409 -303 399 -333 q 422 -243 419 -274 q 378 -161 378 -214 q 407 -90 378 -118 q 479 -62 436 -62 q 551 -90 524 -62 q 578 -161 578 -118 q 558 -244 578 -201 q 514 -321 539 -287 q 474 -367 489 -354 l 388 -367 z "},"Ḓ":{"ha":956,"x_min":108,"x_max":908,"o":"m 108 0 l 108 1021 l 354 1021 q 588 990 492 1021 q 747 909 685 960 q 845 794 810 858 q 894 660 881 729 q 908 528 908 592 q 881 338 908 432 q 792 168 854 244 q 624 46 729 92 q 363 0 519 0 l 108 0 m 264 138 l 379 138 q 552 169 482 138 q 665 256 622 201 q 726 380 707 311 q 744 521 744 449 q 710 702 744 619 q 595 835 675 785 q 379 885 515 885 l 264 885 l 264 138 m 319 -419 l 229 -344 l 478 -58 l 726 -344 l 638 -419 l 478 -226 l 319 -419 z "},"Đ":{"ha":1022,"x_min":28,"x_max":940,"o":"m 136 0 l 136 457 l 28 457 l 28 599 l 136 599 l 136 1021 l 324 1021 q 625 979 506 1021 q 814 867 744 938 q 912 707 883 796 q 940 524 940 618 q 910 315 940 411 q 809 149 879 219 q 620 39 739 78 q 324 0 501 0 l 136 0 m 292 138 l 367 138 q 612 184 522 138 q 740 315 701 231 q 778 513 778 399 q 682 785 778 686 q 367 885 586 885 l 292 885 l 292 599 l 489 599 l 489 457 l 292 457 l 292 138 z "},"Ḋ":{"ha":956,"x_min":108,"x_max":908,"o":"m 108 0 l 108 1021 l 354 1021 q 588 990 492 1021 q 747 909 685 960 q 845 794 810 858 q 894 660 881 729 q 908 528 908 592 q 881 338 908 432 q 792 168 854 244 q 624 46 729 92 q 363 0 519 0 l 108 0 m 264 138 l 379 138 q 552 169 482 138 q 665 256 622 201 q 726 380 707 311 q 744 521 744 449 q 710 702 744 619 q 595 835 675 785 q 379 885 515 885 l 264 885 l 264 138 m 474 1136 q 402 1165 431 1136 q 374 1235 374 1193 q 402 1306 374 1278 q 474 1335 431 1335 q 545 1306 517 1335 q 574 1235 574 1278 q 544 1165 574 1193 q 474 1136 515 1136 z "},"Ḍ":{"ha":956,"x_min":108,"x_max":908,"o":"m 108 0 l 108 1021 l 354 1021 q 588 990 492 1021 q 747 909 685 960 q 845 794 810 858 q 894 660 881 729 q 908 528 908 592 q 881 338 908 432 q 792 168 854 244 q 624 46 729 92 q 363 0 519 0 l 108 0 m 264 138 l 379 138 q 552 169 482 138 q 665 256 622 201 q 726 380 707 311 q 744 521 744 449 q 710 702 744 619 q 595 835 675 785 q 379 885 515 885 l 264 885 l 264 138 m 478 -303 q 406 -274 435 -303 q 376 -201 376 -244 q 406 -135 376 -162 q 478 -107 435 -107 q 549 -135 521 -107 q 578 -201 578 -162 q 549 -274 578 -244 q 478 -303 521 -303 z "},"Ɗ":{"ha":1165,"x_min":28,"x_max":1118,"o":"m 318 0 l 318 874 q 224 857 251 872 q 192 820 197 842 q 188 779 188 799 q 199 733 188 753 q 219 706 211 713 l 54 676 q 39 716 50 686 q 28 783 28 746 q 318 1021 28 1021 l 564 1021 q 798 990 701 1021 q 957 909 894 960 q 1055 794 1019 858 q 1104 660 1090 729 q 1118 528 1118 592 q 1091 338 1118 432 q 1001 168 1064 244 q 834 46 939 92 q 572 0 729 0 l 318 0 m 474 138 l 589 138 q 762 169 692 138 q 874 256 832 201 q 935 380 917 311 q 954 521 954 449 q 919 702 954 619 q 805 835 885 785 q 589 885 725 885 l 474 885 l 474 138 z "},"Ḏ":{"ha":956,"x_min":108,"x_max":908,"o":"m 108 0 l 108 1021 l 354 1021 q 588 990 492 1021 q 747 909 685 960 q 845 794 810 858 q 894 660 881 729 q 908 528 908 592 q 881 338 908 432 q 792 168 854 244 q 624 46 729 92 q 363 0 519 0 l 108 0 m 264 138 l 379 138 q 552 169 482 138 q 665 256 622 201 q 726 380 707 311 q 744 521 744 449 q 710 702 744 619 q 595 835 675 785 q 379 885 515 885 l 264 885 l 264 138 m 228 -228 l 228 -112 l 697 -112 l 697 -228 l 228 -228 z "},"Ɖ":{"ha":1022,"x_min":28,"x_max":940,"o":"m 136 0 l 136 457 l 28 457 l 28 599 l 136 599 l 136 1021 l 324 1021 q 625 979 506 1021 q 814 867 744 938 q 912 707 883 796 q 940 524 940 618 q 910 315 940 411 q 809 149 879 219 q 620 39 739 78 q 324 0 501 0 l 136 0 m 292 138 l 367 138 q 612 184 522 138 q 740 315 701 231 q 778 513 778 399 q 682 785 778 686 q 367 885 586 885 l 292 885 l 292 599 l 489 599 l 489 457 l 292 457 l 292 138 z "},"ǅ":{"ha":1572,"x_min":108,"x_max":1529,"o":"m 108 0 l 108 1021 l 354 1021 q 588 990 492 1021 q 747 909 685 960 q 845 794 810 858 q 894 660 881 729 q 908 528 908 592 q 881 338 908 432 q 792 168 854 244 q 624 46 729 92 q 363 0 519 0 l 108 0 m 264 138 l 379 138 q 552 169 482 138 q 665 256 622 201 q 726 380 707 311 q 744 521 744 449 q 710 702 744 619 q 595 835 675 785 q 379 885 515 885 l 264 885 l 264 138 m 972 0 l 1263 468 l 1297 518 l 1143 514 l 1033 514 l 1033 638 l 1529 638 l 1242 168 l 1207 115 l 1357 124 l 1518 124 l 1518 0 l 972 0 m 1265 729 l 1017 1029 l 1107 1104 l 1265 897 l 1425 1104 l 1514 1029 l 1265 729 z "},"Ð":{"ha":1022,"x_min":28,"x_max":940,"o":"m 136 0 l 136 457 l 28 457 l 28 599 l 136 599 l 136 1021 l 324 1021 q 625 979 506 1021 q 814 867 744 938 q 912 707 883 796 q 940 524 940 618 q 910 315 940 411 q 809 149 879 219 q 620 39 739 78 q 324 0 501 0 l 136 0 m 292 138 l 367 138 q 612 184 522 138 q 740 315 701 231 q 778 513 778 399 q 682 785 778 686 q 367 885 586 885 l 292 885 l 292 599 l 489 599 l 489 457 l 292 457 l 292 138 z "},"E":{"ha":649,"x_min":107,"x_max":600,"o":"m 107 0 l 107 1021 l 554 1021 l 554 885 l 261 885 l 261 603 l 497 603 l 497 464 l 261 464 l 261 138 l 600 138 l 600 0 l 107 0 z "},"É":{"ha":649,"x_min":107,"x_max":600,"o":"m 107 0 l 107 1021 l 554 1021 l 554 885 l 261 885 l 261 603 l 497 603 l 497 464 l 261 464 l 261 138 l 600 138 l 600 0 l 107 0 m 301 1099 l 242 1190 l 514 1397 l 597 1282 l 301 1099 z "},"Ĕ":{"ha":649,"x_min":103,"x_max":607,"o":"m 107 0 l 107 1021 l 554 1021 l 554 885 l 261 885 l 261 603 l 497 603 l 497 464 l 261 464 l 261 138 l 600 138 l 600 0 l 107 0 m 356 1110 q 219 1142 276 1110 q 133 1232 163 1175 q 103 1360 103 1289 l 236 1360 q 247 1300 236 1329 q 285 1251 258 1271 q 356 1232 311 1232 q 444 1273 413 1232 q 475 1360 475 1314 l 607 1360 q 577 1232 607 1289 q 491 1142 547 1175 q 356 1110 435 1110 z "},"Ě":{"ha":649,"x_min":92,"x_max":618,"o":"m 107 0 l 107 1021 l 554 1021 l 554 885 l 261 885 l 261 603 l 497 603 l 497 464 l 261 464 l 261 138 l 600 138 l 600 0 l 107 0 m 356 1090 l 92 1304 l 168 1379 l 356 1258 l 543 1379 l 618 1304 l 356 1090 z "},"Ȩ":{"ha":649,"x_min":107,"x_max":600,"o":"m 107 0 l 107 1021 l 554 1021 l 554 885 l 261 885 l 261 603 l 497 603 l 497 464 l 261 464 l 261 138 l 600 138 l 600 0 l 107 0 m 257 -353 q 215 -350 236 -353 q 182 -346 194 -347 l 194 -217 q 233 -219 214 -219 q 310 -202 289 -219 q 332 -157 332 -185 q 319 -116 332 -135 q 294 -76 307 -97 q 282 -28 282 -56 q 287 3 282 -4 q 293 14 292 11 l 332 22 l 392 14 q 410 -33 392 -11 q 448 -85 429 -56 q 467 -167 467 -115 q 408 -310 467 -268 q 257 -353 349 -353 z "},"Ḝ":{"ha":649,"x_min":103,"x_max":607,"o":"m 107 0 l 107 1021 l 554 1021 l 554 885 l 261 885 l 261 603 l 497 603 l 497 464 l 261 464 l 261 138 l 600 138 l 600 0 l 107 0 m 257 -353 q 215 -350 236 -353 q 182 -346 194 -347 l 194 -217 q 233 -219 214 -219 q 310 -202 289 -219 q 332 -157 332 -185 q 319 -116 332 -135 q 294 -76 307 -97 q 282 -28 282 -56 q 287 3 282 -4 q 293 14 292 11 l 332 22 l 392 14 q 410 -33 392 -11 q 448 -85 429 -56 q 467 -167 467 -115 q 408 -310 467 -268 q 257 -353 349 -353 m 356 1110 q 219 1142 276 1110 q 133 1232 163 1175 q 103 1360 103 1289 l 236 1360 q 247 1300 236 1329 q 285 1251 258 1271 q 356 1232 311 1232 q 444 1273 413 1232 q 475 1360 475 1314 l 607 1360 q 577 1232 607 1289 q 491 1142 547 1175 q 356 1110 435 1110 z "},"Ê":{"ha":649,"x_min":92,"x_max":618,"o":"m 107 0 l 107 1021 l 554 1021 l 554 885 l 261 885 l 261 603 l 497 603 l 497 464 l 261 464 l 261 138 l 600 138 l 600 0 l 107 0 m 168 1101 l 92 1176 l 356 1390 l 618 1176 l 543 1101 l 356 1222 l 168 1101 z "},"Ế":{"ha":649,"x_min":92,"x_max":618,"o":"m 107 0 l 107 1021 l 554 1021 l 554 885 l 261 885 l 261 603 l 497 603 l 497 464 l 261 464 l 261 138 l 600 138 l 600 0 l 107 0 m 168 1101 l 92 1176 l 356 1390 l 618 1176 l 543 1101 l 356 1222 l 168 1101 m 301 1425 l 242 1517 l 514 1724 l 597 1608 l 301 1425 z "},"Ḙ":{"ha":649,"x_min":97,"x_max":600,"o":"m 107 0 l 107 1021 l 554 1021 l 554 885 l 261 885 l 261 603 l 497 603 l 497 464 l 261 464 l 261 138 l 600 138 l 600 0 l 107 0 m 188 -419 l 97 -344 l 346 -58 l 594 -344 l 506 -419 l 346 -226 l 188 -419 z "},"Ệ":{"ha":649,"x_min":92,"x_max":618,"o":"m 107 0 l 107 1021 l 554 1021 l 554 885 l 261 885 l 261 603 l 497 603 l 497 464 l 261 464 l 261 138 l 600 138 l 600 0 l 107 0 m 346 -303 q 274 -274 303 -303 q 244 -201 244 -244 q 274 -135 244 -162 q 346 -107 303 -107 q 417 -135 389 -107 q 446 -201 446 -162 q 417 -274 446 -244 q 346 -303 389 -303 m 168 1101 l 92 1176 l 356 1390 l 618 1176 l 543 1101 l 356 1222 l 168 1101 z "},"Ề":{"ha":649,"x_min":92,"x_max":618,"o":"m 107 0 l 107 1021 l 554 1021 l 554 885 l 261 885 l 261 603 l 497 603 l 497 464 l 261 464 l 261 138 l 600 138 l 600 0 l 107 0 m 168 1101 l 92 1176 l 356 1390 l 618 1176 l 543 1101 l 356 1222 l 168 1101 m 410 1425 l 114 1608 l 197 1724 l 469 1517 l 410 1425 z "},"Ể":{"ha":649,"x_min":92,"x_max":618,"o":"m 107 0 l 107 1021 l 554 1021 l 554 885 l 261 885 l 261 603 l 497 603 l 497 464 l 261 464 l 261 138 l 600 138 l 600 0 l 107 0 m 168 1101 l 92 1176 l 356 1390 l 618 1176 l 543 1101 l 356 1222 l 168 1101 m 371 1426 q 327 1428 344 1426 q 288 1435 310 1429 l 264 1522 q 306 1518 283 1518 q 353 1524 328 1518 q 396 1543 378 1529 q 414 1583 414 1557 q 331 1632 414 1632 q 268 1624 290 1632 q 218 1603 246 1617 l 189 1689 q 244 1723 204 1704 q 350 1742 283 1742 q 433 1728 389 1742 q 510 1681 478 1715 q 542 1583 542 1646 q 522 1511 542 1547 q 464 1451 501 1475 q 371 1426 426 1426 z "},"Ễ":{"ha":649,"x_min":92,"x_max":618,"o":"m 107 0 l 107 1021 l 554 1021 l 554 885 l 261 885 l 261 603 l 497 603 l 497 464 l 261 464 l 261 138 l 600 138 l 600 0 l 107 0 m 168 1101 l 92 1176 l 356 1390 l 618 1176 l 543 1101 l 356 1222 l 168 1101 m 449 1460 q 380 1473 406 1460 q 335 1503 354 1486 q 295 1534 315 1521 q 243 1547 275 1547 q 203 1529 217 1547 q 171 1468 190 1511 l 111 1561 q 167 1642 122 1607 q 264 1678 211 1678 q 338 1665 310 1678 q 383 1633 365 1651 q 419 1602 401 1615 q 464 1589 438 1589 q 514 1603 492 1589 q 550 1653 536 1618 l 603 1572 q 549 1490 596 1521 q 449 1460 501 1460 z "},"Ȅ":{"ha":649,"x_min":-24,"x_max":600,"o":"m 107 0 l 107 1021 l 554 1021 l 554 885 l 261 885 l 261 603 l 497 603 l 497 464 l 261 464 l 261 138 l 600 138 l 600 0 l 107 0 m 454 1090 l 279 1351 l 415 1419 l 554 1133 l 454 1090 m 165 1090 l -24 1350 l 113 1418 l 265 1133 l 165 1090 z "},"Ë":{"ha":649,"x_min":88,"x_max":624,"o":"m 107 0 l 107 1021 l 554 1021 l 554 885 l 261 885 l 261 603 l 497 603 l 497 464 l 261 464 l 261 138 l 600 138 l 600 0 l 107 0 m 522 1125 q 451 1154 481 1125 q 422 1224 422 1183 q 451 1294 422 1265 q 522 1322 479 1322 q 594 1294 565 1322 q 624 1224 624 1265 q 594 1154 624 1183 q 522 1125 565 1125 m 188 1125 q 117 1154 146 1125 q 88 1224 88 1183 q 116 1294 88 1265 q 188 1322 144 1322 q 260 1294 232 1322 q 288 1224 288 1265 q 259 1154 288 1183 q 188 1125 231 1125 z "},"Ė":{"ha":649,"x_min":107,"x_max":600,"o":"m 107 0 l 107 1021 l 554 1021 l 554 885 l 261 885 l 261 603 l 497 603 l 497 464 l 261 464 l 261 138 l 600 138 l 600 0 l 107 0 m 356 1136 q 284 1165 313 1136 q 256 1235 256 1193 q 284 1306 256 1278 q 356 1335 313 1335 q 427 1306 399 1335 q 456 1235 456 1278 q 426 1165 456 1193 q 356 1136 397 1136 z "},"Ẹ":{"ha":649,"x_min":107,"x_max":600,"o":"m 107 0 l 107 1021 l 554 1021 l 554 885 l 261 885 l 261 603 l 497 603 l 497 464 l 261 464 l 261 138 l 600 138 l 600 0 l 107 0 m 346 -303 q 274 -274 303 -303 q 244 -201 244 -244 q 274 -135 244 -162 q 346 -107 303 -107 q 417 -135 389 -107 q 446 -201 446 -162 q 417 -274 446 -244 q 346 -303 389 -303 z "},"È":{"ha":649,"x_min":107,"x_max":600,"o":"m 107 0 l 107 1021 l 554 1021 l 554 885 l 261 885 l 261 603 l 497 603 l 497 464 l 261 464 l 261 138 l 600 138 l 600 0 l 107 0 m 410 1099 l 114 1282 l 197 1397 l 469 1190 l 410 1099 z "},"Ẻ":{"ha":649,"x_min":107,"x_max":600,"o":"m 107 0 l 107 1021 l 554 1021 l 554 885 l 261 885 l 261 603 l 497 603 l 497 464 l 261 464 l 261 138 l 600 138 l 600 0 l 107 0 m 371 1100 q 327 1101 344 1100 q 288 1108 310 1103 l 264 1196 q 306 1192 283 1192 q 353 1197 328 1192 q 396 1217 378 1203 q 414 1257 414 1231 q 331 1306 414 1306 q 268 1298 290 1306 q 218 1276 246 1290 l 189 1363 q 244 1397 204 1378 q 350 1415 283 1415 q 433 1402 389 1415 q 510 1354 478 1389 q 542 1257 542 1319 q 522 1185 542 1221 q 464 1124 501 1149 q 371 1100 426 1100 z "},"Ȇ":{"ha":649,"x_min":103,"x_max":607,"o":"m 107 0 l 107 1021 l 554 1021 l 554 885 l 261 885 l 261 603 l 497 603 l 497 464 l 261 464 l 261 138 l 600 138 l 600 0 l 107 0 m 103 1118 q 133 1247 103 1190 q 219 1335 163 1303 q 356 1368 276 1368 q 491 1335 435 1368 q 577 1247 547 1303 q 607 1118 607 1190 l 475 1118 q 444 1205 475 1164 q 356 1246 413 1246 q 285 1226 311 1246 q 247 1178 258 1207 q 236 1118 236 1149 l 103 1118 z "},"Ē":{"ha":649,"x_min":107,"x_max":600,"o":"m 107 0 l 107 1021 l 554 1021 l 554 885 l 261 885 l 261 603 l 497 603 l 497 464 l 261 464 l 261 138 l 600 138 l 600 0 l 107 0 m 121 1147 l 121 1263 l 590 1263 l 590 1147 l 121 1147 z "},"Ḗ":{"ha":649,"x_min":107,"x_max":600,"o":"m 107 0 l 107 1021 l 554 1021 l 554 885 l 261 885 l 261 603 l 497 603 l 497 464 l 261 464 l 261 138 l 600 138 l 600 0 l 107 0 m 121 1147 l 121 1263 l 590 1263 l 590 1147 l 121 1147 m 301 1369 l 242 1461 l 514 1668 l 597 1553 l 301 1369 z "},"Ḕ":{"ha":649,"x_min":107,"x_max":600,"o":"m 107 0 l 107 1021 l 554 1021 l 554 885 l 261 885 l 261 603 l 497 603 l 497 464 l 261 464 l 261 138 l 600 138 l 600 0 l 107 0 m 121 1147 l 121 1263 l 590 1263 l 590 1147 l 121 1147 m 410 1369 l 114 1553 l 197 1668 l 469 1461 l 410 1369 z "},"Ę":{"ha":650,"x_min":107,"x_max":601,"o":"m 107 0 l 107 1021 l 554 1021 l 554 885 l 261 885 l 261 603 l 497 603 l 497 464 l 261 464 l 261 138 l 600 138 l 600 1 l 601 0 q 534 -24 571 -6 q 471 -74 497 -43 q 444 -150 444 -106 q 466 -206 444 -178 q 542 -233 488 -233 q 566 -233 551 -233 q 588 -231 581 -232 l 588 -360 q 564 -364 575 -361 q 533 -367 553 -367 q 422 -348 472 -367 q 340 -288 371 -329 q 310 -181 310 -247 q 328 -102 310 -137 q 375 -41 347 -67 q 428 0 403 -15 l 107 0 z "},"Ǝ":{"ha":649,"x_min":49,"x_max":542,"o":"m 542 0 l 49 0 l 49 138 l 388 138 l 388 464 l 151 464 l 151 603 l 388 603 l 388 885 l 94 885 l 94 1021 l 542 1021 l 542 0 z "},"Ʃ":{"ha":718,"x_min":42,"x_max":669,"o":"m 42 0 l 376 510 l 42 1021 l 669 1021 l 669 893 l 292 893 l 539 510 l 303 128 l 669 128 l 669 0 l 42 0 z "},"Ẽ":{"ha":649,"x_min":107,"x_max":603,"o":"m 107 0 l 107 1021 l 554 1021 l 554 885 l 261 885 l 261 603 l 497 603 l 497 464 l 261 464 l 261 138 l 600 138 l 600 0 l 107 0 m 449 1133 q 380 1147 406 1133 q 335 1177 354 1160 q 295 1208 315 1194 q 243 1221 275 1221 q 203 1203 217 1221 q 171 1142 190 1185 l 111 1235 q 167 1316 122 1281 q 264 1351 211 1351 q 338 1338 310 1351 q 383 1307 365 1325 q 419 1276 401 1289 q 464 1263 438 1263 q 514 1277 492 1263 q 550 1326 536 1292 l 603 1246 q 549 1164 596 1194 q 449 1133 501 1133 z "},"Ḛ":{"ha":649,"x_min":96,"x_max":600,"o":"m 107 0 l 107 1021 l 554 1021 l 554 885 l 261 885 l 261 603 l 497 603 l 497 464 l 261 464 l 261 138 l 600 138 l 600 0 l 107 0 m 435 -290 q 366 -276 389 -290 q 325 -242 343 -261 q 294 -214 311 -225 q 250 -203 278 -203 q 203 -221 228 -203 q 160 -282 179 -239 l 96 -185 q 122 -135 103 -161 q 172 -90 140 -108 q 247 -72 204 -72 q 316 -87 292 -72 q 358 -121 340 -101 q 393 -150 375 -139 q 438 -161 411 -161 q 487 -142 460 -161 q 532 -79 514 -124 l 596 -178 q 569 -225 592 -199 q 513 -271 547 -251 q 435 -290 478 -290 z "},"Ə":{"ha":1032,"x_min":57,"x_max":967,"o":"m 485 -14 q 369 -2 429 -14 q 254 42 310 10 q 154 136 199 75 q 83 294 110 197 q 57 533 57 392 l 800 533 q 754 715 797 633 q 634 845 711 797 q 454 893 557 893 q 320 879 376 893 q 230 849 264 865 q 185 825 196 832 l 125 956 q 181 984 139 965 q 290 1019 222 1003 q 449 1036 357 1036 q 656 997 561 1036 q 820 888 750 958 q 928 722 890 817 q 967 513 967 626 q 910 243 967 363 q 747 55 854 124 q 485 -14 639 -14 m 482 129 q 690 206 613 129 q 790 410 768 282 l 235 410 q 272 242 235 304 q 365 155 308 181 q 482 129 422 129 z "},"Ʒ":{"ha":858,"x_min":76,"x_max":785,"o":"m 385 -21 q 267 -9 328 -21 q 155 24 206 3 q 76 71 104 44 l 142 203 q 242 148 178 175 q 378 121 306 121 q 493 137 439 121 q 581 195 547 153 q 615 314 615 238 q 551 446 615 396 q 376 496 486 496 q 308 494 343 496 q 247 488 274 492 l 503 885 l 119 885 l 119 1021 l 779 1021 l 490 608 q 647 567 581 606 q 749 465 713 528 q 785 325 785 401 q 738 148 785 226 q 602 24 692 69 q 385 -21 513 -21 z "},"Ǯ":{"ha":858,"x_min":76,"x_max":785,"o":"m 385 -21 q 267 -9 328 -21 q 155 24 206 3 q 76 71 104 44 l 142 203 q 242 148 178 175 q 378 121 306 121 q 493 137 439 121 q 581 195 547 153 q 615 314 615 238 q 551 446 615 396 q 376 496 486 496 q 308 494 343 496 q 247 488 274 492 l 503 885 l 119 885 l 119 1021 l 779 1021 l 490 608 q 647 567 581 606 q 749 465 713 528 q 785 325 785 401 q 738 148 785 226 q 602 24 692 69 q 385 -21 513 -21 m 429 1090 l 165 1304 l 242 1379 l 429 1258 l 617 1379 l 692 1304 l 429 1090 z "},"F":{"ha":649,"x_min":107,"x_max":586,"o":"m 107 0 l 107 1021 l 586 1021 l 586 886 l 261 886 l 261 597 l 514 597 l 514 461 l 261 461 l 261 0 l 107 0 z "},"Ḟ":{"ha":649,"x_min":107,"x_max":586,"o":"m 107 0 l 107 1021 l 586 1021 l 586 886 l 261 886 l 261 597 l 514 597 l 514 461 l 261 461 l 261 0 l 107 0 m 358 1136 q 287 1165 315 1136 q 258 1235 258 1193 q 287 1306 258 1278 q 358 1335 315 1335 q 430 1306 401 1335 q 458 1235 458 1278 q 429 1165 458 1193 q 358 1136 400 1136 z "},"G":{"ha":1033,"x_min":60,"x_max":968,"o":"m 585 -14 q 373 26 469 -14 q 206 138 276 67 q 98 308 136 210 q 60 519 60 406 q 99 726 60 632 q 208 890 138 821 q 376 998 279 960 q 589 1036 474 1036 q 745 1020 679 1036 q 851 985 811 1004 q 901 956 890 967 l 840 825 q 801 850 831 833 q 720 881 772 867 q 586 894 668 894 q 392 845 472 894 q 268 713 311 796 q 225 528 225 629 q 272 319 225 410 q 401 177 319 228 q 588 126 483 126 q 709 142 647 126 q 814 193 771 157 l 814 390 l 604 390 l 604 533 l 968 533 l 968 133 q 824 31 922 75 q 585 -14 725 -14 z "},"Ǵ":{"ha":1033,"x_min":60,"x_max":968,"o":"m 585 -14 q 373 26 469 -14 q 206 138 276 67 q 98 308 136 210 q 60 519 60 406 q 99 726 60 632 q 208 890 138 821 q 376 998 279 960 q 589 1036 474 1036 q 745 1020 679 1036 q 851 985 811 1004 q 901 956 890 967 l 840 825 q 801 850 831 833 q 720 881 772 867 q 586 894 668 894 q 392 845 472 894 q 268 713 311 796 q 225 528 225 629 q 272 319 225 410 q 401 177 319 228 q 588 126 483 126 q 709 142 647 126 q 814 193 771 157 l 814 390 l 604 390 l 604 533 l 968 533 l 968 133 q 824 31 922 75 q 585 -14 725 -14 m 535 1099 l 475 1190 l 747 1397 l 831 1282 l 535 1099 z "},"Ğ":{"ha":1033,"x_min":60,"x_max":968,"o":"m 585 -14 q 373 26 469 -14 q 206 138 276 67 q 98 308 136 210 q 60 519 60 406 q 99 726 60 632 q 208 890 138 821 q 376 998 279 960 q 589 1036 474 1036 q 745 1020 679 1036 q 851 985 811 1004 q 901 956 890 967 l 840 825 q 801 850 831 833 q 720 881 772 867 q 586 894 668 894 q 392 845 472 894 q 268 713 311 796 q 225 528 225 629 q 272 319 225 410 q 401 177 319 228 q 588 126 483 126 q 709 142 647 126 q 814 193 771 157 l 814 390 l 604 390 l 604 533 l 968 533 l 968 133 q 824 31 922 75 q 585 -14 725 -14 m 589 1110 q 453 1142 510 1110 q 366 1232 396 1175 q 336 1360 336 1289 l 469 1360 q 481 1300 469 1329 q 518 1251 492 1271 q 589 1232 544 1232 q 677 1273 646 1232 q 708 1360 708 1314 l 840 1360 q 810 1232 840 1289 q 724 1142 781 1175 q 589 1110 668 1110 z "},"Ǧ":{"ha":1033,"x_min":60,"x_max":968,"o":"m 585 -14 q 373 26 469 -14 q 206 138 276 67 q 98 308 136 210 q 60 519 60 406 q 99 726 60 632 q 208 890 138 821 q 376 998 279 960 q 589 1036 474 1036 q 745 1020 679 1036 q 851 985 811 1004 q 901 956 890 967 l 840 825 q 801 850 831 833 q 720 881 772 867 q 586 894 668 894 q 392 845 472 894 q 268 713 311 796 q 225 528 225 629 q 272 319 225 410 q 401 177 319 228 q 588 126 483 126 q 709 142 647 126 q 814 193 771 157 l 814 390 l 604 390 l 604 533 l 968 533 l 968 133 q 824 31 922 75 q 585 -14 725 -14 m 589 1090 l 325 1304 l 401 1379 l 589 1258 l 776 1379 l 851 1304 l 589 1090 z "},"Ĝ":{"ha":1033,"x_min":60,"x_max":968,"o":"m 585 -14 q 373 26 469 -14 q 206 138 276 67 q 98 308 136 210 q 60 519 60 406 q 99 726 60 632 q 208 890 138 821 q 376 998 279 960 q 589 1036 474 1036 q 745 1020 679 1036 q 851 985 811 1004 q 901 956 890 967 l 840 825 q 801 850 831 833 q 720 881 772 867 q 586 894 668 894 q 392 845 472 894 q 268 713 311 796 q 225 528 225 629 q 272 319 225 410 q 401 177 319 228 q 588 126 483 126 q 709 142 647 126 q 814 193 771 157 l 814 390 l 604 390 l 604 533 l 968 533 l 968 133 q 824 31 922 75 q 585 -14 725 -14 m 401 1101 l 325 1176 l 589 1390 l 851 1176 l 776 1101 l 589 1222 l 401 1101 z "},"Ģ":{"ha":1033,"x_min":60,"x_max":968,"o":"m 585 -14 q 373 26 469 -14 q 206 138 276 67 q 98 308 136 210 q 60 519 60 406 q 99 726 60 632 q 208 890 138 821 q 376 998 279 960 q 589 1036 474 1036 q 745 1020 679 1036 q 851 985 811 1004 q 901 956 890 967 l 840 825 q 801 850 831 833 q 720 881 772 867 q 586 894 668 894 q 392 845 472 894 q 268 713 311 796 q 225 528 225 629 q 272 319 225 410 q 401 177 319 228 q 588 126 483 126 q 709 142 647 126 q 814 193 771 157 l 814 390 l 604 390 l 604 533 l 968 533 l 968 133 q 824 31 922 75 q 585 -14 725 -14 m 486 -367 q 508 -303 497 -333 q 521 -243 518 -274 q 476 -161 476 -214 q 506 -90 476 -118 q 578 -62 535 -62 q 649 -90 622 -62 q 676 -161 676 -118 q 657 -244 676 -201 q 613 -321 638 -287 q 572 -367 588 -354 l 486 -367 z "},"Ġ":{"ha":1033,"x_min":60,"x_max":968,"o":"m 585 -14 q 373 26 469 -14 q 206 138 276 67 q 98 308 136 210 q 60 519 60 406 q 99 726 60 632 q 208 890 138 821 q 376 998 279 960 q 589 1036 474 1036 q 745 1020 679 1036 q 851 985 811 1004 q 901 956 890 967 l 840 825 q 801 850 831 833 q 720 881 772 867 q 586 894 668 894 q 392 845 472 894 q 268 713 311 796 q 225 528 225 629 q 272 319 225 410 q 401 177 319 228 q 588 126 483 126 q 709 142 647 126 q 814 193 771 157 l 814 390 l 604 390 l 604 533 l 968 533 l 968 133 q 824 31 922 75 q 585 -14 725 -14 m 589 1136 q 517 1165 546 1136 q 489 1235 489 1193 q 517 1306 489 1278 q 589 1335 546 1335 q 660 1306 632 1335 q 689 1235 689 1278 q 660 1165 689 1193 q 589 1136 631 1136 z "},"Ḡ":{"ha":1033,"x_min":60,"x_max":968,"o":"m 585 -14 q 373 26 469 -14 q 206 138 276 67 q 98 308 136 210 q 60 519 60 406 q 99 726 60 632 q 208 890 138 821 q 376 998 279 960 q 589 1036 474 1036 q 745 1020 679 1036 q 851 985 811 1004 q 901 956 890 967 l 840 825 q 801 850 831 833 q 720 881 772 867 q 586 894 668 894 q 392 845 472 894 q 268 713 311 796 q 225 528 225 629 q 272 319 225 410 q 401 177 319 228 q 588 126 483 126 q 709 142 647 126 q 814 193 771 157 l 814 390 l 604 390 l 604 533 l 968 533 l 968 133 q 824 31 922 75 q 585 -14 725 -14 m 354 1147 l 354 1263 l 824 1263 l 824 1147 l 354 1147 z "},"Ǥ":{"ha":1033,"x_min":60,"x_max":1036,"o":"m 585 -14 q 373 26 469 -14 q 206 138 276 67 q 98 308 136 210 q 60 519 60 406 q 99 726 60 632 q 208 890 138 821 q 376 998 279 960 q 589 1036 474 1036 q 745 1020 679 1036 q 851 985 811 1004 q 901 956 890 967 l 840 825 q 801 850 831 833 q 720 881 772 867 q 586 894 668 894 q 392 845 472 894 q 268 713 311 796 q 225 528 225 629 q 272 319 225 410 q 401 177 319 228 q 588 126 483 126 q 709 142 647 126 q 814 193 771 157 l 814 218 l 560 218 l 560 351 l 814 351 l 814 390 l 604 390 l 604 533 l 968 533 l 968 351 l 1036 351 l 1036 218 l 968 218 l 968 133 q 824 31 922 75 q 585 -14 725 -14 z "},"H":{"ha":885,"x_min":107,"x_max":778,"o":"m 107 0 l 107 1021 l 263 1021 l 263 604 l 622 604 l 622 1021 l 778 1021 l 778 0 l 622 0 l 622 474 l 263 474 l 263 0 l 107 0 z "},"Ħ":{"ha":910,"x_min":50,"x_max":860,"o":"m 119 0 l 119 624 l 50 624 l 50 732 l 119 732 l 119 1021 l 275 1021 l 275 732 l 635 732 l 635 1021 l 790 1021 l 790 732 l 860 732 l 860 624 l 790 624 l 790 0 l 635 0 l 635 371 l 275 371 l 275 0 l 119 0 m 275 501 l 635 501 l 635 624 l 275 624 l 275 501 z "},"Ḫ":{"ha":885,"x_min":107,"x_max":778,"o":"m 107 0 l 107 1021 l 263 1021 l 263 604 l 622 604 l 622 1021 l 778 1021 l 778 0 l 622 0 l 622 474 l 263 474 l 263 0 l 107 0 m 443 -300 q 265 -235 329 -300 q 201 -62 201 -169 l 329 -62 q 354 -144 329 -108 q 443 -179 379 -179 q 528 -144 497 -179 q 558 -62 558 -108 l 685 -62 q 620 -235 685 -169 q 443 -300 556 -300 z "},"Ȟ":{"ha":885,"x_min":107,"x_max":778,"o":"m 107 0 l 107 1021 l 263 1021 l 263 604 l 622 604 l 622 1021 l 778 1021 l 778 0 l 622 0 l 622 474 l 263 474 l 263 0 l 107 0 m 442 1076 l 178 1290 l 254 1365 l 442 1244 l 629 1365 l 704 1290 l 442 1076 z "},"Ḩ":{"ha":885,"x_min":22,"x_max":778,"o":"m 107 0 l 107 1021 l 263 1021 l 263 604 l 622 604 l 622 1021 l 778 1021 l 778 0 l 622 0 l 622 474 l 263 474 l 263 0 l 107 0 m 97 -353 q 56 -350 76 -353 q 22 -346 35 -347 l 35 -217 q 74 -219 54 -219 q 151 -202 129 -219 q 172 -157 172 -185 q 160 -116 172 -135 q 135 -76 147 -97 q 122 -28 122 -56 q 127 3 122 -4 q 133 14 132 11 l 172 22 l 232 14 q 251 -33 232 -11 q 288 -85 269 -56 q 307 -167 307 -115 q 248 -310 307 -268 q 97 -353 189 -353 z "},"Ĥ":{"ha":885,"x_min":107,"x_max":778,"o":"m 107 0 l 107 1021 l 263 1021 l 263 604 l 622 604 l 622 1021 l 778 1021 l 778 0 l 622 0 l 622 474 l 263 474 l 263 0 l 107 0 m 254 1088 l 178 1163 l 442 1376 l 704 1163 l 629 1088 l 442 1208 l 254 1088 z "},"Ḧ":{"ha":885,"x_min":107,"x_max":778,"o":"m 107 0 l 107 1021 l 263 1021 l 263 604 l 622 604 l 622 1021 l 778 1021 l 778 0 l 622 0 l 622 474 l 263 474 l 263 0 l 107 0 m 608 1111 q 538 1140 567 1111 q 508 1210 508 1169 q 537 1280 508 1251 q 608 1308 565 1308 q 681 1280 651 1308 q 710 1210 710 1251 q 681 1140 710 1169 q 608 1111 651 1111 m 274 1111 q 203 1140 232 1111 q 174 1210 174 1169 q 202 1280 174 1251 q 274 1308 231 1308 q 346 1280 318 1308 q 374 1210 374 1251 q 345 1140 374 1169 q 274 1111 317 1111 z "},"Ḣ":{"ha":885,"x_min":107,"x_max":778,"o":"m 107 0 l 107 1021 l 263 1021 l 263 604 l 622 604 l 622 1021 l 778 1021 l 778 0 l 622 0 l 622 474 l 263 474 l 263 0 l 107 0 m 442 1122 q 370 1151 399 1122 q 342 1221 342 1179 q 370 1292 342 1264 q 442 1321 399 1321 q 513 1292 485 1321 q 542 1221 542 1264 q 513 1151 542 1179 q 442 1122 483 1122 z "},"Ḥ":{"ha":885,"x_min":107,"x_max":778,"o":"m 107 0 l 107 1021 l 263 1021 l 263 604 l 622 604 l 622 1021 l 778 1021 l 778 0 l 622 0 l 622 474 l 263 474 l 263 0 l 107 0 m 443 -303 q 371 -274 400 -303 q 342 -201 342 -244 q 371 -135 342 -162 q 443 -107 400 -107 q 515 -135 486 -107 q 543 -201 543 -162 q 515 -274 543 -244 q 443 -303 486 -303 z "},"Ɥ":{"ha":799,"x_min":92,"x_max":693,"o":"m 693 1021 l 693 0 l 547 0 l 547 383 l 553 501 q 470 406 528 446 q 332 367 413 367 q 178 409 229 367 q 109 530 126 451 q 92 714 92 608 l 92 1021 l 240 1021 l 240 713 q 263 548 240 603 q 364 493 285 493 q 446 517 404 493 q 517 589 488 542 q 546 704 546 636 l 546 1021 l 693 1021 z "},"I":{"ha":408,"x_min":126,"x_max":282,"o":"m 126 0 l 126 1021 l 282 1021 l 282 0 l 126 0 z "},"Ĳ":{"ha":999,"x_min":126,"x_max":881,"o":"m 126 0 l 126 1021 l 282 1021 l 282 0 l 126 0 m 626 -14 q 516 -1 579 -14 q 408 50 453 11 l 471 193 q 526 150 494 165 q 604 135 557 135 q 673 149 646 135 q 713 204 700 164 q 726 321 726 244 l 726 1021 l 881 1021 l 881 282 q 846 106 881 171 q 753 14 811 42 q 626 -14 696 -14 z "},"Í":{"ha":408,"x_min":90,"x_max":446,"o":"m 126 0 l 126 1021 l 282 1021 l 282 0 l 126 0 m 150 1099 l 90 1190 l 363 1397 l 446 1282 l 150 1099 z "},"Ĭ":{"ha":408,"x_min":-49,"x_max":456,"o":"m 126 0 l 126 1021 l 282 1021 l 282 0 l 126 0 m 204 1110 q 68 1142 125 1110 q -19 1232 11 1175 q -49 1360 -49 1289 l 85 1360 q 96 1300 85 1329 q 133 1251 107 1271 q 204 1232 160 1232 q 292 1273 261 1232 q 324 1360 324 1314 l 456 1360 q 426 1232 456 1289 q 340 1142 396 1175 q 204 1110 283 1110 z "},"Ǐ":{"ha":408,"x_min":-60,"x_max":467,"o":"m 126 0 l 126 1021 l 282 1021 l 282 0 l 126 0 m 204 1090 l -60 1304 l 17 1379 l 204 1258 l 392 1379 l 467 1304 l 204 1090 z "},"Î":{"ha":408,"x_min":-60,"x_max":467,"o":"m 126 0 l 126 1021 l 282 1021 l 282 0 l 126 0 m 17 1101 l -60 1176 l 204 1390 l 467 1176 l 392 1101 l 204 1222 l 17 1101 z "},"Ȉ":{"ha":408,"x_min":-175,"x_max":403,"o":"m 126 0 l 126 1021 l 282 1021 l 282 0 l 126 0 m 303 1090 l 128 1351 l 264 1419 l 403 1133 l 303 1090 m 14 1090 l -175 1350 l -39 1418 l 114 1133 l 14 1090 z "},"Ï":{"ha":408,"x_min":-64,"x_max":472,"o":"m 126 0 l 126 1021 l 282 1021 l 282 0 l 126 0 m 371 1125 q 300 1154 329 1125 q 271 1224 271 1183 q 299 1294 271 1265 q 371 1322 328 1322 q 443 1294 414 1322 q 472 1224 472 1265 q 443 1154 472 1183 q 371 1125 414 1125 m 36 1125 q -35 1154 -6 1125 q -64 1224 -64 1183 q -35 1294 -64 1265 q 36 1322 -7 1322 q 108 1294 81 1322 q 136 1224 136 1265 q 108 1154 136 1183 q 36 1125 79 1125 z "},"Ḯ":{"ha":408,"x_min":-64,"x_max":472,"o":"m 126 0 l 126 1021 l 282 1021 l 282 0 l 126 0 m 371 1125 q 300 1154 329 1125 q 271 1224 271 1183 q 299 1294 271 1265 q 371 1322 328 1322 q 443 1294 414 1322 q 472 1224 472 1265 q 443 1154 472 1183 q 371 1125 414 1125 m 36 1125 q -35 1154 -6 1125 q -64 1224 -64 1183 q -35 1294 -64 1265 q 36 1322 -7 1322 q 108 1294 81 1322 q 136 1224 136 1265 q 108 1154 136 1183 q 36 1125 79 1125 m 150 1369 l 90 1461 l 363 1668 l 446 1553 l 150 1369 z "},"İ":{"ha":408,"x_min":104,"x_max":304,"o":"m 126 0 l 126 1021 l 282 1021 l 282 0 l 126 0 m 204 1136 q 133 1165 161 1136 q 104 1235 104 1193 q 133 1306 104 1278 q 204 1335 161 1335 q 276 1306 247 1335 q 304 1235 304 1278 q 275 1165 304 1193 q 204 1136 246 1136 z "},"Ị":{"ha":408,"x_min":103,"x_max":304,"o":"m 126 0 l 126 1021 l 282 1021 l 282 0 l 126 0 m 204 -303 q 132 -274 161 -303 q 103 -201 103 -244 q 132 -135 103 -162 q 204 -107 161 -107 q 276 -135 247 -107 q 304 -201 304 -162 q 276 -274 304 -244 q 204 -303 247 -303 z "},"Ì":{"ha":408,"x_min":-37,"x_max":318,"o":"m 126 0 l 126 1021 l 282 1021 l 282 0 l 126 0 m 258 1099 l -37 1282 l 46 1397 l 318 1190 l 258 1099 z "},"Ỉ":{"ha":408,"x_min":38,"x_max":390,"o":"m 126 0 l 126 1021 l 282 1021 l 282 0 l 126 0 m 219 1100 q 176 1101 193 1100 q 136 1108 158 1103 l 113 1196 q 154 1192 132 1192 q 201 1197 176 1192 q 244 1217 226 1203 q 263 1257 263 1231 q 179 1306 263 1306 q 117 1298 139 1306 q 67 1276 94 1290 l 38 1363 q 92 1397 53 1378 q 199 1415 132 1415 q 282 1402 238 1415 q 358 1354 326 1389 q 390 1257 390 1319 q 370 1185 390 1221 q 313 1124 350 1149 q 219 1100 275 1100 z "},"Ȋ":{"ha":408,"x_min":-49,"x_max":456,"o":"m 126 0 l 126 1021 l 282 1021 l 282 0 l 126 0 m -49 1118 q -19 1247 -49 1190 q 68 1335 11 1303 q 204 1368 125 1368 q 340 1335 283 1368 q 426 1247 396 1303 q 456 1118 456 1190 l 324 1118 q 292 1205 324 1164 q 204 1246 261 1246 q 133 1226 160 1246 q 96 1178 107 1207 q 85 1118 85 1149 l -49 1118 z "},"Ī":{"ha":408,"x_min":-31,"x_max":439,"o":"m 126 0 l 126 1021 l 282 1021 l 282 0 l 126 0 m -31 1147 l -31 1263 l 439 1263 l 439 1147 l -31 1147 z "},"Į":{"ha":408,"x_min":4,"x_max":282,"o":"m 214 -367 q 63 -324 122 -367 q 4 -181 4 -282 q 24 -95 4 -132 q 73 -33 44 -58 q 126 8 101 -7 l 126 1021 l 282 1021 l 282 0 q 218 -27 251 -8 q 162 -76 185 -46 q 139 -150 139 -106 q 160 -206 139 -178 q 236 -233 182 -233 q 260 -233 246 -233 q 282 -231 275 -232 l 282 -360 q 251 -364 269 -361 q 214 -367 233 -367 z "},"Ɨ":{"ha":408,"x_min":28,"x_max":382,"o":"m 126 0 l 126 457 l 28 457 l 28 599 l 126 599 l 126 1021 l 282 1021 l 282 599 l 382 599 l 382 457 l 282 457 l 282 0 l 126 0 z "},"Ĩ":{"ha":408,"x_min":-40,"x_max":451,"o":"m 126 0 l 126 1021 l 282 1021 l 282 0 l 126 0 m 297 1133 q 228 1147 254 1133 q 183 1177 203 1160 q 144 1208 164 1194 q 92 1221 124 1221 q 52 1203 65 1221 q 19 1142 39 1185 l -40 1235 q 15 1316 -29 1281 q 113 1351 60 1351 q 186 1338 158 1351 q 232 1307 214 1325 q 268 1276 250 1289 q 313 1263 286 1263 q 363 1277 340 1263 q 399 1326 385 1292 l 451 1246 q 397 1164 444 1194 q 297 1133 350 1133 z "},"Ḭ":{"ha":408,"x_min":-46,"x_max":454,"o":"m 126 0 l 126 1021 l 282 1021 l 282 0 l 126 0 m 293 -290 q 224 -276 247 -290 q 183 -242 201 -261 q 153 -214 169 -225 q 108 -203 136 -203 q 62 -221 86 -203 q 18 -282 38 -239 l -46 -185 q -20 -135 -39 -161 q 31 -90 -1 -108 q 106 -72 63 -72 q 174 -87 150 -72 q 217 -121 199 -101 q 251 -150 233 -139 q 296 -161 269 -161 q 345 -142 318 -161 q 390 -79 372 -124 l 454 -178 q 428 -225 450 -199 q 371 -271 406 -251 q 293 -290 336 -290 z "},"J":{"ha":640,"x_min":50,"x_max":522,"o":"m 268 -14 q 158 -1 221 -14 q 50 50 94 11 l 113 193 q 167 150 136 165 q 246 135 199 135 q 315 149 288 135 q 355 204 342 164 q 368 321 368 244 l 368 1021 l 522 1021 l 522 282 q 488 106 522 171 q 395 14 453 42 q 268 -14 338 -14 z "},"Ĵ":{"ha":640,"x_min":50,"x_max":707,"o":"m 268 -14 q 158 -1 221 -14 q 50 50 94 11 l 113 193 q 167 150 136 165 q 246 135 199 135 q 315 149 288 135 q 355 204 342 164 q 368 321 368 244 l 368 1021 l 522 1021 l 522 282 q 488 106 522 171 q 395 14 453 42 q 268 -14 338 -14 m 257 1101 l 181 1176 l 444 1390 l 707 1176 l 632 1101 l 444 1222 l 257 1101 z "},"K":{"ha":826,"x_min":108,"x_max":847,"o":"m 108 0 l 108 1021 l 261 1021 l 261 565 l 611 1021 l 797 1021 l 446 572 l 847 0 l 657 0 l 344 457 l 261 354 l 261 0 l 108 0 z "},"Ḱ":{"ha":826,"x_min":108,"x_max":847,"o":"m 108 0 l 108 1021 l 261 1021 l 261 565 l 611 1021 l 797 1021 l 446 572 l 847 0 l 657 0 l 344 457 l 261 354 l 261 0 l 108 0 m 367 1099 l 307 1190 l 579 1397 l 663 1282 l 367 1099 z "},"Ǩ":{"ha":826,"x_min":108,"x_max":847,"o":"m 108 0 l 108 1021 l 261 1021 l 261 565 l 611 1021 l 797 1021 l 446 572 l 847 0 l 657 0 l 344 457 l 261 354 l 261 0 l 108 0 m 421 1090 l 157 1304 l 233 1379 l 421 1258 l 608 1379 l 683 1304 l 421 1090 z "},"Ķ":{"ha":826,"x_min":108,"x_max":847,"o":"m 108 0 l 108 1021 l 261 1021 l 261 565 l 611 1021 l 797 1021 l 446 572 l 847 0 l 657 0 l 344 457 l 261 354 l 261 0 l 108 0 m 324 -367 q 345 -303 335 -333 q 358 -243 356 -274 q 314 -161 314 -214 q 343 -90 314 -118 q 415 -62 372 -62 q 487 -90 460 -62 q 514 -161 514 -118 q 494 -244 514 -201 q 450 -321 475 -287 q 410 -367 425 -354 l 324 -367 z "},"Ḳ":{"ha":826,"x_min":108,"x_max":847,"o":"m 108 0 l 108 1021 l 261 1021 l 261 565 l 611 1021 l 797 1021 l 446 572 l 847 0 l 657 0 l 344 457 l 261 354 l 261 0 l 108 0 m 414 -303 q 342 -274 371 -303 q 313 -201 313 -244 q 342 -135 313 -162 q 414 -107 371 -107 q 485 -135 457 -107 q 514 -201 514 -162 q 485 -274 514 -244 q 414 -303 457 -303 z "},"Ƙ":{"ha":826,"x_min":108,"x_max":847,"o":"m 657 0 l 344 457 l 261 354 l 261 0 l 108 0 l 108 1021 l 261 1021 l 261 567 l 482 883 q 535 949 501 911 q 619 1014 569 986 q 736 1042 669 1042 q 812 1031 789 1042 q 844 1015 835 1019 l 815 874 q 788 894 808 882 q 740 906 768 906 q 654 863 689 906 q 574 757 619 819 l 444 574 l 847 0 l 657 0 z "},"Ḵ":{"ha":826,"x_min":108,"x_max":847,"o":"m 108 0 l 108 1021 l 261 1021 l 261 565 l 611 1021 l 797 1021 l 446 572 l 847 0 l 657 0 l 344 457 l 261 354 l 261 0 l 108 0 m 179 -228 l 179 -112 l 649 -112 l 649 -228 l 179 -228 z "},"L":{"ha":600,"x_min":108,"x_max":558,"o":"m 108 0 l 108 1021 l 265 1021 l 265 139 l 558 139 l 558 0 l 108 0 z "},"Ǉ":{"ha":1222,"x_min":108,"x_max":1104,"o":"m 108 0 l 108 1021 l 265 1021 l 265 139 l 558 139 l 558 0 l 108 0 m 850 -14 q 740 -1 803 -14 q 632 50 676 11 l 694 193 q 749 150 718 165 q 828 135 781 135 q 897 149 869 135 q 937 204 924 164 q 950 321 950 244 l 950 1021 l 1104 1021 l 1104 282 q 1069 106 1104 171 q 977 14 1035 42 q 850 -14 919 -14 z "},"Ĺ":{"ha":600,"x_min":74,"x_max":558,"o":"m 108 0 l 108 1021 l 265 1021 l 265 139 l 558 139 l 558 0 l 108 0 m 133 1099 l 74 1190 l 346 1397 l 429 1282 l 133 1099 z "},"Ľ":{"ha":600,"x_min":108,"x_max":581,"o":"m 108 0 l 108 1021 l 265 1021 l 265 139 l 558 139 l 558 0 l 108 0 m 444 681 l 444 1021 l 581 1021 l 542 681 l 444 681 z "},"Ḽ":{"ha":600,"x_min":79,"x_max":576,"o":"m 108 0 l 108 1021 l 265 1021 l 265 139 l 558 139 l 558 0 l 108 0 m 169 -419 l 79 -344 l 328 -58 l 576 -344 l 488 -419 l 328 -226 l 169 -419 z "},"Ļ":{"ha":600,"x_min":108,"x_max":558,"o":"m 108 0 l 108 1021 l 265 1021 l 265 139 l 558 139 l 558 0 l 108 0 m 238 -367 q 259 -303 249 -333 q 272 -243 269 -274 q 228 -161 228 -214 q 257 -90 228 -118 q 329 -62 286 -62 q 401 -90 374 -62 q 428 -161 428 -118 q 408 -244 428 -201 q 364 -321 389 -287 q 324 -367 339 -354 l 238 -367 z "},"Ŀ":{"ha":636,"x_min":108,"x_max":622,"o":"m 519 382 q 449 411 478 382 q 421 483 421 440 q 449 553 421 525 q 519 582 476 582 q 593 553 564 582 q 622 483 622 525 q 593 411 622 440 q 519 382 564 382 m 108 0 l 108 1021 l 265 1021 l 265 139 l 558 139 l 558 0 l 108 0 z "},"Ḷ":{"ha":600,"x_min":108,"x_max":558,"o":"m 108 0 l 108 1021 l 265 1021 l 265 139 l 558 139 l 558 0 l 108 0 m 328 -303 q 256 -274 285 -303 q 226 -201 226 -244 q 256 -135 226 -162 q 328 -107 285 -107 q 399 -135 371 -107 q 428 -201 428 -162 q 399 -274 428 -244 q 328 -303 371 -303 z "},"Ḹ":{"ha":600,"x_min":-47,"x_max":558,"o":"m 108 0 l 108 1021 l 265 1021 l 265 139 l 558 139 l 558 0 l 108 0 m -47 1147 l -47 1263 l 422 1263 l 422 1147 l -47 1147 m 328 -303 q 256 -274 285 -303 q 226 -201 226 -244 q 256 -135 226 -162 q 328 -107 285 -107 q 399 -135 371 -107 q 428 -201 428 -162 q 399 -274 428 -244 q 328 -303 371 -303 z "},"ǈ":{"ha":988,"x_min":108,"x_max":900,"o":"m 108 0 l 108 1021 l 265 1021 l 265 139 l 558 139 l 558 0 l 108 0 m 639 -339 q 528 -324 588 -339 l 560 -189 q 603 -204 585 -199 q 642 -210 621 -210 q 688 -201 669 -210 q 717 -165 707 -192 q 728 -83 728 -137 l 728 638 l 878 638 l 878 -90 q 815 -276 878 -212 q 639 -339 751 -339 m 800 757 q 728 786 757 757 q 700 858 700 815 q 728 925 700 897 q 800 953 757 953 q 872 925 843 953 q 900 858 900 897 q 872 786 900 815 q 800 757 843 757 z "},"Ḻ":{"ha":600,"x_min":93,"x_max":563,"o":"m 108 0 l 108 1021 l 265 1021 l 265 139 l 558 139 l 558 0 l 108 0 m 93 -228 l 93 -112 l 563 -112 l 563 -228 l 93 -228 z "},"Ł":{"ha":642,"x_min":42,"x_max":600,"o":"m 151 0 l 151 372 l 42 321 l 42 450 l 151 501 l 151 1021 l 307 1021 l 307 574 l 485 649 l 485 518 l 307 443 l 307 138 l 600 138 l 600 0 l 151 0 z "},"M":{"ha":1243,"x_min":29,"x_max":1214,"o":"m 617 0 l 371 476 l 307 621 l 278 476 l 183 0 l 29 0 l 240 1021 l 257 1021 l 538 469 l 621 285 l 704 469 l 979 1021 l 994 1021 l 1214 0 l 1061 0 l 958 476 l 928 621 l 872 476 l 625 0 l 617 0 z "},"Ḿ":{"ha":1243,"x_min":29,"x_max":1214,"o":"m 617 0 l 371 476 l 307 621 l 278 476 l 183 0 l 29 0 l 240 1021 l 257 1021 l 538 469 l 621 285 l 704 469 l 979 1021 l 994 1021 l 1214 0 l 1061 0 l 958 476 l 928 621 l 872 476 l 625 0 l 617 0 m 567 1050 l 507 1142 l 779 1349 l 863 1233 l 567 1050 z "},"Ṁ":{"ha":1243,"x_min":29,"x_max":1214,"o":"m 617 0 l 371 476 l 307 621 l 278 476 l 183 0 l 29 0 l 240 1021 l 257 1021 l 538 469 l 621 285 l 704 469 l 979 1021 l 994 1021 l 1214 0 l 1061 0 l 958 476 l 928 621 l 872 476 l 625 0 l 617 0 m 621 1088 q 549 1116 578 1088 q 521 1186 521 1144 q 549 1258 521 1229 q 621 1286 578 1286 q 692 1258 664 1286 q 721 1186 721 1229 q 692 1116 721 1144 q 621 1088 663 1088 z "},"Ṃ":{"ha":1243,"x_min":29,"x_max":1214,"o":"m 617 0 l 371 476 l 307 621 l 278 476 l 183 0 l 29 0 l 240 1021 l 257 1021 l 538 469 l 621 285 l 704 469 l 979 1021 l 994 1021 l 1214 0 l 1061 0 l 958 476 l 928 621 l 872 476 l 625 0 l 617 0 m 622 -303 q 550 -274 579 -303 q 521 -201 521 -244 q 550 -135 521 -162 q 622 -107 579 -107 q 694 -135 665 -107 q 722 -201 722 -162 q 694 -274 722 -244 q 622 -303 665 -303 z "},"Ɯ":{"ha":1247,"x_min":96,"x_max":1140,"o":"m 1140 1021 l 1140 0 l 986 0 l 986 115 q 899 15 956 47 q 768 -17 842 -17 q 625 17 674 -15 q 558 101 576 50 q 465 15 528 47 q 333 -17 401 -17 q 178 23 229 -17 q 112 138 128 63 q 96 318 96 213 l 96 1021 l 251 1021 l 251 317 q 273 158 251 210 q 358 107 294 107 q 497 168 453 107 q 540 321 540 229 l 540 1021 l 696 1021 l 696 294 q 701 193 696 235 q 728 129 706 151 q 807 107 751 107 q 896 136 856 107 q 960 214 936 165 q 985 321 985 263 l 985 1021 l 1140 1021 z "},"N":{"ha":986,"x_min":108,"x_max":878,"o":"m 857 0 l 260 661 l 264 550 l 264 0 l 108 0 l 108 1022 l 128 1022 l 728 353 l 722 469 l 722 1021 l 878 1021 l 878 0 l 857 0 z "},"Ǌ":{"ha":1583,"x_min":108,"x_max":1465,"o":"m 857 0 l 260 661 l 264 550 l 264 0 l 108 0 l 108 1022 l 128 1022 l 728 353 l 722 469 l 722 1021 l 878 1021 l 878 0 l 857 0 m 1211 -14 q 1101 -1 1164 -14 q 993 50 1038 11 l 1056 193 q 1110 150 1079 165 q 1189 135 1142 135 q 1258 149 1231 135 q 1298 204 1285 164 q 1311 321 1311 244 l 1311 1021 l 1465 1021 l 1465 282 q 1431 106 1465 171 q 1338 14 1396 42 q 1211 -14 1281 -14 z "},"Ń":{"ha":986,"x_min":108,"x_max":878,"o":"m 857 0 l 260 661 l 264 550 l 264 0 l 108 0 l 108 1022 l 128 1022 l 728 353 l 722 469 l 722 1021 l 878 1021 l 878 0 l 857 0 m 429 1099 l 369 1190 l 642 1397 l 725 1282 l 429 1099 z "},"Ň":{"ha":986,"x_min":108,"x_max":878,"o":"m 857 0 l 260 661 l 264 550 l 264 0 l 108 0 l 108 1022 l 128 1022 l 728 353 l 722 469 l 722 1021 l 878 1021 l 878 0 l 857 0 m 483 1090 l 219 1304 l 296 1379 l 483 1258 l 671 1379 l 746 1304 l 483 1090 z "},"Ṋ":{"ha":986,"x_min":108,"x_max":878,"o":"m 857 0 l 260 661 l 264 550 l 264 0 l 108 0 l 108 1022 l 128 1022 l 728 353 l 722 469 l 722 1021 l 878 1021 l 878 0 l 857 0 m 335 -419 l 244 -344 l 493 -58 l 742 -344 l 653 -419 l 493 -226 l 335 -419 z "},"Ņ":{"ha":986,"x_min":108,"x_max":878,"o":"m 857 0 l 260 661 l 264 550 l 264 0 l 108 0 l 108 1022 l 128 1022 l 728 353 l 722 469 l 722 1021 l 878 1021 l 878 0 l 857 0 m 403 -367 q 424 -303 414 -333 q 438 -243 435 -274 q 393 -161 393 -214 q 422 -90 393 -118 q 494 -62 451 -62 q 566 -90 539 -62 q 593 -161 593 -118 q 574 -244 593 -201 q 529 -321 554 -287 q 489 -367 504 -354 l 403 -367 z "},"Ṅ":{"ha":986,"x_min":108,"x_max":878,"o":"m 857 0 l 260 661 l 264 550 l 264 0 l 108 0 l 108 1022 l 128 1022 l 728 353 l 722 469 l 722 1021 l 878 1021 l 878 0 l 857 0 m 483 1136 q 412 1165 440 1136 q 383 1235 383 1193 q 412 1306 383 1278 q 483 1335 440 1335 q 555 1306 526 1335 q 583 1235 583 1278 q 554 1165 583 1193 q 483 1136 525 1136 z "},"Ṇ":{"ha":986,"x_min":108,"x_max":878,"o":"m 857 0 l 260 661 l 264 550 l 264 0 l 108 0 l 108 1022 l 128 1022 l 728 353 l 722 469 l 722 1021 l 878 1021 l 878 0 l 857 0 m 493 -303 q 421 -274 450 -303 q 392 -201 392 -244 q 421 -135 392 -162 q 493 -107 450 -107 q 565 -135 536 -107 q 593 -201 593 -162 q 565 -274 593 -244 q 493 -303 536 -303 z "},"Ǹ":{"ha":986,"x_min":108,"x_max":878,"o":"m 857 0 l 260 661 l 264 550 l 264 0 l 108 0 l 108 1022 l 128 1022 l 728 353 l 722 469 l 722 1021 l 878 1021 l 878 0 l 857 0 m 538 1099 l 242 1282 l 325 1397 l 597 1190 l 538 1099 z "},"ǋ":{"ha":1360,"x_min":108,"x_max":1272,"o":"m 857 0 l 260 661 l 264 550 l 264 0 l 108 0 l 108 1022 l 128 1022 l 728 353 l 722 469 l 722 1021 l 878 1021 l 878 0 l 857 0 m 1011 -339 q 900 -324 960 -339 l 932 -189 q 975 -204 957 -199 q 1014 -210 993 -210 q 1060 -201 1042 -210 q 1090 -165 1079 -192 q 1100 -83 1100 -137 l 1100 638 l 1250 638 l 1250 -90 q 1187 -276 1250 -212 q 1011 -339 1124 -339 m 1172 757 q 1101 786 1129 757 q 1072 858 1072 815 q 1101 925 1072 897 q 1172 953 1129 953 q 1244 925 1215 953 q 1272 858 1272 897 q 1244 786 1272 815 q 1172 757 1215 757 z "},"Ṉ":{"ha":986,"x_min":108,"x_max":878,"o":"m 857 0 l 260 661 l 264 550 l 264 0 l 108 0 l 108 1022 l 128 1022 l 728 353 l 722 469 l 722 1021 l 878 1021 l 878 0 l 857 0 m 258 -228 l 258 -112 l 728 -112 l 728 -228 l 258 -228 z "},"Ñ":{"ha":986,"x_min":108,"x_max":878,"o":"m 857 0 l 260 661 l 264 550 l 264 0 l 108 0 l 108 1022 l 128 1022 l 728 353 l 722 469 l 722 1021 l 878 1021 l 878 0 l 857 0 m 576 1133 q 508 1147 533 1133 q 463 1177 482 1160 q 423 1208 443 1194 q 371 1221 403 1221 q 331 1203 344 1221 q 299 1142 318 1185 l 239 1235 q 294 1316 250 1281 q 392 1351 339 1351 q 465 1338 438 1351 q 511 1307 493 1325 q 547 1276 529 1289 q 592 1263 565 1263 q 642 1277 619 1263 q 678 1326 664 1292 l 731 1246 q 676 1164 724 1194 q 576 1133 629 1133 z "},"Ŋ":{"ha":978,"x_min":107,"x_max":882,"o":"m 719 686 q 715 760 719 721 q 694 835 711 800 q 640 892 678 869 q 535 914 603 914 q 386 869 449 914 q 290 758 324 825 q 257 621 257 690 l 257 0 l 107 0 l 107 1021 l 256 1021 l 256 825 q 319 949 272 903 q 430 1017 367 996 q 557 1038 493 1038 q 751 995 681 1038 q 852 875 822 953 q 882 690 882 797 l 882 -61 q 859 -198 882 -143 q 797 -285 836 -253 q 713 -330 758 -317 q 621 -343 667 -343 q 493 -330 557 -343 q 381 -286 429 -317 l 447 -140 q 515 -181 475 -164 q 596 -199 554 -199 q 688 -158 657 -199 q 719 -24 719 -117 l 719 686 z "},"O":{"ha":1156,"x_min":65,"x_max":1090,"o":"m 578 -14 q 381 22 474 -14 q 218 127 289 58 q 106 293 147 196 q 65 513 65 390 q 106 733 65 636 q 219 899 147 831 q 383 1002 290 967 q 578 1038 475 1038 q 773 1002 681 1038 q 937 899 865 967 q 1049 733 1008 831 q 1090 513 1090 636 q 1049 293 1090 390 q 938 127 1008 196 q 774 22 867 58 q 578 -14 682 -14 m 578 126 q 751 171 672 126 q 878 301 831 215 q 925 511 925 386 q 878 723 925 638 q 752 852 831 808 q 578 896 674 896 q 403 852 482 896 q 278 723 325 808 q 231 511 231 638 q 279 301 231 386 q 407 171 328 215 q 578 126 486 126 z "},"Ó":{"ha":1156,"x_min":65,"x_max":1090,"o":"m 578 -14 q 381 22 474 -14 q 218 127 289 58 q 106 293 147 196 q 65 513 65 390 q 106 733 65 636 q 219 899 147 831 q 383 1002 290 967 q 578 1038 475 1038 q 773 1002 681 1038 q 937 899 865 967 q 1049 733 1008 831 q 1090 513 1090 636 q 1049 293 1090 390 q 938 127 1008 196 q 774 22 867 58 q 578 -14 682 -14 m 578 126 q 751 171 672 126 q 878 301 831 215 q 925 511 925 386 q 878 723 925 638 q 752 852 831 808 q 578 896 674 896 q 403 852 482 896 q 278 723 325 808 q 231 511 231 638 q 279 301 231 386 q 407 171 328 215 q 578 126 486 126 m 524 1099 l 464 1190 l 736 1397 l 819 1282 l 524 1099 z "},"Ŏ":{"ha":1156,"x_min":65,"x_max":1090,"o":"m 578 -14 q 381 22 474 -14 q 218 127 289 58 q 106 293 147 196 q 65 513 65 390 q 106 733 65 636 q 219 899 147 831 q 383 1002 290 967 q 578 1038 475 1038 q 773 1002 681 1038 q 937 899 865 967 q 1049 733 1008 831 q 1090 513 1090 636 q 1049 293 1090 390 q 938 127 1008 196 q 774 22 867 58 q 578 -14 682 -14 m 578 126 q 751 171 672 126 q 878 301 831 215 q 925 511 925 386 q 878 723 925 638 q 752 852 831 808 q 578 896 674 896 q 403 852 482 896 q 278 723 325 808 q 231 511 231 638 q 279 301 231 386 q 407 171 328 215 q 578 126 486 126 m 578 1110 q 442 1142 499 1110 q 355 1232 385 1175 q 325 1360 325 1289 l 458 1360 q 469 1300 458 1329 q 507 1251 481 1271 q 578 1232 533 1232 q 666 1273 635 1232 q 697 1360 697 1314 l 829 1360 q 799 1232 829 1289 q 713 1142 769 1175 q 578 1110 657 1110 z "},"Ǒ":{"ha":1156,"x_min":65,"x_max":1090,"o":"m 578 -14 q 381 22 474 -14 q 218 127 289 58 q 106 293 147 196 q 65 513 65 390 q 106 733 65 636 q 219 899 147 831 q 383 1002 290 967 q 578 1038 475 1038 q 773 1002 681 1038 q 937 899 865 967 q 1049 733 1008 831 q 1090 513 1090 636 q 1049 293 1090 390 q 938 127 1008 196 q 774 22 867 58 q 578 -14 682 -14 m 578 126 q 751 171 672 126 q 878 301 831 215 q 925 511 925 386 q 878 723 925 638 q 752 852 831 808 q 578 896 674 896 q 403 852 482 896 q 278 723 325 808 q 231 511 231 638 q 279 301 231 386 q 407 171 328 215 q 578 126 486 126 m 578 1090 l 314 1304 l 390 1379 l 578 1258 l 765 1379 l 840 1304 l 578 1090 z "},"Ɵ":{"ha":1156,"x_min":65,"x_max":1090,"o":"m 578 -14 q 381 22 474 -14 q 218 127 289 58 q 106 293 147 196 q 65 513 65 390 q 106 733 65 636 q 219 899 147 831 q 383 1002 290 967 q 578 1038 475 1038 q 773 1002 681 1038 q 937 899 865 967 q 1049 733 1008 831 q 1090 513 1090 636 q 1049 293 1090 390 q 938 127 1008 196 q 774 22 867 58 q 578 -14 682 -14 m 578 126 q 751 171 672 126 q 878 301 831 215 q 925 511 925 386 q 878 723 925 638 q 752 852 831 808 q 578 896 674 896 q 403 852 482 896 q 278 723 325 808 q 231 511 231 638 q 279 301 231 386 q 407 171 328 215 q 578 126 486 126 m 153 444 l 153 578 l 1001 578 l 1001 444 l 153 444 z "},"Ô":{"ha":1156,"x_min":65,"x_max":1090,"o":"m 578 -14 q 381 22 474 -14 q 218 127 289 58 q 106 293 147 196 q 65 513 65 390 q 106 733 65 636 q 219 899 147 831 q 383 1002 290 967 q 578 1038 475 1038 q 773 1002 681 1038 q 937 899 865 967 q 1049 733 1008 831 q 1090 513 1090 636 q 1049 293 1090 390 q 938 127 1008 196 q 774 22 867 58 q 578 -14 682 -14 m 578 126 q 751 171 672 126 q 878 301 831 215 q 925 511 925 386 q 878 723 925 638 q 752 852 831 808 q 578 896 674 896 q 403 852 482 896 q 278 723 325 808 q 231 511 231 638 q 279 301 231 386 q 407 171 328 215 q 578 126 486 126 m 390 1101 l 314 1176 l 578 1390 l 840 1176 l 765 1101 l 578 1222 l 390 1101 z "},"Ố":{"ha":1156,"x_min":65,"x_max":1090,"o":"m 578 -14 q 381 22 474 -14 q 218 127 289 58 q 106 293 147 196 q 65 513 65 390 q 106 733 65 636 q 219 899 147 831 q 383 1002 290 967 q 578 1038 475 1038 q 773 1002 681 1038 q 937 899 865 967 q 1049 733 1008 831 q 1090 513 1090 636 q 1049 293 1090 390 q 938 127 1008 196 q 774 22 867 58 q 578 -14 682 -14 m 578 126 q 751 171 672 126 q 878 301 831 215 q 925 511 925 386 q 878 723 925 638 q 752 852 831 808 q 578 896 674 896 q 403 852 482 896 q 278 723 325 808 q 231 511 231 638 q 279 301 231 386 q 407 171 328 215 q 578 126 486 126 m 390 1101 l 314 1176 l 578 1390 l 840 1176 l 765 1101 l 578 1222 l 390 1101 m 524 1425 l 464 1517 l 736 1724 l 819 1608 l 524 1425 z "},"Ộ":{"ha":1156,"x_min":65,"x_max":1090,"o":"m 578 -14 q 381 22 474 -14 q 218 127 289 58 q 106 293 147 196 q 65 513 65 390 q 106 733 65 636 q 219 899 147 831 q 383 1002 290 967 q 578 1038 475 1038 q 773 1002 681 1038 q 937 899 865 967 q 1049 733 1008 831 q 1090 513 1090 636 q 1049 293 1090 390 q 938 127 1008 196 q 774 22 867 58 q 578 -14 682 -14 m 578 126 q 751 171 672 126 q 878 301 831 215 q 925 511 925 386 q 878 723 925 638 q 752 852 831 808 q 578 896 674 896 q 403 852 482 896 q 278 723 325 808 q 231 511 231 638 q 279 301 231 386 q 407 171 328 215 q 578 126 486 126 m 578 -303 q 506 -274 535 -303 q 476 -201 476 -244 q 506 -135 476 -162 q 578 -107 535 -107 q 649 -135 621 -107 q 678 -201 678 -162 q 649 -274 678 -244 q 578 -303 621 -303 m 390 1101 l 314 1176 l 578 1390 l 840 1176 l 765 1101 l 578 1222 l 390 1101 z "},"Ồ":{"ha":1156,"x_min":65,"x_max":1090,"o":"m 578 -14 q 381 22 474 -14 q 218 127 289 58 q 106 293 147 196 q 65 513 65 390 q 106 733 65 636 q 219 899 147 831 q 383 1002 290 967 q 578 1038 475 1038 q 773 1002 681 1038 q 937 899 865 967 q 1049 733 1008 831 q 1090 513 1090 636 q 1049 293 1090 390 q 938 127 1008 196 q 774 22 867 58 q 578 -14 682 -14 m 578 126 q 751 171 672 126 q 878 301 831 215 q 925 511 925 386 q 878 723 925 638 q 752 852 831 808 q 578 896 674 896 q 403 852 482 896 q 278 723 325 808 q 231 511 231 638 q 279 301 231 386 q 407 171 328 215 q 578 126 486 126 m 390 1101 l 314 1176 l 578 1390 l 840 1176 l 765 1101 l 578 1222 l 390 1101 m 632 1425 l 336 1608 l 419 1724 l 692 1517 l 632 1425 z "},"Ổ":{"ha":1156,"x_min":65,"x_max":1090,"o":"m 578 -14 q 381 22 474 -14 q 218 127 289 58 q 106 293 147 196 q 65 513 65 390 q 106 733 65 636 q 219 899 147 831 q 383 1002 290 967 q 578 1038 475 1038 q 773 1002 681 1038 q 937 899 865 967 q 1049 733 1008 831 q 1090 513 1090 636 q 1049 293 1090 390 q 938 127 1008 196 q 774 22 867 58 q 578 -14 682 -14 m 578 126 q 751 171 672 126 q 878 301 831 215 q 925 511 925 386 q 878 723 925 638 q 752 852 831 808 q 578 896 674 896 q 403 852 482 896 q 278 723 325 808 q 231 511 231 638 q 279 301 231 386 q 407 171 328 215 q 578 126 486 126 m 390 1101 l 314 1176 l 578 1390 l 840 1176 l 765 1101 l 578 1222 l 390 1101 m 593 1426 q 549 1428 567 1426 q 510 1435 532 1429 l 486 1522 q 528 1518 506 1518 q 575 1524 550 1518 q 618 1543 600 1529 q 636 1583 636 1557 q 553 1632 636 1632 q 490 1624 513 1632 q 440 1603 468 1617 l 411 1689 q 466 1723 426 1704 q 572 1742 506 1742 q 656 1728 611 1742 q 732 1681 700 1715 q 764 1583 764 1646 q 744 1511 764 1547 q 686 1451 724 1475 q 593 1426 649 1426 z "},"Ỗ":{"ha":1156,"x_min":65,"x_max":1090,"o":"m 578 -14 q 381 22 474 -14 q 218 127 289 58 q 106 293 147 196 q 65 513 65 390 q 106 733 65 636 q 219 899 147 831 q 383 1002 290 967 q 578 1038 475 1038 q 773 1002 681 1038 q 937 899 865 967 q 1049 733 1008 831 q 1090 513 1090 636 q 1049 293 1090 390 q 938 127 1008 196 q 774 22 867 58 q 578 -14 682 -14 m 578 126 q 751 171 672 126 q 878 301 831 215 q 925 511 925 386 q 878 723 925 638 q 752 852 831 808 q 578 896 674 896 q 403 852 482 896 q 278 723 325 808 q 231 511 231 638 q 279 301 231 386 q 407 171 328 215 q 578 126 486 126 m 390 1101 l 314 1176 l 578 1390 l 840 1176 l 765 1101 l 578 1222 l 390 1101 m 671 1460 q 602 1473 628 1460 q 557 1503 576 1486 q 517 1534 538 1521 q 465 1547 497 1547 q 426 1529 439 1547 q 393 1468 413 1511 l 333 1561 q 389 1642 344 1607 q 486 1678 433 1678 q 560 1665 532 1678 q 606 1633 588 1651 q 642 1602 624 1615 q 686 1589 660 1589 q 736 1603 714 1589 q 772 1653 758 1618 l 825 1572 q 771 1490 818 1521 q 671 1460 724 1460 z "},"Ȍ":{"ha":1156,"x_min":65,"x_max":1090,"o":"m 578 -14 q 381 22 474 -14 q 218 127 289 58 q 106 293 147 196 q 65 513 65 390 q 106 733 65 636 q 219 899 147 831 q 383 1002 290 967 q 578 1038 475 1038 q 773 1002 681 1038 q 937 899 865 967 q 1049 733 1008 831 q 1090 513 1090 636 q 1049 293 1090 390 q 938 127 1008 196 q 774 22 867 58 q 578 -14 682 -14 m 578 126 q 751 171 672 126 q 878 301 831 215 q 925 511 925 386 q 878 723 925 638 q 752 852 831 808 q 578 896 674 896 q 403 852 482 896 q 278 723 325 808 q 231 511 231 638 q 279 301 231 386 q 407 171 328 215 q 578 126 486 126 m 676 1090 l 501 1351 l 638 1419 l 776 1133 l 676 1090 m 388 1090 l 199 1350 l 335 1418 l 488 1133 l 388 1090 z "},"Ö":{"ha":1156,"x_min":65,"x_max":1090,"o":"m 578 -14 q 381 22 474 -14 q 218 127 289 58 q 106 293 147 196 q 65 513 65 390 q 106 733 65 636 q 219 899 147 831 q 383 1002 290 967 q 578 1038 475 1038 q 773 1002 681 1038 q 937 899 865 967 q 1049 733 1008 831 q 1090 513 1090 636 q 1049 293 1090 390 q 938 127 1008 196 q 774 22 867 58 q 578 -14 682 -14 m 578 126 q 751 171 672 126 q 878 301 831 215 q 925 511 925 386 q 878 723 925 638 q 752 852 831 808 q 578 896 674 896 q 403 852 482 896 q 278 723 325 808 q 231 511 231 638 q 279 301 231 386 q 407 171 328 215 q 578 126 486 126 m 744 1125 q 674 1154 703 1125 q 644 1224 644 1183 q 673 1294 644 1265 q 744 1322 701 1322 q 817 1294 788 1322 q 846 1224 846 1265 q 817 1154 846 1183 q 744 1125 788 1125 m 410 1125 q 339 1154 368 1125 q 310 1224 310 1183 q 338 1294 310 1265 q 410 1322 367 1322 q 482 1294 454 1322 q 510 1224 510 1265 q 481 1154 510 1183 q 410 1125 453 1125 z "},"Ȫ":{"ha":1156,"x_min":65,"x_max":1090,"o":"m 578 -14 q 381 22 474 -14 q 218 127 289 58 q 106 293 147 196 q 65 513 65 390 q 106 733 65 636 q 219 899 147 831 q 383 1002 290 967 q 578 1038 475 1038 q 773 1002 681 1038 q 937 899 865 967 q 1049 733 1008 831 q 1090 513 1090 636 q 1049 293 1090 390 q 938 127 1008 196 q 774 22 867 58 q 578 -14 682 -14 m 578 126 q 751 171 672 126 q 878 301 831 215 q 925 511 925 386 q 878 723 925 638 q 752 852 831 808 q 578 896 674 896 q 403 852 482 896 q 278 723 325 808 q 231 511 231 638 q 279 301 231 386 q 407 171 328 215 q 578 126 486 126 m 744 1125 q 674 1154 703 1125 q 644 1224 644 1183 q 673 1294 644 1265 q 744 1322 701 1322 q 817 1294 788 1322 q 846 1224 846 1265 q 817 1154 846 1183 q 744 1125 788 1125 m 410 1125 q 339 1154 368 1125 q 310 1224 310 1183 q 338 1294 310 1265 q 410 1322 367 1322 q 482 1294 454 1322 q 510 1224 510 1265 q 481 1154 510 1183 q 410 1125 453 1125 m 343 1418 l 343 1533 l 813 1533 l 813 1418 l 343 1418 z "},"Ȯ":{"ha":1156,"x_min":65,"x_max":1090,"o":"m 578 -14 q 381 22 474 -14 q 218 127 289 58 q 106 293 147 196 q 65 513 65 390 q 106 733 65 636 q 219 899 147 831 q 383 1002 290 967 q 578 1038 475 1038 q 773 1002 681 1038 q 937 899 865 967 q 1049 733 1008 831 q 1090 513 1090 636 q 1049 293 1090 390 q 938 127 1008 196 q 774 22 867 58 q 578 -14 682 -14 m 578 126 q 751 171 672 126 q 878 301 831 215 q 925 511 925 386 q 878 723 925 638 q 752 852 831 808 q 578 896 674 896 q 403 852 482 896 q 278 723 325 808 q 231 511 231 638 q 279 301 231 386 q 407 171 328 215 q 578 126 486 126 m 578 1136 q 506 1165 535 1136 q 478 1235 478 1193 q 506 1306 478 1278 q 578 1335 535 1335 q 649 1306 621 1335 q 678 1235 678 1278 q 649 1165 678 1193 q 578 1136 619 1136 z "},"Ȱ":{"ha":1156,"x_min":65,"x_max":1090,"o":"m 578 -14 q 381 22 474 -14 q 218 127 289 58 q 106 293 147 196 q 65 513 65 390 q 106 733 65 636 q 219 899 147 831 q 383 1002 290 967 q 578 1038 475 1038 q 773 1002 681 1038 q 937 899 865 967 q 1049 733 1008 831 q 1090 513 1090 636 q 1049 293 1090 390 q 938 127 1008 196 q 774 22 867 58 q 578 -14 682 -14 m 578 126 q 751 171 672 126 q 878 301 831 215 q 925 511 925 386 q 878 723 925 638 q 752 852 831 808 q 578 896 674 896 q 403 852 482 896 q 278 723 325 808 q 231 511 231 638 q 279 301 231 386 q 407 171 328 215 q 578 126 486 126 m 578 1136 q 506 1165 535 1136 q 478 1235 478 1193 q 506 1306 478 1278 q 578 1335 535 1335 q 649 1306 621 1335 q 678 1235 678 1278 q 649 1165 678 1193 q 578 1136 619 1136 m 343 1414 l 343 1529 l 813 1529 l 813 1414 l 343 1414 z "},"Ọ":{"ha":1156,"x_min":65,"x_max":1090,"o":"m 578 -14 q 381 22 474 -14 q 218 127 289 58 q 106 293 147 196 q 65 513 65 390 q 106 733 65 636 q 219 899 147 831 q 383 1002 290 967 q 578 1038 475 1038 q 773 1002 681 1038 q 937 899 865 967 q 1049 733 1008 831 q 1090 513 1090 636 q 1049 293 1090 390 q 938 127 1008 196 q 774 22 867 58 q 578 -14 682 -14 m 578 126 q 751 171 672 126 q 878 301 831 215 q 925 511 925 386 q 878 723 925 638 q 752 852 831 808 q 578 896 674 896 q 403 852 482 896 q 278 723 325 808 q 231 511 231 638 q 279 301 231 386 q 407 171 328 215 q 578 126 486 126 m 578 -303 q 506 -274 535 -303 q 476 -201 476 -244 q 506 -135 476 -162 q 578 -107 535 -107 q 649 -135 621 -107 q 678 -201 678 -162 q 649 -274 678 -244 q 578 -303 621 -303 z "},"Ò":{"ha":1156,"x_min":65,"x_max":1090,"o":"m 578 -14 q 381 22 474 -14 q 218 127 289 58 q 106 293 147 196 q 65 513 65 390 q 106 733 65 636 q 219 899 147 831 q 383 1002 290 967 q 578 1038 475 1038 q 773 1002 681 1038 q 937 899 865 967 q 1049 733 1008 831 q 1090 513 1090 636 q 1049 293 1090 390 q 938 127 1008 196 q 774 22 867 58 q 578 -14 682 -14 m 578 126 q 751 171 672 126 q 878 301 831 215 q 925 511 925 386 q 878 723 925 638 q 752 852 831 808 q 578 896 674 896 q 403 852 482 896 q 278 723 325 808 q 231 511 231 638 q 279 301 231 386 q 407 171 328 215 q 578 126 486 126 m 632 1099 l 336 1282 l 419 1397 l 692 1190 l 632 1099 z "},"Ỏ":{"ha":1156,"x_min":65,"x_max":1090,"o":"m 578 -14 q 381 22 474 -14 q 218 127 289 58 q 106 293 147 196 q 65 513 65 390 q 106 733 65 636 q 219 899 147 831 q 383 1002 290 967 q 578 1038 475 1038 q 773 1002 681 1038 q 937 899 865 967 q 1049 733 1008 831 q 1090 513 1090 636 q 1049 293 1090 390 q 938 127 1008 196 q 774 22 867 58 q 578 -14 682 -14 m 578 126 q 751 171 672 126 q 878 301 831 215 q 925 511 925 386 q 878 723 925 638 q 752 852 831 808 q 578 896 674 896 q 403 852 482 896 q 278 723 325 808 q 231 511 231 638 q 279 301 231 386 q 407 171 328 215 q 578 126 486 126 m 593 1100 q 549 1101 567 1100 q 510 1108 532 1103 l 486 1196 q 528 1192 506 1192 q 575 1197 550 1192 q 618 1217 600 1203 q 636 1257 636 1231 q 553 1306 636 1306 q 490 1298 513 1306 q 440 1276 468 1290 l 411 1363 q 466 1397 426 1378 q 572 1415 506 1415 q 656 1402 611 1415 q 732 1354 700 1389 q 764 1257 764 1319 q 744 1185 764 1221 q 686 1124 724 1149 q 593 1100 649 1100 z "},"Ơ":{"ha":1156,"x_min":65,"x_max":1122,"o":"m 578 -14 q 381 22 474 -14 q 218 127 289 58 q 106 293 147 196 q 65 513 65 390 q 106 733 65 636 q 219 899 147 831 q 383 1002 290 967 q 578 1038 475 1038 q 840 971 721 1038 q 948 1013 903 978 q 993 1106 993 1049 q 982 1185 993 1157 l 1113 1185 q 1120 1148 1118 1168 q 1122 1085 1122 1128 q 1096 998 1122 1040 q 1027 928 1069 956 q 933 901 985 901 q 1048 735 1006 833 q 1090 513 1090 638 q 1049 293 1090 390 q 938 127 1008 196 q 774 22 867 58 q 578 -14 682 -14 m 578 126 q 751 171 672 126 q 878 301 831 215 q 925 511 925 386 q 878 723 925 638 q 752 852 831 808 q 578 896 674 896 q 403 852 482 896 q 278 723 325 808 q 231 511 231 638 q 279 301 231 386 q 407 171 328 215 q 578 126 486 126 z "},"Ớ":{"ha":1156,"x_min":65,"x_max":1122,"o":"m 578 -14 q 381 22 474 -14 q 218 127 289 58 q 106 293 147 196 q 65 513 65 390 q 106 733 65 636 q 219 899 147 831 q 383 1002 290 967 q 578 1038 475 1038 q 840 971 721 1038 q 948 1013 903 978 q 993 1106 993 1049 q 982 1185 993 1157 l 1113 1185 q 1120 1148 1118 1168 q 1122 1085 1122 1128 q 1096 998 1122 1040 q 1027 928 1069 956 q 933 901 985 901 q 1048 735 1006 833 q 1090 513 1090 638 q 1049 293 1090 390 q 938 127 1008 196 q 774 22 867 58 q 578 -14 682 -14 m 578 126 q 751 171 672 126 q 878 301 831 215 q 925 511 925 386 q 878 723 925 638 q 752 852 831 808 q 578 896 674 896 q 403 852 482 896 q 278 723 325 808 q 231 511 231 638 q 279 301 231 386 q 407 171 328 215 q 578 126 486 126 m 524 1085 l 464 1176 l 736 1383 l 819 1268 l 524 1085 z "},"Ợ":{"ha":1156,"x_min":65,"x_max":1122,"o":"m 578 -14 q 381 22 474 -14 q 218 127 289 58 q 106 293 147 196 q 65 513 65 390 q 106 733 65 636 q 219 899 147 831 q 383 1002 290 967 q 578 1038 475 1038 q 840 971 721 1038 q 948 1013 903 978 q 993 1106 993 1049 q 982 1185 993 1157 l 1113 1185 q 1120 1148 1118 1168 q 1122 1085 1122 1128 q 1096 998 1122 1040 q 1027 928 1069 956 q 933 901 985 901 q 1048 735 1006 833 q 1090 513 1090 638 q 1049 293 1090 390 q 938 127 1008 196 q 774 22 867 58 q 578 -14 682 -14 m 578 126 q 751 171 672 126 q 878 301 831 215 q 925 511 925 386 q 878 723 925 638 q 752 852 831 808 q 578 896 674 896 q 403 852 482 896 q 278 723 325 808 q 231 511 231 638 q 279 301 231 386 q 407 171 328 215 q 578 126 486 126 m 578 -303 q 506 -274 535 -303 q 476 -201 476 -244 q 506 -135 476 -162 q 578 -107 535 -107 q 649 -135 621 -107 q 678 -201 678 -162 q 649 -274 678 -244 q 578 -303 621 -303 z "},"Ờ":{"ha":1156,"x_min":65,"x_max":1122,"o":"m 578 -14 q 381 22 474 -14 q 218 127 289 58 q 106 293 147 196 q 65 513 65 390 q 106 733 65 636 q 219 899 147 831 q 383 1002 290 967 q 578 1038 475 1038 q 840 971 721 1038 q 948 1013 903 978 q 993 1106 993 1049 q 982 1185 993 1157 l 1113 1185 q 1120 1148 1118 1168 q 1122 1085 1122 1128 q 1096 998 1122 1040 q 1027 928 1069 956 q 933 901 985 901 q 1048 735 1006 833 q 1090 513 1090 638 q 1049 293 1090 390 q 938 127 1008 196 q 774 22 867 58 q 578 -14 682 -14 m 578 126 q 751 171 672 126 q 878 301 831 215 q 925 511 925 386 q 878 723 925 638 q 752 852 831 808 q 578 896 674 896 q 403 852 482 896 q 278 723 325 808 q 231 511 231 638 q 279 301 231 386 q 407 171 328 215 q 578 126 486 126 m 632 1085 l 336 1268 l 419 1383 l 692 1176 l 632 1085 z "},"Ở":{"ha":1156,"x_min":65,"x_max":1122,"o":"m 578 -14 q 381 22 474 -14 q 218 127 289 58 q 106 293 147 196 q 65 513 65 390 q 106 733 65 636 q 219 899 147 831 q 383 1002 290 967 q 578 1038 475 1038 q 840 971 721 1038 q 948 1013 903 978 q 993 1106 993 1049 q 982 1185 993 1157 l 1113 1185 q 1120 1148 1118 1168 q 1122 1085 1122 1128 q 1096 998 1122 1040 q 1027 928 1069 956 q 933 901 985 901 q 1048 735 1006 833 q 1090 513 1090 638 q 1049 293 1090 390 q 938 127 1008 196 q 774 22 867 58 q 578 -14 682 -14 m 578 126 q 751 171 672 126 q 878 301 831 215 q 925 511 925 386 q 878 723 925 638 q 752 852 831 808 q 578 896 674 896 q 403 852 482 896 q 278 723 325 808 q 231 511 231 638 q 279 301 231 386 q 407 171 328 215 q 578 126 486 126 m 593 1086 q 549 1088 567 1086 q 510 1094 532 1089 l 486 1182 q 528 1178 506 1178 q 575 1183 550 1178 q 618 1203 600 1189 q 636 1243 636 1217 q 553 1292 636 1292 q 490 1284 513 1292 q 440 1263 468 1276 l 411 1349 q 466 1383 426 1364 q 572 1401 506 1401 q 656 1388 611 1401 q 732 1340 700 1375 q 764 1243 764 1306 q 744 1171 764 1207 q 686 1110 724 1135 q 593 1086 649 1086 z "},"Ỡ":{"ha":1156,"x_min":65,"x_max":1122,"o":"m 578 -14 q 381 22 474 -14 q 218 127 289 58 q 106 293 147 196 q 65 513 65 390 q 106 733 65 636 q 219 899 147 831 q 383 1002 290 967 q 578 1038 475 1038 q 840 971 721 1038 q 948 1013 903 978 q 993 1106 993 1049 q 982 1185 993 1157 l 1113 1185 q 1120 1148 1118 1168 q 1122 1085 1122 1128 q 1096 998 1122 1040 q 1027 928 1069 956 q 933 901 985 901 q 1048 735 1006 833 q 1090 513 1090 638 q 1049 293 1090 390 q 938 127 1008 196 q 774 22 867 58 q 578 -14 682 -14 m 578 126 q 751 171 672 126 q 878 301 831 215 q 925 511 925 386 q 878 723 925 638 q 752 852 831 808 q 578 896 674 896 q 403 852 482 896 q 278 723 325 808 q 231 511 231 638 q 279 301 231 386 q 407 171 328 215 q 578 126 486 126 m 671 1119 q 602 1133 628 1119 q 557 1163 576 1146 q 517 1194 538 1181 q 465 1207 497 1207 q 426 1189 439 1207 q 393 1128 413 1171 l 333 1221 q 389 1302 344 1267 q 486 1338 433 1338 q 560 1324 532 1338 q 606 1293 588 1311 q 642 1262 624 1275 q 686 1249 660 1249 q 736 1263 714 1249 q 772 1313 758 1278 l 825 1232 q 771 1150 818 1181 q 671 1119 724 1119 z "},"Ő":{"ha":1156,"x_min":65,"x_max":1090,"o":"m 578 -14 q 381 22 474 -14 q 218 127 289 58 q 106 293 147 196 q 65 513 65 390 q 106 733 65 636 q 219 899 147 831 q 383 1002 290 967 q 578 1038 475 1038 q 773 1002 681 1038 q 937 899 865 967 q 1049 733 1008 831 q 1090 513 1090 636 q 1049 293 1090 390 q 938 127 1008 196 q 774 22 867 58 q 578 -14 682 -14 m 578 126 q 751 171 672 126 q 878 301 831 215 q 925 511 925 386 q 878 723 925 638 q 752 852 831 808 q 578 896 674 896 q 403 852 482 896 q 278 723 325 808 q 231 511 231 638 q 279 301 231 386 q 407 171 328 215 q 578 126 486 126 m 746 1143 l 646 1188 l 785 1476 l 924 1408 l 746 1143 m 458 1143 l 358 1188 l 496 1476 l 635 1408 l 458 1143 z "},"Ȏ":{"ha":1156,"x_min":65,"x_max":1090,"o":"m 578 -14 q 381 22 474 -14 q 218 127 289 58 q 106 293 147 196 q 65 513 65 390 q 106 733 65 636 q 219 899 147 831 q 383 1002 290 967 q 578 1038 475 1038 q 773 1002 681 1038 q 937 899 865 967 q 1049 733 1008 831 q 1090 513 1090 636 q 1049 293 1090 390 q 938 127 1008 196 q 774 22 867 58 q 578 -14 682 -14 m 578 126 q 751 171 672 126 q 878 301 831 215 q 925 511 925 386 q 878 723 925 638 q 752 852 831 808 q 578 896 674 896 q 403 852 482 896 q 278 723 325 808 q 231 511 231 638 q 279 301 231 386 q 407 171 328 215 q 578 126 486 126 m 325 1118 q 355 1247 325 1190 q 442 1335 385 1303 q 578 1368 499 1368 q 713 1335 657 1368 q 799 1247 769 1303 q 829 1118 829 1190 l 697 1118 q 666 1205 697 1164 q 578 1246 635 1246 q 507 1226 533 1246 q 469 1178 481 1207 q 458 1118 458 1149 l 325 1118 z "},"Ō":{"ha":1156,"x_min":65,"x_max":1090,"o":"m 578 -14 q 381 22 474 -14 q 218 127 289 58 q 106 293 147 196 q 65 513 65 390 q 106 733 65 636 q 219 899 147 831 q 383 1002 290 967 q 578 1038 475 1038 q 773 1002 681 1038 q 937 899 865 967 q 1049 733 1008 831 q 1090 513 1090 636 q 1049 293 1090 390 q 938 127 1008 196 q 774 22 867 58 q 578 -14 682 -14 m 578 126 q 751 171 672 126 q 878 301 831 215 q 925 511 925 386 q 878 723 925 638 q 752 852 831 808 q 578 896 674 896 q 403 852 482 896 q 278 723 325 808 q 231 511 231 638 q 279 301 231 386 q 407 171 328 215 q 578 126 486 126 m 343 1147 l 343 1263 l 813 1263 l 813 1147 l 343 1147 z "},"Ṓ":{"ha":1156,"x_min":65,"x_max":1090,"o":"m 578 -14 q 381 22 474 -14 q 218 127 289 58 q 106 293 147 196 q 65 513 65 390 q 106 733 65 636 q 219 899 147 831 q 383 1002 290 967 q 578 1038 475 1038 q 773 1002 681 1038 q 937 899 865 967 q 1049 733 1008 831 q 1090 513 1090 636 q 1049 293 1090 390 q 938 127 1008 196 q 774 22 867 58 q 578 -14 682 -14 m 578 126 q 751 171 672 126 q 878 301 831 215 q 925 511 925 386 q 878 723 925 638 q 752 852 831 808 q 578 896 674 896 q 403 852 482 896 q 278 723 325 808 q 231 511 231 638 q 279 301 231 386 q 407 171 328 215 q 578 126 486 126 m 343 1147 l 343 1263 l 813 1263 l 813 1147 l 343 1147 m 524 1369 l 464 1461 l 736 1668 l 819 1553 l 524 1369 z "},"Ṑ":{"ha":1156,"x_min":65,"x_max":1090,"o":"m 578 -14 q 381 22 474 -14 q 218 127 289 58 q 106 293 147 196 q 65 513 65 390 q 106 733 65 636 q 219 899 147 831 q 383 1002 290 967 q 578 1038 475 1038 q 773 1002 681 1038 q 937 899 865 967 q 1049 733 1008 831 q 1090 513 1090 636 q 1049 293 1090 390 q 938 127 1008 196 q 774 22 867 58 q 578 -14 682 -14 m 578 126 q 751 171 672 126 q 878 301 831 215 q 925 511 925 386 q 878 723 925 638 q 752 852 831 808 q 578 896 674 896 q 403 852 482 896 q 278 723 325 808 q 231 511 231 638 q 279 301 231 386 q 407 171 328 215 q 578 126 486 126 m 343 1147 l 343 1263 l 813 1263 l 813 1147 l 343 1147 m 632 1369 l 336 1553 l 419 1668 l 692 1461 l 632 1369 z "},"Ǫ":{"ha":1156,"x_min":65,"x_max":1090,"o":"m 622 -367 q 472 -324 531 -367 q 413 -181 413 -282 q 444 -77 413 -119 q 508 -10 475 -35 q 285 73 386 6 q 125 251 185 140 q 65 513 65 363 q 106 733 65 636 q 219 899 147 831 q 383 1002 290 967 q 578 1038 475 1038 q 773 1002 681 1038 q 937 899 865 967 q 1049 733 1008 831 q 1090 513 1090 636 q 1035 259 1090 368 q 884 82 979 150 q 672 -6 789 14 q 588 -56 628 -22 q 547 -150 547 -90 q 569 -206 547 -178 q 644 -233 590 -233 q 669 -233 654 -233 q 690 -231 683 -232 l 690 -360 q 660 -364 678 -361 q 622 -367 642 -367 m 578 126 q 751 171 672 126 q 878 301 831 215 q 925 511 925 386 q 878 723 925 638 q 752 852 831 808 q 578 896 674 896 q 403 852 482 896 q 278 723 325 808 q 231 511 231 638 q 279 301 231 386 q 407 171 328 215 q 578 126 486 126 z "},"Ǭ":{"ha":1156,"x_min":65,"x_max":1090,"o":"m 343 1147 l 343 1263 l 813 1263 l 813 1147 l 343 1147 m 622 -367 q 472 -324 531 -367 q 413 -181 413 -282 q 444 -77 413 -119 q 508 -10 475 -35 q 285 73 386 6 q 125 251 185 140 q 65 513 65 363 q 106 733 65 636 q 219 899 147 831 q 383 1002 290 967 q 578 1038 475 1038 q 773 1002 681 1038 q 937 899 865 967 q 1049 733 1008 831 q 1090 513 1090 636 q 1035 259 1090 368 q 884 82 979 150 q 672 -6 789 14 q 588 -56 628 -22 q 547 -150 547 -90 q 569 -206 547 -178 q 644 -233 590 -233 q 669 -233 654 -233 q 690 -231 683 -232 l 690 -360 q 660 -364 678 -361 q 622 -367 642 -367 m 578 126 q 751 171 672 126 q 878 301 831 215 q 925 511 925 386 q 878 723 925 638 q 752 852 831 808 q 578 896 674 896 q 403 852 482 896 q 278 723 325 808 q 231 511 231 638 q 279 301 231 386 q 407 171 328 215 q 578 126 486 126 z "},"Ɔ":{"ha":901,"x_min":43,"x_max":842,"o":"m 329 -10 q 213 3 269 -10 q 114 34 157 15 q 53 69 71 53 l 99 201 q 217 148 160 164 q 335 132 275 132 q 519 183 443 132 q 633 320 594 235 q 672 510 672 406 q 627 714 672 628 q 506 847 582 800 q 332 894 429 894 q 203 874 258 894 q 111 819 149 853 l 43 958 q 91 988 54 969 q 186 1022 128 1007 q 319 1038 244 1038 q 531 999 435 1038 q 696 890 626 960 q 803 724 765 819 q 842 513 842 628 q 808 313 842 407 q 708 147 774 219 q 547 32 642 74 q 329 -10 451 -10 z "},"Ø":{"ha":1151,"x_min":64,"x_max":1089,"o":"m 326 -151 l 247 -115 l 322 50 q 135 231 207 113 q 64 513 64 349 q 105 733 64 636 q 217 899 146 831 q 381 1002 289 967 q 576 1038 474 1038 q 756 1008 669 1038 l 819 1150 l 897 1115 l 833 974 q 1017 794 946 911 q 1089 513 1089 676 q 1048 293 1089 390 q 936 127 1007 196 q 773 22 865 58 q 576 -14 681 -14 q 401 15 485 -14 l 326 -151 m 229 511 q 272 313 229 396 q 383 185 314 231 l 696 876 q 576 896 640 896 q 402 852 481 896 q 276 723 324 808 q 229 511 229 638 m 576 126 q 750 171 671 126 q 876 301 829 215 q 924 511 924 386 q 882 710 924 628 q 772 839 840 793 l 460 146 q 576 126 515 126 z "},"Ǿ":{"ha":1151,"x_min":64,"x_max":1089,"o":"m 326 -151 l 247 -115 l 322 50 q 135 231 207 113 q 64 513 64 349 q 105 733 64 636 q 217 899 146 831 q 381 1002 289 967 q 576 1038 474 1038 q 756 1008 669 1038 l 819 1150 l 897 1115 l 833 974 q 1017 794 946 911 q 1089 513 1089 676 q 1048 293 1089 390 q 936 127 1007 196 q 773 22 865 58 q 576 -14 681 -14 q 401 15 485 -14 l 326 -151 m 229 511 q 272 313 229 396 q 383 185 314 231 l 696 876 q 576 896 640 896 q 402 852 481 896 q 276 723 324 808 q 229 511 229 638 m 576 126 q 750 171 671 126 q 876 301 829 215 q 924 511 924 386 q 882 710 924 628 q 772 839 840 793 l 460 146 q 576 126 515 126 m 524 1085 l 464 1176 l 736 1383 l 819 1268 l 524 1085 z "},"Õ":{"ha":1156,"x_min":65,"x_max":1090,"o":"m 578 -14 q 381 22 474 -14 q 218 127 289 58 q 106 293 147 196 q 65 513 65 390 q 106 733 65 636 q 219 899 147 831 q 383 1002 290 967 q 578 1038 475 1038 q 773 1002 681 1038 q 937 899 865 967 q 1049 733 1008 831 q 1090 513 1090 636 q 1049 293 1090 390 q 938 127 1008 196 q 774 22 867 58 q 578 -14 682 -14 m 578 126 q 751 171 672 126 q 878 301 831 215 q 925 511 925 386 q 878 723 925 638 q 752 852 831 808 q 578 896 674 896 q 403 852 482 896 q 278 723 325 808 q 231 511 231 638 q 279 301 231 386 q 407 171 328 215 q 578 126 486 126 m 671 1133 q 602 1147 628 1133 q 557 1177 576 1160 q 517 1208 538 1194 q 465 1221 497 1221 q 426 1203 439 1221 q 393 1142 413 1185 l 333 1235 q 389 1316 344 1281 q 486 1351 433 1351 q 560 1338 532 1351 q 606 1307 588 1325 q 642 1276 624 1289 q 686 1263 660 1263 q 736 1277 714 1263 q 772 1326 758 1292 l 825 1246 q 771 1164 818 1194 q 671 1133 724 1133 z "},"Ṍ":{"ha":1156,"x_min":65,"x_max":1090,"o":"m 578 -14 q 381 22 474 -14 q 218 127 289 58 q 106 293 147 196 q 65 513 65 390 q 106 733 65 636 q 219 899 147 831 q 383 1002 290 967 q 578 1038 475 1038 q 773 1002 681 1038 q 937 899 865 967 q 1049 733 1008 831 q 1090 513 1090 636 q 1049 293 1090 390 q 938 127 1008 196 q 774 22 867 58 q 578 -14 682 -14 m 578 126 q 751 171 672 126 q 878 301 831 215 q 925 511 925 386 q 878 723 925 638 q 752 852 831 808 q 578 896 674 896 q 403 852 482 896 q 278 723 325 808 q 231 511 231 638 q 279 301 231 386 q 407 171 328 215 q 578 126 486 126 m 671 1133 q 602 1147 628 1133 q 557 1177 576 1160 q 517 1208 538 1194 q 465 1221 497 1221 q 426 1203 439 1221 q 393 1142 413 1185 l 333 1235 q 389 1316 344 1281 q 486 1351 433 1351 q 560 1338 532 1351 q 606 1307 588 1325 q 642 1276 624 1289 q 686 1263 660 1263 q 736 1277 714 1263 q 772 1326 758 1292 l 825 1246 q 771 1164 818 1194 q 671 1133 724 1133 m 524 1397 l 464 1489 l 736 1696 l 819 1581 l 524 1397 z "},"Ṏ":{"ha":1156,"x_min":65,"x_max":1090,"o":"m 578 -14 q 381 22 474 -14 q 218 127 289 58 q 106 293 147 196 q 65 513 65 390 q 106 733 65 636 q 219 899 147 831 q 383 1002 290 967 q 578 1038 475 1038 q 773 1002 681 1038 q 937 899 865 967 q 1049 733 1008 831 q 1090 513 1090 636 q 1049 293 1090 390 q 938 127 1008 196 q 774 22 867 58 q 578 -14 682 -14 m 578 126 q 751 171 672 126 q 878 301 831 215 q 925 511 925 386 q 878 723 925 638 q 752 852 831 808 q 578 896 674 896 q 403 852 482 896 q 278 723 325 808 q 231 511 231 638 q 279 301 231 386 q 407 171 328 215 q 578 126 486 126 m 671 1133 q 602 1147 628 1133 q 557 1177 576 1160 q 517 1208 538 1194 q 465 1221 497 1221 q 426 1203 439 1221 q 393 1142 413 1185 l 333 1235 q 389 1316 344 1281 q 486 1351 433 1351 q 560 1338 532 1351 q 606 1307 588 1325 q 642 1276 624 1289 q 686 1263 660 1263 q 736 1277 714 1263 q 772 1326 758 1292 l 825 1246 q 771 1164 818 1194 q 671 1133 724 1133 m 744 1424 q 674 1453 703 1424 q 644 1522 644 1482 q 673 1592 644 1564 q 744 1621 701 1621 q 817 1592 788 1621 q 846 1522 846 1564 q 817 1453 846 1482 q 744 1424 788 1424 m 410 1424 q 339 1453 368 1424 q 310 1522 310 1482 q 338 1592 310 1564 q 410 1621 367 1621 q 482 1592 454 1621 q 510 1522 510 1564 q 481 1453 510 1482 q 410 1424 453 1424 z "},"Ȭ":{"ha":1156,"x_min":65,"x_max":1090,"o":"m 578 -14 q 381 22 474 -14 q 218 127 289 58 q 106 293 147 196 q 65 513 65 390 q 106 733 65 636 q 219 899 147 831 q 383 1002 290 967 q 578 1038 475 1038 q 773 1002 681 1038 q 937 899 865 967 q 1049 733 1008 831 q 1090 513 1090 636 q 1049 293 1090 390 q 938 127 1008 196 q 774 22 867 58 q 578 -14 682 -14 m 578 126 q 751 171 672 126 q 878 301 831 215 q 925 511 925 386 q 878 723 925 638 q 752 852 831 808 q 578 896 674 896 q 403 852 482 896 q 278 723 325 808 q 231 511 231 638 q 279 301 231 386 q 407 171 328 215 q 578 126 486 126 m 671 1133 q 602 1147 628 1133 q 557 1177 576 1160 q 517 1208 538 1194 q 465 1221 497 1221 q 426 1203 439 1221 q 393 1142 413 1185 l 333 1235 q 389 1316 344 1281 q 486 1351 433 1351 q 560 1338 532 1351 q 606 1307 588 1325 q 642 1276 624 1289 q 686 1263 660 1263 q 736 1277 714 1263 q 772 1326 758 1292 l 825 1246 q 771 1164 818 1194 q 671 1133 724 1133 m 343 1446 l 343 1561 l 813 1561 l 813 1446 l 343 1446 z "},"Œ":{"ha":1450,"x_min":65,"x_max":1401,"o":"m 585 -29 q 392 7 485 -29 q 225 112 299 43 q 108 278 151 181 q 65 500 65 376 q 108 722 65 625 q 226 885 151 818 q 392 986 300 951 q 585 1021 485 1021 q 777 986 683 1021 q 943 886 871 951 l 943 1021 l 1376 1021 l 1376 885 l 1100 885 l 1100 608 l 1335 608 l 1335 465 l 1100 465 l 1100 138 l 1401 138 l 1401 0 l 943 0 l 943 106 q 777 6 871 42 q 585 -29 683 -29 m 585 119 q 753 161 674 119 q 885 282 833 203 q 943 472 938 361 l 943 521 q 885 713 938 635 q 752 833 832 792 q 585 875 672 875 q 415 831 494 875 q 285 704 335 788 q 236 500 236 621 q 285 295 236 381 q 415 165 335 210 q 585 119 494 119 z "},"P":{"ha":736,"x_min":108,"x_max":700,"o":"m 108 0 l 108 1021 l 333 1021 q 547 982 467 1021 q 664 874 628 943 q 700 717 700 806 q 606 466 700 554 q 319 378 511 378 l 265 378 l 265 0 l 108 0 m 265 515 l 324 515 q 463 544 415 515 q 526 617 510 574 q 543 700 543 660 q 525 790 543 749 q 463 858 507 832 q 338 885 418 885 l 265 885 l 265 515 z "},"Ṕ":{"ha":736,"x_min":108,"x_max":700,"o":"m 108 0 l 108 1021 l 333 1021 q 547 982 467 1021 q 664 874 628 943 q 700 717 700 806 q 606 466 700 554 q 319 378 511 378 l 265 378 l 265 0 l 108 0 m 265 515 l 324 515 q 463 544 415 515 q 526 617 510 574 q 543 700 543 660 q 525 790 543 749 q 463 858 507 832 q 338 885 418 885 l 265 885 l 265 515 m 306 1099 l 246 1190 l 518 1397 l 601 1282 l 306 1099 z "},"Ṗ":{"ha":736,"x_min":108,"x_max":700,"o":"m 108 0 l 108 1021 l 333 1021 q 547 982 467 1021 q 664 874 628 943 q 700 717 700 806 q 606 466 700 554 q 319 378 511 378 l 265 378 l 265 0 l 108 0 m 265 515 l 324 515 q 463 544 415 515 q 526 617 510 574 q 543 700 543 660 q 525 790 543 749 q 463 858 507 832 q 338 885 418 885 l 265 885 l 265 515 m 360 1136 q 288 1165 317 1136 q 260 1235 260 1193 q 288 1306 260 1278 q 360 1335 317 1335 q 431 1306 403 1335 q 460 1235 460 1278 q 431 1165 460 1193 q 360 1136 401 1136 z "},"Þ":{"ha":769,"x_min":143,"x_max":742,"o":"m 143 0 l 143 1022 l 301 1022 l 301 831 l 328 831 q 566 791 475 831 q 699 683 657 751 q 742 525 742 614 q 640 275 742 363 q 325 188 539 188 l 299 188 l 299 0 l 143 0 m 299 325 l 356 325 q 497 354 450 325 q 561 426 544 383 q 578 508 578 468 q 560 599 578 557 q 496 667 543 640 q 358 693 449 693 l 299 693 l 299 325 z "},"Q":{"ha":1156,"x_min":65,"x_max":1090,"o":"m 578 -14 q 381 22 474 -14 q 218 127 289 58 q 106 293 147 196 q 65 513 65 390 q 106 733 65 636 q 219 899 147 831 q 383 1002 290 967 q 578 1038 475 1038 q 773 1002 681 1038 q 937 899 865 967 q 1049 733 1008 831 q 1090 513 1090 636 q 1026 244 1090 358 q 858 65 963 131 l 985 -131 l 831 -131 l 739 10 q 578 -14 661 -14 m 578 126 q 658 135 619 126 l 565 286 l 721 286 l 781 189 q 885 317 846 236 q 925 511 925 399 q 878 723 925 638 q 752 852 831 808 q 578 896 674 896 q 403 852 482 896 q 278 723 325 808 q 231 511 231 638 q 279 301 231 386 q 407 171 328 215 q 578 126 486 126 z "},"R":{"ha":847,"x_min":108,"x_max":797,"o":"m 108 0 l 108 1021 l 340 1021 q 491 1006 418 1021 q 621 954 564 990 q 711 858 678 918 q 744 711 744 799 q 697 535 744 610 q 554 419 650 460 l 797 0 l 618 0 l 413 386 q 355 384 389 385 q 299 383 321 383 l 260 383 l 260 0 l 108 0 m 260 510 l 358 510 q 481 529 435 510 q 553 578 528 549 q 587 644 578 608 q 596 710 596 679 q 565 817 596 778 q 478 874 533 857 q 353 892 424 892 l 260 892 l 260 510 z "},"Ŕ":{"ha":847,"x_min":108,"x_max":797,"o":"m 108 0 l 108 1021 l 340 1021 q 491 1006 418 1021 q 621 954 564 990 q 711 858 678 918 q 744 711 744 799 q 697 535 744 610 q 554 419 650 460 l 797 0 l 618 0 l 413 386 q 355 384 389 385 q 299 383 321 383 l 260 383 l 260 0 l 108 0 m 260 510 l 358 510 q 481 529 435 510 q 553 578 528 549 q 587 644 578 608 q 596 710 596 679 q 565 817 596 778 q 478 874 533 857 q 353 892 424 892 l 260 892 l 260 510 m 372 1099 l 313 1190 l 585 1397 l 668 1282 l 372 1099 z "},"Ř":{"ha":847,"x_min":108,"x_max":797,"o":"m 108 0 l 108 1021 l 340 1021 q 491 1006 418 1021 q 621 954 564 990 q 711 858 678 918 q 744 711 744 799 q 697 535 744 610 q 554 419 650 460 l 797 0 l 618 0 l 413 386 q 355 384 389 385 q 299 383 321 383 l 260 383 l 260 0 l 108 0 m 260 510 l 358 510 q 481 529 435 510 q 553 578 528 549 q 587 644 578 608 q 596 710 596 679 q 565 817 596 778 q 478 874 533 857 q 353 892 424 892 l 260 892 l 260 510 m 426 1090 l 163 1304 l 239 1379 l 426 1258 l 614 1379 l 689 1304 l 426 1090 z "},"Ŗ":{"ha":847,"x_min":108,"x_max":797,"o":"m 108 0 l 108 1021 l 340 1021 q 491 1006 418 1021 q 621 954 564 990 q 711 858 678 918 q 744 711 744 799 q 697 535 744 610 q 554 419 650 460 l 797 0 l 618 0 l 413 386 q 355 384 389 385 q 299 383 321 383 l 260 383 l 260 0 l 108 0 m 260 510 l 358 510 q 481 529 435 510 q 553 578 528 549 q 587 644 578 608 q 596 710 596 679 q 565 817 596 778 q 478 874 533 857 q 353 892 424 892 l 260 892 l 260 510 m 318 -367 q 340 -303 329 -333 q 353 -243 350 -274 q 308 -161 308 -214 q 338 -90 308 -118 q 410 -62 367 -62 q 481 -90 454 -62 q 508 -161 508 -118 q 489 -244 508 -201 q 444 -321 469 -287 q 404 -367 419 -354 l 318 -367 z "},"Ȑ":{"ha":847,"x_min":47,"x_max":797,"o":"m 108 0 l 108 1021 l 340 1021 q 491 1006 418 1021 q 621 954 564 990 q 711 858 678 918 q 744 711 744 799 q 697 535 744 610 q 554 419 650 460 l 797 0 l 618 0 l 413 386 q 355 384 389 385 q 299 383 321 383 l 260 383 l 260 0 l 108 0 m 260 510 l 358 510 q 481 529 435 510 q 553 578 528 549 q 587 644 578 608 q 596 710 596 679 q 565 817 596 778 q 478 874 533 857 q 353 892 424 892 l 260 892 l 260 510 m 525 1090 l 350 1351 l 486 1419 l 625 1133 l 525 1090 m 236 1090 l 47 1350 l 183 1418 l 336 1133 l 236 1090 z "},"Ṙ":{"ha":847,"x_min":108,"x_max":797,"o":"m 108 0 l 108 1021 l 340 1021 q 491 1006 418 1021 q 621 954 564 990 q 711 858 678 918 q 744 711 744 799 q 697 535 744 610 q 554 419 650 460 l 797 0 l 618 0 l 413 386 q 355 384 389 385 q 299 383 321 383 l 260 383 l 260 0 l 108 0 m 260 510 l 358 510 q 481 529 435 510 q 553 578 528 549 q 587 644 578 608 q 596 710 596 679 q 565 817 596 778 q 478 874 533 857 q 353 892 424 892 l 260 892 l 260 510 m 426 1136 q 355 1165 383 1136 q 326 1235 326 1193 q 355 1306 326 1278 q 426 1335 383 1335 q 498 1306 469 1335 q 526 1235 526 1278 q 497 1165 526 1193 q 426 1136 468 1136 z "},"Ṛ":{"ha":847,"x_min":108,"x_max":797,"o":"m 108 0 l 108 1021 l 340 1021 q 491 1006 418 1021 q 621 954 564 990 q 711 858 678 918 q 744 711 744 799 q 697 535 744 610 q 554 419 650 460 l 797 0 l 618 0 l 413 386 q 355 384 389 385 q 299 383 321 383 l 260 383 l 260 0 l 108 0 m 260 510 l 358 510 q 481 529 435 510 q 553 578 528 549 q 587 644 578 608 q 596 710 596 679 q 565 817 596 778 q 478 874 533 857 q 353 892 424 892 l 260 892 l 260 510 m 418 -303 q 346 -274 375 -303 q 317 -201 317 -244 q 346 -135 317 -162 q 418 -107 375 -107 q 490 -135 461 -107 q 518 -201 518 -162 q 490 -274 518 -244 q 418 -303 461 -303 z "},"Ṝ":{"ha":847,"x_min":108,"x_max":797,"o":"m 108 0 l 108 1021 l 340 1021 q 491 1006 418 1021 q 621 954 564 990 q 711 858 678 918 q 744 711 744 799 q 697 535 744 610 q 554 419 650 460 l 797 0 l 618 0 l 413 386 q 355 384 389 385 q 299 383 321 383 l 260 383 l 260 0 l 108 0 m 260 510 l 358 510 q 481 529 435 510 q 553 578 528 549 q 587 644 578 608 q 596 710 596 679 q 565 817 596 778 q 478 874 533 857 q 353 892 424 892 l 260 892 l 260 510 m 418 -303 q 346 -274 375 -303 q 317 -201 317 -244 q 346 -135 317 -162 q 418 -107 375 -107 q 490 -135 461 -107 q 518 -201 518 -162 q 490 -274 518 -244 q 418 -303 461 -303 m 192 1147 l 192 1263 l 661 1263 l 661 1147 l 192 1147 z "},"Ȓ":{"ha":847,"x_min":108,"x_max":797,"o":"m 108 0 l 108 1021 l 340 1021 q 491 1006 418 1021 q 621 954 564 990 q 711 858 678 918 q 744 711 744 799 q 697 535 744 610 q 554 419 650 460 l 797 0 l 618 0 l 413 386 q 355 384 389 385 q 299 383 321 383 l 260 383 l 260 0 l 108 0 m 260 510 l 358 510 q 481 529 435 510 q 553 578 528 549 q 587 644 578 608 q 596 710 596 679 q 565 817 596 778 q 478 874 533 857 q 353 892 424 892 l 260 892 l 260 510 m 174 1118 q 203 1247 174 1190 q 290 1335 233 1303 q 426 1368 347 1368 q 562 1335 506 1368 q 648 1247 618 1303 q 678 1118 678 1190 l 546 1118 q 515 1205 546 1164 q 426 1246 483 1246 q 356 1226 382 1246 q 318 1178 329 1207 q 307 1118 307 1149 l 174 1118 z "},"Ṟ":{"ha":847,"x_min":108,"x_max":797,"o":"m 108 0 l 108 1021 l 340 1021 q 491 1006 418 1021 q 621 954 564 990 q 711 858 678 918 q 744 711 744 799 q 697 535 744 610 q 554 419 650 460 l 797 0 l 618 0 l 413 386 q 355 384 389 385 q 299 383 321 383 l 260 383 l 260 0 l 108 0 m 260 510 l 358 510 q 481 529 435 510 q 553 578 528 549 q 587 644 578 608 q 596 710 596 679 q 565 817 596 778 q 478 874 533 857 q 353 892 424 892 l 260 892 l 260 510 m 181 -228 l 181 -112 l 650 -112 l 650 -228 l 181 -228 z "},"S":{"ha":729,"x_min":60,"x_max":671,"o":"m 343 -14 q 228 1 285 -14 q 126 37 171 15 q 60 81 82 58 l 133 213 q 181 180 149 200 q 257 144 214 160 q 343 129 300 129 q 462 163 414 129 q 510 260 510 196 q 482 347 510 313 q 409 408 454 382 q 312 459 364 435 q 213 514 260 483 q 118 610 158 550 q 78 764 78 669 q 120 917 78 857 q 233 1006 163 976 q 386 1036 303 1036 q 500 1022 453 1036 q 579 989 547 1008 q 629 954 611 969 l 556 828 q 485 874 532 853 q 379 896 438 896 q 271 865 311 896 q 231 772 231 833 q 267 680 231 718 q 359 610 303 642 q 475 547 415 579 q 581 472 535 515 q 644 389 618 439 q 671 276 671 339 q 627 117 671 182 q 510 19 583 51 q 343 -14 436 -14 z "},"Ś":{"ha":729,"x_min":60,"x_max":671,"o":"m 343 -14 q 228 1 285 -14 q 126 37 171 15 q 60 81 82 58 l 133 213 q 181 180 149 200 q 257 144 214 160 q 343 129 300 129 q 462 163 414 129 q 510 260 510 196 q 482 347 510 313 q 409 408 454 382 q 312 459 364 435 q 213 514 260 483 q 118 610 158 550 q 78 764 78 669 q 120 917 78 857 q 233 1006 163 976 q 386 1036 303 1036 q 500 1022 453 1036 q 579 989 547 1008 q 629 954 611 969 l 556 828 q 485 874 532 853 q 379 896 438 896 q 271 865 311 896 q 231 772 231 833 q 267 680 231 718 q 359 610 303 642 q 475 547 415 579 q 581 472 535 515 q 644 389 618 439 q 671 276 671 339 q 627 117 671 182 q 510 19 583 51 q 343 -14 436 -14 m 332 1099 l 272 1190 l 544 1397 l 628 1282 l 332 1099 z "},"Ṥ":{"ha":729,"x_min":60,"x_max":671,"o":"m 343 -14 q 228 1 285 -14 q 126 37 171 15 q 60 81 82 58 l 133 213 q 181 180 149 200 q 257 144 214 160 q 343 129 300 129 q 462 163 414 129 q 510 260 510 196 q 482 347 510 313 q 409 408 454 382 q 312 459 364 435 q 213 514 260 483 q 118 610 158 550 q 78 764 78 669 q 120 917 78 857 q 233 1006 163 976 q 386 1036 303 1036 q 500 1022 453 1036 q 579 989 547 1008 q 629 954 611 969 l 556 828 q 485 874 532 853 q 379 896 438 896 q 271 865 311 896 q 231 772 231 833 q 267 680 231 718 q 359 610 303 642 q 475 547 415 579 q 581 472 535 515 q 644 389 618 439 q 671 276 671 339 q 627 117 671 182 q 510 19 583 51 q 343 -14 436 -14 m 332 1099 l 272 1190 l 544 1397 l 628 1282 l 332 1099 m 386 1407 q 315 1435 343 1407 q 286 1506 286 1464 q 315 1577 286 1549 q 386 1606 343 1606 q 458 1577 429 1606 q 486 1506 486 1549 q 457 1435 486 1464 q 386 1407 428 1407 z "},"Š":{"ha":729,"x_min":60,"x_max":671,"o":"m 343 -14 q 228 1 285 -14 q 126 37 171 15 q 60 81 82 58 l 133 213 q 181 180 149 200 q 257 144 214 160 q 343 129 300 129 q 462 163 414 129 q 510 260 510 196 q 482 347 510 313 q 409 408 454 382 q 312 459 364 435 q 213 514 260 483 q 118 610 158 550 q 78 764 78 669 q 120 917 78 857 q 233 1006 163 976 q 386 1036 303 1036 q 500 1022 453 1036 q 579 989 547 1008 q 629 954 611 969 l 556 828 q 485 874 532 853 q 379 896 438 896 q 271 865 311 896 q 231 772 231 833 q 267 680 231 718 q 359 610 303 642 q 475 547 415 579 q 581 472 535 515 q 644 389 618 439 q 671 276 671 339 q 627 117 671 182 q 510 19 583 51 q 343 -14 436 -14 m 386 1090 l 122 1304 l 199 1379 l 386 1258 l 574 1379 l 649 1304 l 386 1090 z "},"Ṧ":{"ha":729,"x_min":60,"x_max":671,"o":"m 343 -14 q 228 1 285 -14 q 126 37 171 15 q 60 81 82 58 l 133 213 q 181 180 149 200 q 257 144 214 160 q 343 129 300 129 q 462 163 414 129 q 510 260 510 196 q 482 347 510 313 q 409 408 454 382 q 312 459 364 435 q 213 514 260 483 q 118 610 158 550 q 78 764 78 669 q 120 917 78 857 q 233 1006 163 976 q 386 1036 303 1036 q 500 1022 453 1036 q 579 989 547 1008 q 629 954 611 969 l 556 828 q 485 874 532 853 q 379 896 438 896 q 271 865 311 896 q 231 772 231 833 q 267 680 231 718 q 359 610 303 642 q 475 547 415 579 q 581 472 535 515 q 644 389 618 439 q 671 276 671 339 q 627 117 671 182 q 510 19 583 51 q 343 -14 436 -14 m 386 1090 l 122 1304 l 199 1379 l 386 1258 l 574 1379 l 649 1304 l 386 1090 m 386 1421 q 315 1449 343 1421 q 286 1519 286 1478 q 315 1591 286 1563 q 386 1619 343 1619 q 458 1591 429 1619 q 486 1519 486 1563 q 457 1449 486 1478 q 386 1421 428 1421 z "},"Ş":{"ha":729,"x_min":60,"x_max":671,"o":"m 343 -14 q 228 1 285 -14 q 126 37 171 15 q 60 81 82 58 l 133 213 q 181 180 149 200 q 257 144 214 160 q 343 129 300 129 q 462 163 414 129 q 510 260 510 196 q 482 347 510 313 q 409 408 454 382 q 312 459 364 435 q 213 514 260 483 q 118 610 158 550 q 78 764 78 669 q 120 917 78 857 q 233 1006 163 976 q 386 1036 303 1036 q 500 1022 453 1036 q 579 989 547 1008 q 629 954 611 969 l 556 828 q 485 874 532 853 q 379 896 438 896 q 271 865 311 896 q 231 772 231 833 q 267 680 231 718 q 359 610 303 642 q 475 547 415 579 q 581 472 535 515 q 644 389 618 439 q 671 276 671 339 q 627 117 671 182 q 510 19 583 51 q 343 -14 436 -14 m 276 -353 q 235 -350 256 -353 q 201 -346 214 -347 l 214 -217 q 253 -219 233 -219 q 330 -202 308 -219 q 351 -157 351 -185 q 339 -116 351 -135 q 314 -76 326 -97 q 301 -28 301 -56 q 306 3 301 -4 q 313 14 311 11 l 351 22 l 411 14 q 430 -33 411 -11 q 467 -85 449 -56 q 486 -167 486 -115 q 427 -310 486 -268 q 276 -353 368 -353 z "},"Ŝ":{"ha":729,"x_min":60,"x_max":671,"o":"m 343 -14 q 228 1 285 -14 q 126 37 171 15 q 60 81 82 58 l 133 213 q 181 180 149 200 q 257 144 214 160 q 343 129 300 129 q 462 163 414 129 q 510 260 510 196 q 482 347 510 313 q 409 408 454 382 q 312 459 364 435 q 213 514 260 483 q 118 610 158 550 q 78 764 78 669 q 120 917 78 857 q 233 1006 163 976 q 386 1036 303 1036 q 500 1022 453 1036 q 579 989 547 1008 q 629 954 611 969 l 556 828 q 485 874 532 853 q 379 896 438 896 q 271 865 311 896 q 231 772 231 833 q 267 680 231 718 q 359 610 303 642 q 475 547 415 579 q 581 472 535 515 q 644 389 618 439 q 671 276 671 339 q 627 117 671 182 q 510 19 583 51 q 343 -14 436 -14 m 199 1101 l 122 1176 l 386 1390 l 649 1176 l 574 1101 l 386 1222 l 199 1101 z "},"Ș":{"ha":729,"x_min":60,"x_max":671,"o":"m 343 -14 q 228 1 285 -14 q 126 37 171 15 q 60 81 82 58 l 133 213 q 181 180 149 200 q 257 144 214 160 q 343 129 300 129 q 462 163 414 129 q 510 260 510 196 q 482 347 510 313 q 409 408 454 382 q 312 459 364 435 q 213 514 260 483 q 118 610 158 550 q 78 764 78 669 q 120 917 78 857 q 233 1006 163 976 q 386 1036 303 1036 q 500 1022 453 1036 q 579 989 547 1008 q 629 954 611 969 l 556 828 q 485 874 532 853 q 379 896 438 896 q 271 865 311 896 q 231 772 231 833 q 267 680 231 718 q 359 610 303 642 q 475 547 415 579 q 581 472 535 515 q 644 389 618 439 q 671 276 671 339 q 627 117 671 182 q 510 19 583 51 q 343 -14 436 -14 m 275 -367 q 297 -303 286 -333 q 310 -243 307 -274 q 265 -161 265 -214 q 294 -90 265 -118 q 367 -62 324 -62 q 438 -90 411 -62 q 465 -161 465 -118 q 446 -244 465 -201 q 401 -321 426 -287 q 361 -367 376 -354 l 275 -367 z "},"Ṡ":{"ha":729,"x_min":60,"x_max":671,"o":"m 343 -14 q 228 1 285 -14 q 126 37 171 15 q 60 81 82 58 l 133 213 q 181 180 149 200 q 257 144 214 160 q 343 129 300 129 q 462 163 414 129 q 510 260 510 196 q 482 347 510 313 q 409 408 454 382 q 312 459 364 435 q 213 514 260 483 q 118 610 158 550 q 78 764 78 669 q 120 917 78 857 q 233 1006 163 976 q 386 1036 303 1036 q 500 1022 453 1036 q 579 989 547 1008 q 629 954 611 969 l 556 828 q 485 874 532 853 q 379 896 438 896 q 271 865 311 896 q 231 772 231 833 q 267 680 231 718 q 359 610 303 642 q 475 547 415 579 q 581 472 535 515 q 644 389 618 439 q 671 276 671 339 q 627 117 671 182 q 510 19 583 51 q 343 -14 436 -14 m 386 1136 q 315 1165 343 1136 q 286 1235 286 1193 q 315 1306 286 1278 q 386 1335 343 1335 q 458 1306 429 1335 q 486 1235 486 1278 q 457 1165 486 1193 q 386 1136 428 1136 z "},"Ṣ":{"ha":729,"x_min":60,"x_max":671,"o":"m 343 -14 q 228 1 285 -14 q 126 37 171 15 q 60 81 82 58 l 133 213 q 181 180 149 200 q 257 144 214 160 q 343 129 300 129 q 462 163 414 129 q 510 260 510 196 q 482 347 510 313 q 409 408 454 382 q 312 459 364 435 q 213 514 260 483 q 118 610 158 550 q 78 764 78 669 q 120 917 78 857 q 233 1006 163 976 q 386 1036 303 1036 q 500 1022 453 1036 q 579 989 547 1008 q 629 954 611 969 l 556 828 q 485 874 532 853 q 379 896 438 896 q 271 865 311 896 q 231 772 231 833 q 267 680 231 718 q 359 610 303 642 q 475 547 415 579 q 581 472 535 515 q 644 389 618 439 q 671 276 671 339 q 627 117 671 182 q 510 19 583 51 q 343 -14 436 -14 m 365 -303 q 293 -274 322 -303 q 264 -201 264 -244 q 293 -135 264 -162 q 365 -107 322 -107 q 437 -135 408 -107 q 465 -201 465 -162 q 437 -274 465 -244 q 365 -303 408 -303 z "},"Ṩ":{"ha":729,"x_min":60,"x_max":671,"o":"m 343 -14 q 228 1 285 -14 q 126 37 171 15 q 60 81 82 58 l 133 213 q 181 180 149 200 q 257 144 214 160 q 343 129 300 129 q 462 163 414 129 q 510 260 510 196 q 482 347 510 313 q 409 408 454 382 q 312 459 364 435 q 213 514 260 483 q 118 610 158 550 q 78 764 78 669 q 120 917 78 857 q 233 1006 163 976 q 386 1036 303 1036 q 500 1022 453 1036 q 579 989 547 1008 q 629 954 611 969 l 556 828 q 485 874 532 853 q 379 896 438 896 q 271 865 311 896 q 231 772 231 833 q 267 680 231 718 q 359 610 303 642 q 475 547 415 579 q 581 472 535 515 q 644 389 618 439 q 671 276 671 339 q 627 117 671 182 q 510 19 583 51 q 343 -14 436 -14 m 365 -303 q 293 -274 322 -303 q 264 -201 264 -244 q 293 -135 264 -162 q 365 -107 322 -107 q 437 -135 408 -107 q 465 -201 465 -162 q 437 -274 465 -244 q 365 -303 408 -303 m 386 1136 q 315 1165 343 1136 q 286 1235 286 1193 q 315 1306 286 1278 q 386 1335 343 1335 q 458 1306 429 1335 q 486 1235 486 1278 q 457 1165 486 1193 q 386 1136 428 1136 z "},"ẞ":{"ha":892,"x_min":107,"x_max":818,"o":"m 107 0 l 107 1021 l 772 1021 l 772 900 l 543 582 q 688 541 626 582 q 784 440 750 500 q 818 322 818 381 q 781 165 818 239 q 663 46 744 92 q 442 0 581 0 l 378 0 l 378 136 l 443 136 q 603 184 549 136 q 657 311 657 232 q 604 428 657 385 q 450 472 551 472 l 378 472 l 378 576 l 599 892 l 258 892 l 258 0 l 107 0 z "},"T":{"ha":763,"x_min":42,"x_max":721,"o":"m 303 0 l 303 885 l 42 885 l 42 1021 l 721 1021 l 721 885 l 457 885 l 457 0 l 303 0 z "},"Ŧ":{"ha":763,"x_min":42,"x_max":721,"o":"m 303 0 l 303 501 l 146 501 l 146 617 l 303 617 l 303 885 l 42 885 l 42 1021 l 721 1021 l 721 885 l 457 885 l 457 617 l 618 617 l 618 501 l 457 501 l 457 0 l 303 0 z "},"Ť":{"ha":763,"x_min":42,"x_max":721,"o":"m 303 0 l 303 885 l 42 885 l 42 1021 l 721 1021 l 721 885 l 457 885 l 457 0 l 303 0 m 381 1090 l 117 1304 l 193 1379 l 381 1258 l 568 1379 l 643 1304 l 381 1090 z "},"Ţ":{"ha":763,"x_min":42,"x_max":721,"o":"m 303 0 l 303 885 l 42 885 l 42 1021 l 721 1021 l 721 885 l 457 885 l 457 0 l 303 0 m 293 -353 q 251 -350 272 -353 q 218 -346 231 -347 l 231 -217 q 269 -219 250 -219 q 347 -202 325 -219 q 368 -157 368 -185 q 356 -116 368 -135 q 331 -76 343 -97 q 318 -28 318 -56 q 323 3 318 -4 q 329 14 328 11 l 368 22 l 428 14 q 447 -33 428 -11 q 484 -85 465 -56 q 503 -167 503 -115 q 444 -310 503 -268 q 293 -353 385 -353 z "},"Ṱ":{"ha":763,"x_min":42,"x_max":721,"o":"m 303 0 l 303 885 l 42 885 l 42 1021 l 721 1021 l 721 885 l 457 885 l 457 0 l 303 0 m 224 -419 l 133 -344 l 382 -58 l 631 -344 l 542 -419 l 382 -226 l 224 -419 z "},"Ț":{"ha":763,"x_min":42,"x_max":721,"o":"m 303 0 l 303 885 l 42 885 l 42 1021 l 721 1021 l 721 885 l 457 885 l 457 0 l 303 0 m 292 -367 q 313 -303 303 -333 q 326 -243 324 -274 q 282 -161 282 -214 q 311 -90 282 -118 q 383 -62 340 -62 q 455 -90 428 -62 q 482 -161 482 -118 q 463 -244 482 -201 q 418 -321 443 -287 q 378 -367 393 -354 l 292 -367 z "},"Ṫ":{"ha":763,"x_min":42,"x_max":721,"o":"m 303 0 l 303 885 l 42 885 l 42 1021 l 721 1021 l 721 885 l 457 885 l 457 0 l 303 0 m 381 1136 q 309 1165 338 1136 q 281 1235 281 1193 q 309 1306 281 1278 q 381 1335 338 1335 q 452 1306 424 1335 q 481 1235 481 1278 q 451 1165 481 1193 q 381 1136 422 1136 z "},"Ṭ":{"ha":763,"x_min":42,"x_max":721,"o":"m 303 0 l 303 885 l 42 885 l 42 1021 l 721 1021 l 721 885 l 457 885 l 457 0 l 303 0 m 382 -303 q 310 -274 339 -303 q 281 -201 281 -244 q 310 -135 281 -162 q 382 -107 339 -107 q 453 -135 425 -107 q 482 -201 482 -162 q 453 -274 482 -244 q 382 -303 425 -303 z "},"Ṯ":{"ha":763,"x_min":42,"x_max":721,"o":"m 303 0 l 303 885 l 42 885 l 42 1021 l 721 1021 l 721 885 l 457 885 l 457 0 l 303 0 m 147 -228 l 147 -112 l 617 -112 l 617 -228 l 147 -228 z "},"U":{"ha":919,"x_min":96,"x_max":824,"o":"m 460 -14 q 247 40 326 -14 q 131 196 167 94 q 96 436 96 297 l 96 1021 l 251 1021 l 251 433 q 301 201 251 271 q 460 131 350 131 q 618 199 569 131 q 667 433 667 267 l 667 1021 l 824 1021 l 824 436 q 735 104 824 222 q 460 -14 646 -14 z "},"Ú":{"ha":919,"x_min":96,"x_max":824,"o":"m 460 -14 q 247 40 326 -14 q 131 196 167 94 q 96 436 96 297 l 96 1021 l 251 1021 l 251 433 q 301 201 251 271 q 460 131 350 131 q 618 199 569 131 q 667 433 667 267 l 667 1021 l 824 1021 l 824 436 q 735 104 824 222 q 460 -14 646 -14 m 411 1099 l 351 1190 l 624 1397 l 707 1282 l 411 1099 z "},"Ŭ":{"ha":919,"x_min":96,"x_max":824,"o":"m 460 -14 q 247 40 326 -14 q 131 196 167 94 q 96 436 96 297 l 96 1021 l 251 1021 l 251 433 q 301 201 251 271 q 460 131 350 131 q 618 199 569 131 q 667 433 667 267 l 667 1021 l 824 1021 l 824 436 q 735 104 824 222 q 460 -14 646 -14 m 465 1110 q 329 1142 386 1110 q 242 1232 272 1175 q 213 1360 213 1289 l 346 1360 q 357 1300 346 1329 q 394 1251 368 1271 q 465 1232 421 1232 q 553 1273 522 1232 q 585 1360 585 1314 l 717 1360 q 687 1232 717 1289 q 601 1142 657 1175 q 465 1110 544 1110 z "},"Ǔ":{"ha":919,"x_min":96,"x_max":824,"o":"m 460 -14 q 247 40 326 -14 q 131 196 167 94 q 96 436 96 297 l 96 1021 l 251 1021 l 251 433 q 301 201 251 271 q 460 131 350 131 q 618 199 569 131 q 667 433 667 267 l 667 1021 l 824 1021 l 824 436 q 735 104 824 222 q 460 -14 646 -14 m 465 1090 l 201 1304 l 278 1379 l 465 1258 l 653 1379 l 728 1304 l 465 1090 z "},"Û":{"ha":919,"x_min":96,"x_max":824,"o":"m 460 -14 q 247 40 326 -14 q 131 196 167 94 q 96 436 96 297 l 96 1021 l 251 1021 l 251 433 q 301 201 251 271 q 460 131 350 131 q 618 199 569 131 q 667 433 667 267 l 667 1021 l 824 1021 l 824 436 q 735 104 824 222 q 460 -14 646 -14 m 278 1101 l 201 1176 l 465 1390 l 728 1176 l 653 1101 l 465 1222 l 278 1101 z "},"Ṷ":{"ha":919,"x_min":96,"x_max":824,"o":"m 460 -14 q 247 40 326 -14 q 131 196 167 94 q 96 436 96 297 l 96 1021 l 251 1021 l 251 433 q 301 201 251 271 q 460 131 350 131 q 618 199 569 131 q 667 433 667 267 l 667 1021 l 824 1021 l 824 436 q 735 104 824 222 q 460 -14 646 -14 m 301 -419 l 211 -344 l 460 -58 l 708 -344 l 619 -419 l 460 -226 l 301 -419 z "},"Ȕ":{"ha":919,"x_min":86,"x_max":824,"o":"m 460 -14 q 247 40 326 -14 q 131 196 167 94 q 96 436 96 297 l 96 1021 l 251 1021 l 251 433 q 301 201 251 271 q 460 131 350 131 q 618 199 569 131 q 667 433 667 267 l 667 1021 l 824 1021 l 824 436 q 735 104 824 222 q 460 -14 646 -14 m 564 1090 l 389 1351 l 525 1419 l 664 1133 l 564 1090 m 275 1090 l 86 1350 l 222 1418 l 375 1133 l 275 1090 z "},"Ü":{"ha":919,"x_min":96,"x_max":824,"o":"m 460 -14 q 247 40 326 -14 q 131 196 167 94 q 96 436 96 297 l 96 1021 l 251 1021 l 251 433 q 301 201 251 271 q 460 131 350 131 q 618 199 569 131 q 667 433 667 267 l 667 1021 l 824 1021 l 824 436 q 735 104 824 222 q 460 -14 646 -14 m 632 1125 q 561 1154 590 1125 q 532 1224 532 1183 q 560 1294 532 1265 q 632 1322 589 1322 q 704 1294 675 1322 q 733 1224 733 1265 q 704 1154 733 1183 q 632 1125 675 1125 m 297 1125 q 226 1154 256 1125 q 197 1224 197 1183 q 226 1294 197 1265 q 297 1322 254 1322 q 369 1294 342 1322 q 397 1224 397 1265 q 369 1154 397 1183 q 297 1125 340 1125 z "},"Ǘ":{"ha":919,"x_min":96,"x_max":824,"o":"m 460 -14 q 247 40 326 -14 q 131 196 167 94 q 96 436 96 297 l 96 1021 l 251 1021 l 251 433 q 301 201 251 271 q 460 131 350 131 q 618 199 569 131 q 667 433 667 267 l 667 1021 l 824 1021 l 824 436 q 735 104 824 222 q 460 -14 646 -14 m 632 1125 q 561 1154 590 1125 q 532 1224 532 1183 q 560 1294 532 1265 q 632 1322 589 1322 q 704 1294 675 1322 q 733 1224 733 1265 q 704 1154 733 1183 q 632 1125 675 1125 m 297 1125 q 226 1154 256 1125 q 197 1224 197 1183 q 226 1294 197 1265 q 297 1322 254 1322 q 369 1294 342 1322 q 397 1224 397 1265 q 369 1154 397 1183 q 297 1125 340 1125 m 411 1369 l 351 1461 l 624 1668 l 707 1553 l 411 1369 z "},"Ṳ":{"ha":919,"x_min":96,"x_max":824,"o":"m 460 -14 q 247 40 326 -14 q 131 196 167 94 q 96 436 96 297 l 96 1021 l 251 1021 l 251 433 q 301 201 251 271 q 460 131 350 131 q 618 199 569 131 q 667 433 667 267 l 667 1021 l 824 1021 l 824 436 q 735 104 824 222 q 460 -14 646 -14 m 626 -264 q 556 -235 585 -264 q 526 -165 526 -206 q 555 -95 526 -124 q 626 -67 583 -67 q 699 -95 669 -67 q 728 -165 728 -124 q 699 -235 728 -206 q 626 -264 669 -264 m 292 -264 q 221 -235 250 -264 q 192 -165 192 -206 q 220 -95 192 -124 q 292 -67 249 -67 q 364 -95 336 -67 q 392 -165 392 -124 q 363 -235 392 -206 q 292 -264 335 -264 z "},"Ǚ":{"ha":919,"x_min":96,"x_max":824,"o":"m 460 -14 q 247 40 326 -14 q 131 196 167 94 q 96 436 96 297 l 96 1021 l 251 1021 l 251 433 q 301 201 251 271 q 460 131 350 131 q 618 199 569 131 q 667 433 667 267 l 667 1021 l 824 1021 l 824 436 q 735 104 824 222 q 460 -14 646 -14 m 632 1125 q 561 1154 590 1125 q 532 1224 532 1183 q 560 1294 532 1265 q 632 1322 589 1322 q 704 1294 675 1322 q 733 1224 733 1265 q 704 1154 733 1183 q 632 1125 675 1125 m 297 1125 q 226 1154 256 1125 q 197 1224 197 1183 q 226 1294 197 1265 q 297 1322 254 1322 q 369 1294 342 1322 q 397 1224 397 1265 q 369 1154 397 1183 q 297 1125 340 1125 m 465 1361 l 201 1575 l 278 1650 l 465 1529 l 653 1650 l 728 1575 l 465 1361 z "},"Ǜ":{"ha":919,"x_min":96,"x_max":824,"o":"m 460 -14 q 247 40 326 -14 q 131 196 167 94 q 96 436 96 297 l 96 1021 l 251 1021 l 251 433 q 301 201 251 271 q 460 131 350 131 q 618 199 569 131 q 667 433 667 267 l 667 1021 l 824 1021 l 824 436 q 735 104 824 222 q 460 -14 646 -14 m 632 1125 q 561 1154 590 1125 q 532 1224 532 1183 q 560 1294 532 1265 q 632 1322 589 1322 q 704 1294 675 1322 q 733 1224 733 1265 q 704 1154 733 1183 q 632 1125 675 1125 m 297 1125 q 226 1154 256 1125 q 197 1224 197 1183 q 226 1294 197 1265 q 297 1322 254 1322 q 369 1294 342 1322 q 397 1224 397 1265 q 369 1154 397 1183 q 297 1125 340 1125 m 519 1369 l 224 1553 l 307 1668 l 579 1461 l 519 1369 z "},"Ǖ":{"ha":919,"x_min":96,"x_max":824,"o":"m 460 -14 q 247 40 326 -14 q 131 196 167 94 q 96 436 96 297 l 96 1021 l 251 1021 l 251 433 q 301 201 251 271 q 460 131 350 131 q 618 199 569 131 q 667 433 667 267 l 667 1021 l 824 1021 l 824 436 q 735 104 824 222 q 460 -14 646 -14 m 632 1125 q 561 1154 590 1125 q 532 1224 532 1183 q 560 1294 532 1265 q 632 1322 589 1322 q 704 1294 675 1322 q 733 1224 733 1265 q 704 1154 733 1183 q 632 1125 675 1125 m 297 1125 q 226 1154 256 1125 q 197 1224 197 1183 q 226 1294 197 1265 q 297 1322 254 1322 q 369 1294 342 1322 q 397 1224 397 1265 q 369 1154 397 1183 q 297 1125 340 1125 m 231 1418 l 231 1533 l 700 1533 l 700 1418 l 231 1418 z "},"Ụ":{"ha":919,"x_min":96,"x_max":824,"o":"m 460 -14 q 247 40 326 -14 q 131 196 167 94 q 96 436 96 297 l 96 1021 l 251 1021 l 251 433 q 301 201 251 271 q 460 131 350 131 q 618 199 569 131 q 667 433 667 267 l 667 1021 l 824 1021 l 824 436 q 735 104 824 222 q 460 -14 646 -14 m 460 -303 q 388 -274 417 -303 q 358 -201 358 -244 q 388 -135 358 -162 q 460 -107 417 -107 q 531 -135 503 -107 q 560 -201 560 -162 q 531 -274 560 -244 q 460 -303 503 -303 z "},"Ù":{"ha":919,"x_min":96,"x_max":824,"o":"m 460 -14 q 247 40 326 -14 q 131 196 167 94 q 96 436 96 297 l 96 1021 l 251 1021 l 251 433 q 301 201 251 271 q 460 131 350 131 q 618 199 569 131 q 667 433 667 267 l 667 1021 l 824 1021 l 824 436 q 735 104 824 222 q 460 -14 646 -14 m 519 1099 l 224 1282 l 307 1397 l 579 1190 l 519 1099 z "},"Ủ":{"ha":919,"x_min":96,"x_max":824,"o":"m 460 -14 q 247 40 326 -14 q 131 196 167 94 q 96 436 96 297 l 96 1021 l 251 1021 l 251 433 q 301 201 251 271 q 460 131 350 131 q 618 199 569 131 q 667 433 667 267 l 667 1021 l 824 1021 l 824 436 q 735 104 824 222 q 460 -14 646 -14 m 481 1100 q 437 1101 454 1100 q 397 1108 419 1103 l 374 1196 q 415 1192 393 1192 q 463 1197 438 1192 q 506 1217 488 1203 q 524 1257 524 1231 q 440 1306 524 1306 q 378 1298 400 1306 q 328 1276 356 1290 l 299 1363 q 353 1397 314 1378 q 460 1415 393 1415 q 543 1402 499 1415 q 619 1354 588 1389 q 651 1257 651 1319 q 631 1185 651 1221 q 574 1124 611 1149 q 481 1100 536 1100 z "},"Ư":{"ha":911,"x_min":96,"x_max":940,"o":"m 460 -14 q 247 40 326 -14 q 131 196 167 94 q 96 436 96 297 l 96 1021 l 251 1021 l 251 433 q 301 201 251 271 q 460 131 350 131 q 618 199 569 131 q 667 433 667 267 l 667 1021 q 699 1022 675 1021 q 748 1031 722 1024 q 792 1056 774 1039 q 811 1106 811 1074 q 800 1185 811 1157 l 931 1185 q 938 1148 936 1168 q 940 1085 940 1128 q 922 1025 940 1050 q 877 983 904 1000 q 824 960 850 967 l 824 436 q 735 104 824 222 q 460 -14 646 -14 z "},"Ứ":{"ha":911,"x_min":96,"x_max":940,"o":"m 460 -14 q 247 40 326 -14 q 131 196 167 94 q 96 436 96 297 l 96 1021 l 251 1021 l 251 433 q 301 201 251 271 q 460 131 350 131 q 618 199 569 131 q 667 433 667 267 l 667 1021 q 699 1022 675 1021 q 748 1031 722 1024 q 792 1056 774 1039 q 811 1106 811 1074 q 800 1185 811 1157 l 931 1185 q 938 1148 936 1168 q 940 1085 940 1128 q 922 1025 940 1050 q 877 983 904 1000 q 824 960 850 967 l 824 436 q 735 104 824 222 q 460 -14 646 -14 m 411 1099 l 351 1190 l 624 1397 l 707 1282 l 411 1099 z "},"Ự":{"ha":911,"x_min":96,"x_max":940,"o":"m 460 -14 q 247 40 326 -14 q 131 196 167 94 q 96 436 96 297 l 96 1021 l 251 1021 l 251 433 q 301 201 251 271 q 460 131 350 131 q 618 199 569 131 q 667 433 667 267 l 667 1021 q 699 1022 675 1021 q 748 1031 722 1024 q 792 1056 774 1039 q 811 1106 811 1074 q 800 1185 811 1157 l 931 1185 q 938 1148 936 1168 q 940 1085 940 1128 q 922 1025 940 1050 q 877 983 904 1000 q 824 960 850 967 l 824 436 q 735 104 824 222 q 460 -14 646 -14 m 461 -303 q 389 -274 418 -303 q 360 -201 360 -244 q 389 -135 360 -162 q 461 -107 418 -107 q 532 -135 504 -107 q 560 -201 560 -162 q 532 -274 560 -244 q 461 -303 504 -303 z "},"Ừ":{"ha":911,"x_min":96,"x_max":940,"o":"m 460 -14 q 247 40 326 -14 q 131 196 167 94 q 96 436 96 297 l 96 1021 l 251 1021 l 251 433 q 301 201 251 271 q 460 131 350 131 q 618 199 569 131 q 667 433 667 267 l 667 1021 q 699 1022 675 1021 q 748 1031 722 1024 q 792 1056 774 1039 q 811 1106 811 1074 q 800 1185 811 1157 l 931 1185 q 938 1148 936 1168 q 940 1085 940 1128 q 922 1025 940 1050 q 877 983 904 1000 q 824 960 850 967 l 824 436 q 735 104 824 222 q 460 -14 646 -14 m 519 1099 l 224 1282 l 307 1397 l 579 1190 l 519 1099 z "},"Ử":{"ha":911,"x_min":96,"x_max":940,"o":"m 460 -14 q 247 40 326 -14 q 131 196 167 94 q 96 436 96 297 l 96 1021 l 251 1021 l 251 433 q 301 201 251 271 q 460 131 350 131 q 618 199 569 131 q 667 433 667 267 l 667 1021 q 699 1022 675 1021 q 748 1031 722 1024 q 792 1056 774 1039 q 811 1106 811 1074 q 800 1185 811 1157 l 931 1185 q 938 1148 936 1168 q 940 1085 940 1128 q 922 1025 940 1050 q 877 983 904 1000 q 824 960 850 967 l 824 436 q 735 104 824 222 q 460 -14 646 -14 m 481 1100 q 437 1101 454 1100 q 397 1108 419 1103 l 374 1196 q 415 1192 393 1192 q 463 1197 438 1192 q 506 1217 488 1203 q 524 1257 524 1231 q 440 1306 524 1306 q 378 1298 400 1306 q 328 1276 356 1290 l 299 1363 q 353 1397 314 1378 q 460 1415 393 1415 q 543 1402 499 1415 q 619 1354 588 1389 q 651 1257 651 1319 q 631 1185 651 1221 q 574 1124 611 1149 q 481 1100 536 1100 z "},"Ữ":{"ha":911,"x_min":96,"x_max":940,"o":"m 460 -14 q 247 40 326 -14 q 131 196 167 94 q 96 436 96 297 l 96 1021 l 251 1021 l 251 433 q 301 201 251 271 q 460 131 350 131 q 618 199 569 131 q 667 433 667 267 l 667 1021 q 699 1022 675 1021 q 748 1031 722 1024 q 792 1056 774 1039 q 811 1106 811 1074 q 800 1185 811 1157 l 931 1185 q 938 1148 936 1168 q 940 1085 940 1128 q 922 1025 940 1050 q 877 983 904 1000 q 824 960 850 967 l 824 436 q 735 104 824 222 q 460 -14 646 -14 m 558 1133 q 490 1147 515 1133 q 444 1177 464 1160 q 405 1208 425 1194 q 353 1221 385 1221 q 313 1203 326 1221 q 281 1142 300 1185 l 221 1235 q 276 1316 232 1281 q 374 1351 321 1351 q 447 1338 419 1351 q 493 1307 475 1325 q 529 1276 511 1289 q 574 1263 547 1263 q 624 1277 601 1263 q 660 1326 646 1292 l 713 1246 q 658 1164 706 1194 q 558 1133 611 1133 z "},"Ű":{"ha":919,"x_min":96,"x_max":824,"o":"m 460 -14 q 247 40 326 -14 q 131 196 167 94 q 96 436 96 297 l 96 1021 l 251 1021 l 251 433 q 301 201 251 271 q 460 131 350 131 q 618 199 569 131 q 667 433 667 267 l 667 1021 l 824 1021 l 824 436 q 735 104 824 222 q 460 -14 646 -14 m 633 1143 l 533 1188 l 672 1476 l 811 1408 l 633 1143 m 346 1143 l 246 1188 l 383 1476 l 522 1408 l 346 1143 z "},"Ȗ":{"ha":919,"x_min":96,"x_max":824,"o":"m 460 -14 q 247 40 326 -14 q 131 196 167 94 q 96 436 96 297 l 96 1021 l 251 1021 l 251 433 q 301 201 251 271 q 460 131 350 131 q 618 199 569 131 q 667 433 667 267 l 667 1021 l 824 1021 l 824 436 q 735 104 824 222 q 460 -14 646 -14 m 213 1118 q 242 1247 213 1190 q 329 1335 272 1303 q 465 1368 386 1368 q 601 1335 544 1368 q 687 1247 657 1303 q 717 1118 717 1190 l 585 1118 q 553 1205 585 1164 q 465 1246 522 1246 q 394 1226 421 1246 q 357 1178 368 1207 q 346 1118 346 1149 l 213 1118 z "},"Ū":{"ha":919,"x_min":96,"x_max":824,"o":"m 460 -14 q 247 40 326 -14 q 131 196 167 94 q 96 436 96 297 l 96 1021 l 251 1021 l 251 433 q 301 201 251 271 q 460 131 350 131 q 618 199 569 131 q 667 433 667 267 l 667 1021 l 824 1021 l 824 436 q 735 104 824 222 q 460 -14 646 -14 m 231 1147 l 231 1263 l 700 1263 l 700 1147 l 231 1147 z "},"Ṻ":{"ha":919,"x_min":96,"x_max":824,"o":"m 460 -14 q 247 40 326 -14 q 131 196 167 94 q 96 436 96 297 l 96 1021 l 251 1021 l 251 433 q 301 201 251 271 q 460 131 350 131 q 618 199 569 131 q 667 433 667 267 l 667 1021 l 824 1021 l 824 436 q 735 104 824 222 q 460 -14 646 -14 m 231 1147 l 231 1263 l 700 1263 l 700 1147 l 231 1147 m 632 1396 q 561 1425 590 1396 q 532 1494 532 1454 q 560 1565 532 1536 q 632 1593 589 1593 q 704 1565 675 1593 q 733 1494 733 1536 q 704 1425 733 1454 q 632 1396 675 1396 m 297 1396 q 226 1425 256 1396 q 197 1494 197 1454 q 226 1565 197 1536 q 297 1593 254 1593 q 369 1565 342 1593 q 397 1494 397 1536 q 369 1425 397 1454 q 297 1396 340 1396 z "},"Ų":{"ha":919,"x_min":96,"x_max":824,"o":"m 497 -367 q 347 -324 406 -367 q 288 -181 288 -282 q 319 -77 288 -119 q 385 -8 350 -35 q 162 131 228 14 q 96 436 96 247 l 96 1021 l 251 1021 l 251 433 q 301 201 251 271 q 460 131 350 131 q 618 199 569 131 q 667 433 667 267 l 667 1021 l 824 1021 l 824 436 q 756 134 824 249 q 546 -7 688 19 q 462 -57 501 -22 q 422 -150 422 -92 q 444 -206 422 -178 q 519 -233 465 -233 q 544 -233 529 -233 q 565 -231 558 -232 l 565 -360 q 535 -364 553 -361 q 497 -367 517 -367 z "},"Ʊ":{"ha":1282,"x_min":147,"x_max":1135,"o":"m 1135 1021 l 1135 883 l 913 883 q 1008 778 963 839 q 1081 640 1053 717 q 1110 474 1110 564 q 1071 259 1110 351 q 966 106 1032 167 q 816 14 900 44 q 642 -17 732 -17 q 466 14 550 -17 q 315 106 382 44 q 210 259 249 167 q 172 474 172 351 q 200 640 172 564 q 273 778 228 717 q 368 883 318 839 l 147 883 l 147 1021 l 558 1021 l 558 911 q 421 768 468 842 q 357 620 374 694 q 340 474 340 546 q 372 294 340 372 q 469 174 403 217 q 642 131 536 131 q 813 174 747 131 q 910 294 879 217 q 942 474 942 372 q 890 694 942 582 q 724 911 839 806 l 724 1021 l 1135 1021 z "},"Ů":{"ha":919,"x_min":96,"x_max":824,"o":"m 460 -14 q 247 40 326 -14 q 131 196 167 94 q 96 436 96 297 l 96 1021 l 251 1021 l 251 433 q 301 201 251 271 q 460 131 350 131 q 618 199 569 131 q 667 433 667 267 l 667 1021 l 824 1021 l 824 436 q 735 104 824 222 q 460 -14 646 -14 m 465 1068 q 364 1091 411 1068 q 288 1154 317 1114 q 260 1249 260 1194 q 288 1342 260 1303 q 364 1403 317 1382 q 465 1425 411 1425 q 567 1403 521 1425 q 642 1341 614 1381 q 671 1249 671 1301 q 642 1155 671 1196 q 567 1091 614 1114 q 465 1068 521 1068 m 465 1168 q 524 1191 499 1168 q 549 1249 549 1214 q 524 1304 549 1283 q 465 1325 499 1325 q 407 1304 431 1325 q 383 1249 383 1283 q 407 1191 383 1214 q 465 1168 431 1168 z "},"Ũ":{"ha":919,"x_min":96,"x_max":824,"o":"m 460 -14 q 247 40 326 -14 q 131 196 167 94 q 96 436 96 297 l 96 1021 l 251 1021 l 251 433 q 301 201 251 271 q 460 131 350 131 q 618 199 569 131 q 667 433 667 267 l 667 1021 l 824 1021 l 824 436 q 735 104 824 222 q 460 -14 646 -14 m 558 1133 q 490 1147 515 1133 q 444 1177 464 1160 q 405 1208 425 1194 q 353 1221 385 1221 q 313 1203 326 1221 q 281 1142 300 1185 l 221 1235 q 276 1316 232 1281 q 374 1351 321 1351 q 447 1338 419 1351 q 493 1307 475 1325 q 529 1276 511 1289 q 574 1263 547 1263 q 624 1277 601 1263 q 660 1326 646 1292 l 713 1246 q 658 1164 706 1194 q 558 1133 611 1133 z "},"Ṹ":{"ha":919,"x_min":96,"x_max":824,"o":"m 460 -14 q 247 40 326 -14 q 131 196 167 94 q 96 436 96 297 l 96 1021 l 251 1021 l 251 433 q 301 201 251 271 q 460 131 350 131 q 618 199 569 131 q 667 433 667 267 l 667 1021 l 824 1021 l 824 436 q 735 104 824 222 q 460 -14 646 -14 m 558 1133 q 490 1147 515 1133 q 444 1177 464 1160 q 405 1208 425 1194 q 353 1221 385 1221 q 313 1203 326 1221 q 281 1142 300 1185 l 221 1235 q 276 1316 232 1281 q 374 1351 321 1351 q 447 1338 419 1351 q 493 1307 475 1325 q 529 1276 511 1289 q 574 1263 547 1263 q 624 1277 601 1263 q 660 1326 646 1292 l 713 1246 q 658 1164 706 1194 q 558 1133 611 1133 m 411 1397 l 351 1489 l 624 1696 l 707 1581 l 411 1397 z "},"Ṵ":{"ha":919,"x_min":96,"x_max":824,"o":"m 460 -14 q 247 40 326 -14 q 131 196 167 94 q 96 436 96 297 l 96 1021 l 251 1021 l 251 433 q 301 201 251 271 q 460 131 350 131 q 618 199 569 131 q 667 433 667 267 l 667 1021 l 824 1021 l 824 436 q 735 104 824 222 q 460 -14 646 -14 m 549 -290 q 480 -276 503 -290 q 439 -242 457 -261 q 408 -214 425 -225 q 364 -203 392 -203 q 317 -221 342 -203 q 274 -282 293 -239 l 210 -185 q 235 -135 217 -161 q 286 -90 254 -108 q 361 -72 318 -72 q 430 -87 406 -72 q 472 -121 454 -101 q 507 -150 489 -139 q 551 -161 525 -161 q 601 -142 574 -161 q 646 -79 628 -124 l 710 -178 q 683 -225 706 -199 q 626 -271 661 -251 q 549 -290 592 -290 z "},"V":{"ha":919,"x_min":-22,"x_max":942,"o":"m 450 0 l -22 1021 l 154 1021 l 460 319 l 767 1021 l 942 1021 l 471 0 l 450 0 z "},"Ṿ":{"ha":919,"x_min":-22,"x_max":942,"o":"m 450 0 l -22 1021 l 154 1021 l 460 319 l 767 1021 l 942 1021 l 471 0 l 450 0 m 460 -303 q 388 -274 417 -303 q 358 -201 358 -244 q 388 -135 358 -162 q 460 -107 417 -107 q 531 -135 503 -107 q 560 -201 560 -162 q 531 -274 560 -244 q 460 -303 503 -303 z "},"Ṽ":{"ha":919,"x_min":-22,"x_max":942,"o":"m 450 0 l -22 1021 l 154 1021 l 460 319 l 767 1021 l 942 1021 l 471 0 l 450 0 m 553 1133 q 484 1147 510 1133 q 439 1177 458 1160 q 399 1208 419 1194 q 347 1221 379 1221 q 308 1203 321 1221 q 275 1142 294 1185 l 215 1235 q 271 1316 226 1281 q 368 1351 315 1351 q 442 1338 414 1351 q 488 1307 469 1325 q 524 1276 506 1289 q 568 1263 542 1263 q 618 1277 596 1263 q 654 1326 640 1292 l 707 1246 q 653 1164 700 1194 q 553 1133 606 1133 z "},"Ʌ":{"ha":919,"x_min":-22,"x_max":942,"o":"m 450 1021 l 471 1021 l 942 0 l 767 0 l 460 701 l 154 0 l -22 0 l 450 1021 z "},"W":{"ha":1365,"x_min":-11,"x_max":1376,"o":"m 688 1026 l 967 364 l 1211 1021 l 1376 1021 l 979 0 l 960 0 l 682 661 l 406 1 l 386 1 l -11 1021 l 154 1021 l 399 364 l 679 1026 l 688 1026 z "},"Ẃ":{"ha":1365,"x_min":-11,"x_max":1376,"o":"m 688 1026 l 967 364 l 1211 1021 l 1376 1021 l 979 0 l 960 0 l 682 661 l 406 1 l 386 1 l -11 1021 l 154 1021 l 399 364 l 679 1026 l 688 1026 m 629 1099 l 569 1190 l 842 1397 l 925 1282 l 629 1099 z "},"Ŵ":{"ha":1365,"x_min":-11,"x_max":1376,"o":"m 688 1026 l 967 364 l 1211 1021 l 1376 1021 l 979 0 l 960 0 l 682 661 l 406 1 l 386 1 l -11 1021 l 154 1021 l 399 364 l 679 1026 l 688 1026 m 496 1101 l 419 1176 l 683 1390 l 946 1176 l 871 1101 l 683 1222 l 496 1101 z "},"Ẅ":{"ha":1365,"x_min":-11,"x_max":1376,"o":"m 688 1026 l 967 364 l 1211 1021 l 1376 1021 l 979 0 l 960 0 l 682 661 l 406 1 l 386 1 l -11 1021 l 154 1021 l 399 364 l 679 1026 l 688 1026 m 850 1125 q 779 1154 808 1125 q 750 1224 750 1183 q 778 1294 750 1265 q 850 1322 807 1322 q 922 1294 893 1322 q 951 1224 951 1265 q 922 1154 951 1183 q 850 1125 893 1125 m 515 1125 q 444 1154 474 1125 q 415 1224 415 1183 q 444 1294 415 1265 q 515 1322 472 1322 q 588 1294 560 1322 q 615 1224 615 1265 q 587 1154 615 1183 q 515 1125 558 1125 z "},"Ẇ":{"ha":1365,"x_min":-11,"x_max":1376,"o":"m 688 1026 l 967 364 l 1211 1021 l 1376 1021 l 979 0 l 960 0 l 682 661 l 406 1 l 386 1 l -11 1021 l 154 1021 l 399 364 l 679 1026 l 688 1026 m 683 1136 q 612 1165 640 1136 q 583 1235 583 1193 q 612 1306 583 1278 q 683 1335 640 1335 q 755 1306 726 1335 q 783 1235 783 1278 q 754 1165 783 1193 q 683 1136 725 1136 z "},"Ẉ":{"ha":1365,"x_min":-11,"x_max":1376,"o":"m 688 1026 l 967 364 l 1211 1021 l 1376 1021 l 979 0 l 960 0 l 682 661 l 406 1 l 386 1 l -11 1021 l 154 1021 l 399 364 l 679 1026 l 688 1026 m 683 -303 q 611 -274 640 -303 q 582 -201 582 -244 q 611 -135 582 -162 q 683 -107 640 -107 q 755 -135 726 -107 q 783 -201 783 -162 q 755 -274 783 -244 q 683 -303 726 -303 z "},"Ẁ":{"ha":1365,"x_min":-11,"x_max":1376,"o":"m 688 1026 l 967 364 l 1211 1021 l 1376 1021 l 979 0 l 960 0 l 682 661 l 406 1 l 386 1 l -11 1021 l 154 1021 l 399 364 l 679 1026 l 688 1026 m 738 1099 l 442 1282 l 525 1397 l 797 1190 l 738 1099 z "},"X":{"ha":838,"x_min":14,"x_max":824,"o":"m 14 0 l 326 532 l 32 1021 l 219 1021 l 413 664 l 611 1021 l 794 1021 l 499 535 l 824 0 l 639 0 l 414 404 l 193 0 l 14 0 z "},"Ẍ":{"ha":838,"x_min":14,"x_max":824,"o":"m 14 0 l 326 532 l 32 1021 l 219 1021 l 413 664 l 611 1021 l 794 1021 l 499 535 l 824 0 l 639 0 l 414 404 l 193 0 l 14 0 m 586 1125 q 515 1154 544 1125 q 486 1224 486 1183 q 515 1294 486 1265 q 586 1322 543 1322 q 658 1294 629 1322 q 688 1224 688 1265 q 658 1154 688 1183 q 586 1125 629 1125 m 251 1125 q 181 1154 210 1125 q 151 1224 151 1183 q 180 1294 151 1265 q 251 1322 208 1322 q 324 1294 296 1322 q 351 1224 351 1265 q 323 1154 351 1183 q 251 1125 294 1125 z "},"Ẋ":{"ha":838,"x_min":14,"x_max":824,"o":"m 14 0 l 326 532 l 32 1021 l 219 1021 l 413 664 l 611 1021 l 794 1021 l 499 535 l 824 0 l 639 0 l 414 404 l 193 0 l 14 0 m 419 1136 q 348 1165 376 1136 q 319 1235 319 1193 q 348 1306 319 1278 q 419 1335 376 1335 q 491 1306 463 1335 q 519 1235 519 1278 q 490 1165 519 1193 q 419 1136 461 1136 z "},"Y":{"ha":818,"x_min":-22,"x_max":840,"o":"m 332 0 l 332 476 l -22 1021 l 164 1021 l 410 618 l 656 1021 l 840 1021 l 488 474 l 488 0 l 332 0 z "},"Ý":{"ha":818,"x_min":-22,"x_max":840,"o":"m 332 0 l 332 476 l -22 1021 l 164 1021 l 410 618 l 656 1021 l 840 1021 l 488 474 l 488 0 l 332 0 m 356 1099 l 296 1190 l 568 1397 l 651 1282 l 356 1099 z "},"Ŷ":{"ha":818,"x_min":-22,"x_max":840,"o":"m 332 0 l 332 476 l -22 1021 l 164 1021 l 410 618 l 656 1021 l 840 1021 l 488 474 l 488 0 l 332 0 m 222 1101 l 146 1176 l 410 1390 l 672 1176 l 597 1101 l 410 1222 l 222 1101 z "},"Ÿ":{"ha":818,"x_min":-22,"x_max":840,"o":"m 332 0 l 332 476 l -22 1021 l 164 1021 l 410 618 l 656 1021 l 840 1021 l 488 474 l 488 0 l 332 0 m 576 1125 q 506 1154 535 1125 q 476 1224 476 1183 q 505 1294 476 1265 q 576 1322 533 1322 q 649 1294 619 1322 q 678 1224 678 1265 q 649 1154 678 1183 q 576 1125 619 1125 m 242 1125 q 171 1154 200 1125 q 142 1224 142 1183 q 170 1294 142 1265 q 242 1322 199 1322 q 314 1294 286 1322 q 342 1224 342 1265 q 313 1154 342 1183 q 242 1125 285 1125 z "},"Ẏ":{"ha":818,"x_min":-22,"x_max":840,"o":"m 332 0 l 332 476 l -22 1021 l 164 1021 l 410 618 l 656 1021 l 840 1021 l 488 474 l 488 0 l 332 0 m 410 1136 q 338 1165 367 1136 q 310 1235 310 1193 q 338 1306 310 1278 q 410 1335 367 1335 q 481 1306 453 1335 q 510 1235 510 1278 q 481 1165 510 1193 q 410 1136 451 1136 z "},"Ỵ":{"ha":818,"x_min":-22,"x_max":840,"o":"m 332 0 l 332 476 l -22 1021 l 164 1021 l 410 618 l 656 1021 l 840 1021 l 488 474 l 488 0 l 332 0 m 410 -303 q 338 -274 367 -303 q 308 -201 308 -244 q 338 -135 308 -162 q 410 -107 367 -107 q 481 -135 453 -107 q 510 -201 510 -162 q 481 -274 510 -244 q 410 -303 453 -303 z "},"Ỳ":{"ha":818,"x_min":-22,"x_max":840,"o":"m 332 0 l 332 476 l -22 1021 l 164 1021 l 410 618 l 656 1021 l 840 1021 l 488 474 l 488 0 l 332 0 m 464 1099 l 168 1282 l 251 1397 l 524 1190 l 464 1099 z "},"Ƴ":{"ha":935,"x_min":-22,"x_max":935,"o":"m 332 0 l 332 476 l -22 1021 l 164 1021 l 410 618 l 572 883 q 618 950 590 913 q 692 1015 646 988 q 813 1042 739 1042 q 895 1031 865 1042 q 935 1015 925 1019 l 906 874 q 878 894 899 882 q 831 906 858 906 q 742 864 779 906 q 664 757 704 822 l 488 474 l 488 0 l 332 0 z "},"Ỷ":{"ha":818,"x_min":-22,"x_max":840,"o":"m 332 0 l 332 476 l -22 1021 l 164 1021 l 410 618 l 656 1021 l 840 1021 l 488 474 l 488 0 l 332 0 m 425 1100 q 381 1101 399 1100 q 342 1108 364 1103 l 318 1196 q 360 1192 338 1192 q 407 1197 382 1192 q 450 1217 432 1203 q 468 1257 468 1231 q 385 1306 468 1306 q 322 1298 344 1306 q 272 1276 300 1290 l 243 1363 q 298 1397 258 1378 q 404 1415 338 1415 q 488 1402 443 1415 q 564 1354 532 1389 q 596 1257 596 1319 q 576 1185 596 1221 q 518 1124 556 1149 q 425 1100 481 1100 z "},"Ȳ":{"ha":818,"x_min":-22,"x_max":840,"o":"m 332 0 l 332 476 l -22 1021 l 164 1021 l 410 618 l 656 1021 l 840 1021 l 488 474 l 488 0 l 332 0 m 175 1147 l 175 1263 l 644 1263 l 644 1147 l 175 1147 z "},"Ỹ":{"ha":818,"x_min":-22,"x_max":840,"o":"m 332 0 l 332 476 l -22 1021 l 164 1021 l 410 618 l 656 1021 l 840 1021 l 488 474 l 488 0 l 332 0 m 503 1133 q 434 1147 460 1133 q 389 1177 408 1160 q 349 1208 369 1194 q 297 1221 329 1221 q 258 1203 271 1221 q 225 1142 244 1185 l 165 1235 q 221 1316 176 1281 q 318 1351 265 1351 q 392 1338 364 1351 q 438 1307 419 1325 q 474 1276 456 1289 q 518 1263 492 1263 q 568 1277 546 1263 q 604 1326 590 1292 l 657 1246 q 603 1164 650 1194 q 503 1133 556 1133 z "},"Z":{"ha":806,"x_min":11,"x_max":767,"o":"m 11 0 l 522 888 l 76 888 l 76 1021 l 767 1021 l 263 136 l 746 136 l 746 0 l 11 0 z "},"Ź":{"ha":806,"x_min":11,"x_max":767,"o":"m 11 0 l 522 888 l 76 888 l 76 1021 l 767 1021 l 263 136 l 746 136 l 746 0 l 11 0 m 353 1085 l 293 1176 l 565 1383 l 649 1268 l 353 1085 z "},"Ž":{"ha":806,"x_min":11,"x_max":767,"o":"m 11 0 l 522 888 l 76 888 l 76 1021 l 767 1021 l 263 136 l 746 136 l 746 0 l 11 0 m 407 1076 l 143 1290 l 219 1365 l 407 1244 l 594 1365 l 669 1290 l 407 1076 z "},"Ẑ":{"ha":806,"x_min":11,"x_max":767,"o":"m 11 0 l 522 888 l 76 888 l 76 1021 l 767 1021 l 263 136 l 746 136 l 746 0 l 11 0 m 219 1088 l 143 1163 l 407 1376 l 669 1163 l 594 1088 l 407 1208 l 219 1088 z "},"Ż":{"ha":806,"x_min":11,"x_max":767,"o":"m 11 0 l 522 888 l 76 888 l 76 1021 l 767 1021 l 263 136 l 746 136 l 746 0 l 11 0 m 407 1122 q 335 1151 364 1122 q 307 1221 307 1179 q 335 1292 307 1264 q 407 1321 364 1321 q 478 1292 450 1321 q 507 1221 507 1264 q 478 1151 507 1179 q 407 1122 449 1122 z "},"Ẓ":{"ha":806,"x_min":11,"x_max":767,"o":"m 11 0 l 522 888 l 76 888 l 76 1021 l 767 1021 l 263 136 l 746 136 l 746 0 l 11 0 m 403 -303 q 331 -274 360 -303 q 301 -201 301 -244 q 331 -135 301 -162 q 403 -107 360 -107 q 474 -135 446 -107 q 503 -201 503 -162 q 474 -274 503 -244 q 403 -303 446 -303 z "},"Ẕ":{"ha":806,"x_min":11,"x_max":767,"o":"m 11 0 l 522 888 l 76 888 l 76 1021 l 767 1021 l 263 136 l 746 136 l 746 0 l 11 0 m 168 -228 l 168 -112 l 638 -112 l 638 -228 l 168 -228 z "},"Ꞌ":{"ha":408,"x_min":126,"x_max":282,"o":"m 126 474 l 126 1021 l 282 1021 l 282 474 l 126 474 z "},"a":{"ha":854,"x_min":61,"x_max":751,"o":"m 381 -14 q 223 26 296 -14 q 106 142 150 67 q 61 321 61 217 q 99 496 61 421 q 208 613 138 571 q 375 654 278 654 q 481 634 433 654 q 562 585 529 614 q 606 531 594 557 l 608 638 l 751 638 l 751 0 l 610 0 l 607 113 q 560 53 593 82 q 482 5 528 24 q 381 -14 436 -14 m 406 111 q 499 135 457 111 q 567 204 542 160 q 593 310 593 249 l 593 319 q 567 428 593 382 q 499 501 542 475 q 406 526 457 526 q 266 467 313 526 q 219 319 219 407 q 266 171 219 231 q 406 111 313 111 z "},"á":{"ha":854,"x_min":61,"x_max":751,"o":"m 381 -14 q 223 26 296 -14 q 106 142 150 67 q 61 321 61 217 q 99 496 61 421 q 208 613 138 571 q 375 654 278 654 q 481 634 433 654 q 562 585 529 614 q 606 531 594 557 l 608 638 l 751 638 l 751 0 l 610 0 l 607 113 q 560 53 593 82 q 482 5 528 24 q 381 -14 436 -14 m 406 111 q 499 135 457 111 q 567 204 542 160 q 593 310 593 249 l 593 319 q 567 428 593 382 q 499 501 542 475 q 406 526 457 526 q 266 467 313 526 q 219 319 219 407 q 266 171 219 231 q 406 111 313 111 m 406 743 l 304 800 l 517 1118 l 649 1033 l 406 743 z "},"ă":{"ha":854,"x_min":61,"x_max":751,"o":"m 381 -14 q 223 26 296 -14 q 106 142 150 67 q 61 321 61 217 q 99 496 61 421 q 208 613 138 571 q 375 654 278 654 q 481 634 433 654 q 562 585 529 614 q 606 531 594 557 l 608 638 l 751 638 l 751 0 l 610 0 l 607 113 q 560 53 593 82 q 482 5 528 24 q 381 -14 436 -14 m 406 111 q 499 135 457 111 q 567 204 542 160 q 593 310 593 249 l 593 319 q 567 428 593 382 q 499 501 542 475 q 406 526 457 526 q 266 467 313 526 q 219 319 219 407 q 266 171 219 231 q 406 111 313 111 m 407 749 q 222 819 288 749 q 156 996 156 889 l 289 996 q 299 936 289 965 q 336 888 310 907 q 407 869 363 869 q 495 910 464 869 q 526 996 526 950 l 658 996 q 592 819 658 889 q 407 749 525 749 z "},"ắ":{"ha":854,"x_min":61,"x_max":751,"o":"m 381 -14 q 223 26 296 -14 q 106 142 150 67 q 61 321 61 217 q 99 496 61 421 q 208 613 138 571 q 375 654 278 654 q 481 634 433 654 q 562 585 529 614 q 606 531 594 557 l 608 638 l 751 638 l 751 0 l 610 0 l 607 113 q 560 53 593 82 q 482 5 528 24 q 381 -14 436 -14 m 406 111 q 499 135 457 111 q 567 204 542 160 q 593 310 593 249 l 593 319 q 567 428 593 382 q 499 501 542 475 q 406 526 457 526 q 266 467 313 526 q 219 319 219 407 q 266 171 219 231 q 406 111 313 111 m 449 981 l 347 1032 l 513 1268 l 631 1197 l 449 981 m 407 714 q 236 778 297 714 q 175 942 175 843 l 299 942 q 322 862 299 899 q 407 825 344 825 q 488 862 460 825 q 517 942 517 899 l 639 942 q 577 778 639 843 q 407 714 515 714 z "},"ặ":{"ha":854,"x_min":61,"x_max":751,"o":"m 381 -14 q 223 26 296 -14 q 106 142 150 67 q 61 321 61 217 q 99 496 61 421 q 208 613 138 571 q 375 654 278 654 q 481 634 433 654 q 562 585 529 614 q 606 531 594 557 l 608 638 l 751 638 l 751 0 l 610 0 l 607 113 q 560 53 593 82 q 482 5 528 24 q 381 -14 436 -14 m 406 111 q 499 135 457 111 q 567 204 542 160 q 593 310 593 249 l 593 319 q 567 428 593 382 q 499 501 542 475 q 406 526 457 526 q 266 467 313 526 q 219 319 219 407 q 266 171 219 231 q 406 111 313 111 m 413 -303 q 340 -274 369 -303 q 311 -201 311 -244 q 340 -135 311 -162 q 413 -107 369 -107 q 483 -135 456 -107 q 511 -201 511 -162 q 483 -274 511 -244 q 413 -303 456 -303 m 407 749 q 222 819 288 749 q 156 996 156 889 l 289 996 q 299 936 289 965 q 336 888 310 907 q 407 869 363 869 q 495 910 464 869 q 526 996 526 950 l 658 996 q 592 819 658 889 q 407 749 525 749 z "},"ằ":{"ha":854,"x_min":61,"x_max":751,"o":"m 381 -14 q 223 26 296 -14 q 106 142 150 67 q 61 321 61 217 q 99 496 61 421 q 208 613 138 571 q 375 654 278 654 q 481 634 433 654 q 562 585 529 614 q 606 531 594 557 l 608 638 l 751 638 l 751 0 l 610 0 l 607 113 q 560 53 593 82 q 482 5 528 24 q 381 -14 436 -14 m 406 111 q 499 135 457 111 q 567 204 542 160 q 593 310 593 249 l 593 319 q 567 428 593 382 q 499 501 542 475 q 406 526 457 526 q 266 467 313 526 q 219 319 219 407 q 266 171 219 231 q 406 111 313 111 m 421 981 l 239 1197 l 357 1268 l 522 1032 l 421 981 m 407 714 q 236 778 297 714 q 175 942 175 843 l 299 942 q 322 862 299 899 q 407 825 344 825 q 488 862 460 825 q 517 942 517 899 l 639 942 q 577 778 639 843 q 407 714 515 714 z "},"ẳ":{"ha":854,"x_min":61,"x_max":751,"o":"m 381 -14 q 223 26 296 -14 q 106 142 150 67 q 61 321 61 217 q 99 496 61 421 q 208 613 138 571 q 375 654 278 654 q 481 634 433 654 q 562 585 529 614 q 606 531 594 557 l 608 638 l 751 638 l 751 0 l 610 0 l 607 113 q 560 53 593 82 q 482 5 528 24 q 381 -14 436 -14 m 406 111 q 499 135 457 111 q 567 204 542 160 q 593 310 593 249 l 593 319 q 567 428 593 382 q 499 501 542 475 q 406 526 457 526 q 266 467 313 526 q 219 319 219 407 q 266 171 219 231 q 406 111 313 111 m 422 999 q 381 999 397 999 q 344 1006 365 1000 l 324 1074 q 342 1072 332 1072 q 361 1071 351 1071 q 419 1083 392 1071 q 447 1132 447 1096 q 426 1170 447 1153 q 367 1188 404 1188 q 326 1181 347 1188 q 281 1161 306 1174 l 254 1240 q 313 1272 269 1254 q 403 1289 356 1289 q 480 1277 439 1289 q 550 1233 521 1265 q 579 1143 579 1201 q 561 1076 579 1110 q 508 1021 543 1043 q 422 999 472 999 m 407 714 q 236 778 297 714 q 175 942 175 843 l 299 942 q 322 862 299 899 q 407 825 344 825 q 488 863 460 825 q 517 942 517 901 l 639 942 q 577 778 639 843 q 407 714 515 714 z "},"ẵ":{"ha":854,"x_min":61,"x_max":751,"o":"m 381 -14 q 223 26 296 -14 q 106 142 150 67 q 61 321 61 217 q 99 496 61 421 q 208 613 138 571 q 375 654 278 654 q 481 634 433 654 q 562 585 529 614 q 606 531 594 557 l 608 638 l 751 638 l 751 0 l 610 0 l 607 113 q 560 53 593 82 q 482 5 528 24 q 381 -14 436 -14 m 406 111 q 499 135 457 111 q 567 204 542 160 q 593 310 593 249 l 593 319 q 567 428 593 382 q 499 501 542 475 q 406 526 457 526 q 266 467 313 526 q 219 319 219 407 q 266 171 219 231 q 406 111 313 111 m 486 1035 q 426 1046 449 1035 q 390 1072 404 1057 q 360 1097 375 1086 q 324 1108 346 1108 q 278 1093 303 1108 q 236 1042 253 1078 l 183 1114 q 208 1159 190 1135 q 256 1201 226 1183 q 326 1219 286 1219 q 388 1208 365 1219 q 426 1182 411 1197 q 455 1156 440 1167 q 492 1144 469 1144 q 536 1160 511 1144 q 578 1214 561 1175 l 631 1139 q 585 1069 622 1104 q 486 1035 547 1035 m 407 714 q 236 778 297 714 q 175 942 175 843 l 299 942 q 322 862 299 899 q 407 825 344 825 q 488 863 460 825 q 517 942 517 901 l 639 942 q 577 778 639 843 q 407 714 515 714 z "},"ǎ":{"ha":854,"x_min":61,"x_max":751,"o":"m 381 -14 q 223 26 296 -14 q 106 142 150 67 q 61 321 61 217 q 99 496 61 421 q 208 613 138 571 q 375 654 278 654 q 481 634 433 654 q 562 585 529 614 q 606 531 594 557 l 608 638 l 751 638 l 751 0 l 610 0 l 607 113 q 560 53 593 82 q 482 5 528 24 q 381 -14 436 -14 m 406 111 q 499 135 457 111 q 567 204 542 160 q 593 310 593 249 l 593 319 q 567 428 593 382 q 499 501 542 475 q 406 526 457 526 q 266 467 313 526 q 219 319 219 407 q 266 171 219 231 q 406 111 313 111 m 407 729 l 158 1029 l 249 1104 l 407 897 l 567 1104 l 656 1029 l 407 729 z "},"â":{"ha":854,"x_min":61,"x_max":751,"o":"m 381 -14 q 223 26 296 -14 q 106 142 150 67 q 61 321 61 217 q 99 496 61 421 q 208 613 138 571 q 375 654 278 654 q 481 634 433 654 q 562 585 529 614 q 606 531 594 557 l 608 638 l 751 638 l 751 0 l 610 0 l 607 113 q 560 53 593 82 q 482 5 528 24 q 381 -14 436 -14 m 406 111 q 499 135 457 111 q 567 204 542 160 q 593 310 593 249 l 593 319 q 567 428 593 382 q 499 501 542 475 q 406 526 457 526 q 266 467 313 526 q 219 319 219 407 q 266 171 219 231 q 406 111 313 111 m 249 743 l 158 818 l 407 1104 l 656 818 l 567 743 l 407 936 l 249 743 z "},"ấ":{"ha":854,"x_min":61,"x_max":751,"o":"m 381 -14 q 223 26 296 -14 q 106 142 150 67 q 61 321 61 217 q 99 496 61 421 q 208 613 138 571 q 375 654 278 654 q 481 634 433 654 q 562 585 529 614 q 606 531 594 557 l 608 638 l 751 638 l 751 0 l 610 0 l 607 113 q 560 53 593 82 q 482 5 528 24 q 381 -14 436 -14 m 406 111 q 499 135 457 111 q 567 204 542 160 q 593 310 593 249 l 593 319 q 567 428 593 382 q 499 501 542 475 q 406 526 457 526 q 266 467 313 526 q 219 319 219 407 q 266 171 219 231 q 406 111 313 111 m 569 1039 l 468 1090 l 633 1326 l 751 1256 l 569 1039 m 235 768 l 164 839 l 407 1047 l 649 839 l 579 768 l 407 892 l 235 768 z "},"ậ":{"ha":854,"x_min":61,"x_max":751,"o":"m 381 -14 q 223 26 296 -14 q 106 142 150 67 q 61 321 61 217 q 99 496 61 421 q 208 613 138 571 q 375 654 278 654 q 481 634 433 654 q 562 585 529 614 q 606 531 594 557 l 608 638 l 751 638 l 751 0 l 610 0 l 607 113 q 560 53 593 82 q 482 5 528 24 q 381 -14 436 -14 m 406 111 q 499 135 457 111 q 567 204 542 160 q 593 310 593 249 l 593 319 q 567 428 593 382 q 499 501 542 475 q 406 526 457 526 q 266 467 313 526 q 219 319 219 407 q 266 171 219 231 q 406 111 313 111 m 413 -303 q 340 -274 369 -303 q 311 -201 311 -244 q 340 -135 311 -162 q 413 -107 369 -107 q 483 -135 456 -107 q 511 -201 511 -162 q 483 -274 511 -244 q 413 -303 456 -303 m 249 743 l 158 818 l 407 1104 l 656 818 l 567 743 l 407 936 l 249 743 z "},"ầ":{"ha":854,"x_min":61,"x_max":751,"o":"m 381 -14 q 223 26 296 -14 q 106 142 150 67 q 61 321 61 217 q 99 496 61 421 q 208 613 138 571 q 375 654 278 654 q 481 634 433 654 q 562 585 529 614 q 606 531 594 557 l 608 638 l 751 638 l 751 0 l 610 0 l 607 113 q 560 53 593 82 q 482 5 528 24 q 381 -14 436 -14 m 406 111 q 499 135 457 111 q 567 204 542 160 q 593 310 593 249 l 593 319 q 567 428 593 382 q 499 501 542 475 q 406 526 457 526 q 266 467 313 526 q 219 319 219 407 q 266 171 219 231 q 406 111 313 111 m 601 1054 l 419 1271 l 538 1342 l 703 1106 l 601 1054 m 239 783 l 168 854 l 411 1063 l 653 854 l 583 783 l 411 907 l 239 783 z "},"ẩ":{"ha":854,"x_min":61,"x_max":751,"o":"m 381 -14 q 223 26 296 -14 q 106 142 150 67 q 61 321 61 217 q 99 496 61 421 q 208 613 138 571 q 375 654 278 654 q 481 634 433 654 q 562 585 529 614 q 606 531 594 557 l 608 638 l 751 638 l 751 0 l 610 0 l 607 113 q 560 53 593 82 q 482 5 528 24 q 381 -14 436 -14 m 406 111 q 499 135 457 111 q 567 204 542 160 q 593 310 593 249 l 593 319 q 567 428 593 382 q 499 501 542 475 q 406 526 457 526 q 266 467 313 526 q 219 319 219 407 q 266 171 219 231 q 406 111 313 111 m 418 1099 q 377 1099 393 1099 q 340 1106 361 1100 l 319 1174 q 338 1172 328 1172 q 357 1171 347 1171 q 415 1183 388 1171 q 443 1232 443 1196 q 422 1270 443 1253 q 363 1288 400 1288 q 322 1281 343 1288 q 276 1261 301 1274 l 250 1340 q 308 1372 265 1354 q 399 1389 351 1389 q 476 1377 435 1389 q 546 1333 517 1365 q 575 1243 575 1301 q 557 1176 575 1210 q 503 1121 539 1143 q 418 1099 468 1099 m 235 768 l 164 839 l 407 1047 l 649 839 l 579 768 l 407 892 l 235 768 z "},"ẫ":{"ha":854,"x_min":61,"x_max":751,"o":"m 381 -14 q 223 26 296 -14 q 106 142 150 67 q 61 321 61 217 q 99 496 61 421 q 208 613 138 571 q 375 654 278 654 q 481 634 433 654 q 562 585 529 614 q 606 531 594 557 l 608 638 l 751 638 l 751 0 l 610 0 l 607 113 q 560 53 593 82 q 482 5 528 24 q 381 -14 436 -14 m 406 111 q 499 135 457 111 q 567 204 542 160 q 593 310 593 249 l 593 319 q 567 428 593 382 q 499 501 542 475 q 406 526 457 526 q 266 467 313 526 q 219 319 219 407 q 266 171 219 231 q 406 111 313 111 m 486 1096 q 426 1107 449 1096 q 390 1133 404 1118 q 360 1158 375 1147 q 324 1169 346 1169 q 278 1154 303 1169 q 236 1103 253 1139 l 183 1175 q 208 1220 190 1196 q 256 1263 226 1244 q 326 1281 286 1281 q 388 1269 365 1281 q 426 1243 411 1258 q 455 1217 440 1228 q 492 1206 469 1206 q 536 1221 511 1206 q 578 1275 561 1236 l 631 1200 q 585 1131 622 1165 q 486 1096 547 1096 m 239 768 l 168 839 l 411 1047 l 653 839 l 583 768 l 411 892 l 239 768 z "},"ȁ":{"ha":854,"x_min":47,"x_max":751,"o":"m 381 -14 q 223 26 296 -14 q 106 142 150 67 q 61 321 61 217 q 99 496 61 421 q 208 613 138 571 q 375 654 278 654 q 481 634 433 654 q 562 585 529 614 q 606 531 594 557 l 608 638 l 751 638 l 751 0 l 610 0 l 607 113 q 560 53 593 82 q 482 5 528 24 q 381 -14 436 -14 m 406 111 q 499 135 457 111 q 567 204 542 160 q 593 310 593 249 l 593 319 q 567 428 593 382 q 499 501 542 475 q 406 526 457 526 q 266 467 313 526 q 219 319 219 407 q 266 171 219 231 q 406 111 313 111 m 528 739 l 350 1029 l 482 1097 l 624 782 l 528 739 m 239 739 l 47 1028 l 179 1096 l 335 782 l 239 739 z "},"ä":{"ha":854,"x_min":61,"x_max":751,"o":"m 381 -14 q 223 26 296 -14 q 106 142 150 67 q 61 321 61 217 q 99 496 61 421 q 208 613 138 571 q 375 654 278 654 q 481 634 433 654 q 562 585 529 614 q 606 531 594 557 l 608 638 l 751 638 l 751 0 l 610 0 l 607 113 q 560 53 593 82 q 482 5 528 24 q 381 -14 436 -14 m 406 111 q 499 135 457 111 q 567 204 542 160 q 593 310 593 249 l 593 319 q 567 428 593 382 q 499 501 542 475 q 406 526 457 526 q 266 467 313 526 q 219 319 219 407 q 266 171 219 231 q 406 111 313 111 m 574 757 q 503 786 532 757 q 474 857 474 815 q 502 926 474 897 q 574 956 531 956 q 646 926 617 956 q 675 857 675 897 q 646 786 675 815 q 574 757 617 757 m 239 757 q 168 786 197 757 q 139 857 139 815 q 167 926 139 897 q 239 956 196 956 q 311 926 283 956 q 339 857 339 897 q 310 786 339 815 q 239 757 282 757 z "},"ǟ":{"ha":854,"x_min":61,"x_max":751,"o":"m 381 -14 q 223 26 296 -14 q 106 142 150 67 q 61 321 61 217 q 99 496 61 421 q 208 613 138 571 q 375 654 278 654 q 481 634 433 654 q 562 585 529 614 q 606 531 594 557 l 608 638 l 751 638 l 751 0 l 610 0 l 607 113 q 560 53 593 82 q 482 5 528 24 q 381 -14 436 -14 m 406 111 q 499 135 457 111 q 567 204 542 160 q 593 310 593 249 l 593 319 q 567 428 593 382 q 499 501 542 475 q 406 526 457 526 q 266 467 313 526 q 219 319 219 407 q 266 171 219 231 q 406 111 313 111 m 574 757 q 503 786 532 757 q 474 857 474 815 q 502 926 474 897 q 574 956 531 956 q 646 926 617 956 q 675 857 675 897 q 646 786 675 815 q 574 757 617 757 m 239 757 q 168 786 197 757 q 139 857 139 815 q 167 926 139 897 q 239 956 196 956 q 311 926 283 956 q 339 857 339 897 q 310 786 339 815 q 239 757 282 757 m 175 1056 l 175 1169 l 647 1169 l 647 1056 l 175 1056 z "},"ȧ":{"ha":854,"x_min":61,"x_max":751,"o":"m 381 -14 q 223 26 296 -14 q 106 142 150 67 q 61 321 61 217 q 99 496 61 421 q 208 613 138 571 q 375 654 278 654 q 481 634 433 654 q 562 585 529 614 q 606 531 594 557 l 608 638 l 751 638 l 751 0 l 610 0 l 607 113 q 560 53 593 82 q 482 5 528 24 q 381 -14 436 -14 m 406 111 q 499 135 457 111 q 567 204 542 160 q 593 310 593 249 l 593 319 q 567 428 593 382 q 499 501 542 475 q 406 526 457 526 q 266 467 313 526 q 219 319 219 407 q 266 171 219 231 q 406 111 313 111 m 407 757 q 335 786 364 757 q 307 858 307 815 q 335 925 307 897 q 407 953 364 953 q 478 925 450 953 q 507 858 507 897 q 478 786 507 815 q 407 757 450 757 z "},"ạ":{"ha":854,"x_min":61,"x_max":751,"o":"m 381 -14 q 223 26 296 -14 q 106 142 150 67 q 61 321 61 217 q 99 496 61 421 q 208 613 138 571 q 375 654 278 654 q 481 634 433 654 q 562 585 529 614 q 606 531 594 557 l 608 638 l 751 638 l 751 0 l 610 0 l 607 113 q 560 53 593 82 q 482 5 528 24 q 381 -14 436 -14 m 406 111 q 499 135 457 111 q 567 204 542 160 q 593 310 593 249 l 593 319 q 567 428 593 382 q 499 501 542 475 q 406 526 457 526 q 266 467 313 526 q 219 319 219 407 q 266 171 219 231 q 406 111 313 111 m 413 -303 q 340 -274 369 -303 q 311 -201 311 -244 q 340 -135 311 -162 q 413 -107 369 -107 q 483 -135 456 -107 q 511 -201 511 -162 q 483 -274 511 -244 q 413 -303 456 -303 z "},"ǡ":{"ha":854,"x_min":61,"x_max":751,"o":"m 381 -14 q 223 26 296 -14 q 106 142 150 67 q 61 321 61 217 q 99 496 61 421 q 208 613 138 571 q 375 654 278 654 q 481 634 433 654 q 562 585 529 614 q 606 531 594 557 l 608 638 l 751 638 l 751 0 l 610 0 l 607 113 q 560 53 593 82 q 482 5 528 24 q 381 -14 436 -14 m 406 111 q 499 135 457 111 q 567 204 542 160 q 593 310 593 249 l 593 319 q 567 428 593 382 q 499 501 542 475 q 406 526 457 526 q 266 467 313 526 q 219 319 219 407 q 266 171 219 231 q 406 111 313 111 m 407 757 q 335 786 364 757 q 307 858 307 815 q 335 925 307 897 q 407 953 364 953 q 478 925 450 953 q 507 858 507 897 q 478 786 507 815 q 407 757 450 757 m 175 1031 l 175 1144 l 647 1144 l 647 1031 l 175 1031 z "},"à":{"ha":854,"x_min":61,"x_max":751,"o":"m 381 -14 q 223 26 296 -14 q 106 142 150 67 q 61 321 61 217 q 99 496 61 421 q 208 613 138 571 q 375 654 278 654 q 481 634 433 654 q 562 585 529 614 q 606 531 594 557 l 608 638 l 751 638 l 751 0 l 610 0 l 607 113 q 560 53 593 82 q 482 5 528 24 q 381 -14 436 -14 m 406 111 q 499 135 457 111 q 567 204 542 160 q 593 310 593 249 l 593 319 q 567 428 593 382 q 499 501 542 475 q 406 526 457 526 q 266 467 313 526 q 219 319 219 407 q 266 171 219 231 q 406 111 313 111 m 411 751 l 168 1042 l 300 1126 l 513 808 l 411 751 z "},"ả":{"ha":854,"x_min":61,"x_max":751,"o":"m 381 -14 q 223 26 296 -14 q 106 142 150 67 q 61 321 61 217 q 99 496 61 421 q 208 613 138 571 q 375 654 278 654 q 481 634 433 654 q 562 585 529 614 q 606 531 594 557 l 608 638 l 751 638 l 751 0 l 610 0 l 607 113 q 560 53 593 82 q 482 5 528 24 q 381 -14 436 -14 m 406 111 q 499 135 457 111 q 567 204 542 160 q 593 310 593 249 l 593 319 q 567 428 593 382 q 499 501 542 475 q 406 526 457 526 q 266 467 313 526 q 219 319 219 407 q 266 171 219 231 q 406 111 313 111 m 404 754 q 365 756 378 754 q 329 763 351 757 l 306 850 q 347 846 325 846 q 394 855 369 846 q 438 881 419 864 q 456 925 456 899 q 434 968 456 949 q 372 988 413 988 q 310 980 332 988 q 260 958 288 972 l 231 1044 q 285 1078 246 1060 q 392 1097 325 1097 q 475 1081 431 1097 q 551 1026 519 1064 q 583 925 583 988 q 561 849 583 889 q 499 782 539 810 q 404 754 460 754 z "},"ȃ":{"ha":854,"x_min":61,"x_max":751,"o":"m 381 -14 q 223 26 296 -14 q 106 142 150 67 q 61 321 61 217 q 99 496 61 421 q 208 613 138 571 q 375 654 278 654 q 481 634 433 654 q 562 585 529 614 q 606 531 594 557 l 608 638 l 751 638 l 751 0 l 610 0 l 607 113 q 560 53 593 82 q 482 5 528 24 q 381 -14 436 -14 m 406 111 q 499 135 457 111 q 567 204 542 160 q 593 310 593 249 l 593 319 q 567 428 593 382 q 499 501 542 475 q 406 526 457 526 q 266 467 313 526 q 219 319 219 407 q 266 171 219 231 q 406 111 313 111 m 156 767 q 222 944 156 874 q 407 1014 288 1014 q 592 944 525 1014 q 658 767 658 874 l 526 767 q 495 853 526 813 q 407 893 464 893 q 336 874 363 893 q 299 826 310 856 q 289 767 289 797 l 156 767 z "},"ā":{"ha":854,"x_min":61,"x_max":751,"o":"m 381 -14 q 223 26 296 -14 q 106 142 150 67 q 61 321 61 217 q 99 496 61 421 q 208 613 138 571 q 375 654 278 654 q 481 634 433 654 q 562 585 529 614 q 606 531 594 557 l 608 638 l 751 638 l 751 0 l 610 0 l 607 113 q 560 53 593 82 q 482 5 528 24 q 381 -14 436 -14 m 406 111 q 499 135 457 111 q 567 204 542 160 q 593 310 593 249 l 593 319 q 567 428 593 382 q 499 501 542 475 q 406 526 457 526 q 266 467 313 526 q 219 319 219 407 q 266 171 219 231 q 406 111 313 111 m 175 782 l 175 896 l 647 896 l 647 782 l 175 782 z "},"ą":{"ha":854,"x_min":61,"x_max":751,"o":"m 381 -14 q 223 26 296 -14 q 106 142 150 67 q 61 321 61 217 q 99 496 61 421 q 208 613 138 571 q 375 654 278 654 q 481 634 433 654 q 562 585 529 614 q 606 531 594 557 l 608 638 l 751 638 l 751 0 l 746 0 q 682 -27 715 -8 q 626 -75 649 -46 q 603 -149 603 -104 q 624 -204 603 -176 q 700 -232 646 -232 q 724 -231 710 -232 q 746 -229 739 -231 l 746 -344 q 715 -349 733 -346 q 678 -351 697 -351 q 527 -310 586 -351 q 468 -179 468 -269 q 493 -87 468 -126 q 551 -23 518 -49 q 610 17 585 3 l 607 113 q 560 53 593 82 q 482 5 528 24 q 381 -14 436 -14 m 406 111 q 499 135 457 111 q 567 204 542 160 q 593 310 593 249 l 593 319 q 567 428 593 382 q 499 501 542 475 q 406 526 457 526 q 266 467 313 526 q 219 319 219 407 q 266 171 219 231 q 406 111 313 111 z "},"å":{"ha":854,"x_min":61,"x_max":751,"o":"m 381 -14 q 223 26 296 -14 q 106 142 150 67 q 61 321 61 217 q 99 496 61 421 q 208 613 138 571 q 375 654 278 654 q 481 634 433 654 q 562 585 529 614 q 606 531 594 557 l 608 638 l 751 638 l 751 0 l 610 0 l 607 113 q 560 53 593 82 q 482 5 528 24 q 381 -14 436 -14 m 406 111 q 499 135 457 111 q 567 204 542 160 q 593 310 593 249 l 593 319 q 567 428 593 382 q 499 501 542 475 q 406 526 457 526 q 266 467 313 526 q 219 319 219 407 q 266 171 219 231 q 406 111 313 111 m 406 721 q 304 744 351 721 q 228 810 257 768 q 199 910 199 853 q 228 1009 199 967 q 304 1076 257 1051 q 406 1100 351 1100 q 508 1076 461 1100 q 585 1008 556 1051 q 614 910 614 965 q 585 811 614 854 q 508 744 556 768 q 406 721 461 721 m 406 822 q 463 846 439 822 q 488 910 488 869 q 464 974 488 950 q 406 997 440 997 q 349 974 372 997 q 326 910 326 950 q 350 846 326 869 q 406 822 374 822 z "},"ǻ":{"ha":854,"x_min":61,"x_max":751,"o":"m 381 -14 q 223 26 296 -14 q 106 142 150 67 q 61 321 61 217 q 99 496 61 421 q 208 613 138 571 q 375 654 278 654 q 481 634 433 654 q 562 585 529 614 q 606 531 594 557 l 608 638 l 751 638 l 751 0 l 610 0 l 607 113 q 560 53 593 82 q 482 5 528 24 q 381 -14 436 -14 m 406 111 q 499 135 457 111 q 567 204 542 160 q 593 310 593 249 l 593 319 q 567 428 593 382 q 499 501 542 475 q 406 526 457 526 q 266 467 313 526 q 219 319 219 407 q 266 171 219 231 q 406 111 313 111 m 406 721 q 304 744 351 721 q 228 810 257 768 q 199 910 199 853 q 228 1009 199 967 q 304 1076 257 1051 q 406 1100 351 1100 q 508 1076 461 1100 q 585 1008 556 1051 q 614 910 614 965 q 585 811 614 854 q 508 744 556 768 q 406 721 461 721 m 406 822 q 463 846 439 822 q 488 910 488 869 q 464 974 488 950 q 406 997 440 997 q 349 974 372 997 q 326 910 326 950 q 350 846 326 869 q 406 822 374 822 m 461 1039 l 360 1096 l 572 1414 l 704 1329 l 461 1039 z "},"ḁ":{"ha":854,"x_min":61,"x_max":751,"o":"m 381 -14 q 223 26 296 -14 q 106 142 150 67 q 61 321 61 217 q 99 496 61 421 q 208 613 138 571 q 375 654 278 654 q 481 634 433 654 q 562 585 529 614 q 606 531 594 557 l 608 638 l 751 638 l 751 0 l 610 0 l 607 113 q 560 53 593 82 q 482 5 528 24 q 381 -14 436 -14 m 406 111 q 499 135 457 111 q 567 204 542 160 q 593 310 593 249 l 593 319 q 567 428 593 382 q 499 501 542 475 q 406 526 457 526 q 266 467 313 526 q 219 319 219 407 q 266 171 219 231 q 406 111 313 111 m 410 -387 q 285 -342 338 -387 q 233 -219 233 -296 q 258 -133 233 -171 q 322 -73 282 -94 q 410 -51 363 -51 q 535 -99 483 -51 q 588 -219 588 -146 q 535 -341 588 -294 q 410 -387 483 -387 m 410 -297 q 461 -276 439 -297 q 483 -219 483 -256 q 462 -164 483 -185 q 410 -143 440 -143 q 360 -164 381 -143 q 339 -219 339 -185 q 360 -276 339 -256 q 410 -297 382 -297 z "},"ã":{"ha":854,"x_min":61,"x_max":751,"o":"m 381 -14 q 223 26 296 -14 q 106 142 150 67 q 61 321 61 217 q 99 496 61 421 q 208 613 138 571 q 375 654 278 654 q 481 634 433 654 q 562 585 529 614 q 606 531 594 557 l 608 638 l 751 638 l 751 0 l 610 0 l 607 113 q 560 53 593 82 q 482 5 528 24 q 381 -14 436 -14 m 406 111 q 499 135 457 111 q 567 204 542 160 q 593 310 593 249 l 593 319 q 567 428 593 382 q 499 501 542 475 q 406 526 457 526 q 266 467 313 526 q 219 319 219 407 q 266 171 219 231 q 406 111 313 111 m 496 756 q 427 770 450 756 q 386 804 404 785 q 356 832 372 821 q 311 843 339 843 q 265 825 289 843 q 221 764 240 807 l 157 861 q 183 911 164 885 q 233 956 201 938 q 308 974 265 974 q 377 959 353 974 q 419 925 401 944 q 454 896 436 907 q 499 885 472 885 q 548 903 521 885 q 593 967 575 922 l 657 868 q 630 821 653 847 q 573 775 607 794 q 496 756 539 756 z "},"æ":{"ha":1243,"x_min":61,"x_max":1185,"o":"m 353 -14 q 202 26 268 -14 q 99 142 136 67 q 61 321 61 217 q 98 496 61 421 q 200 613 135 571 q 347 654 265 654 q 493 608 435 654 q 578 494 551 561 l 581 638 l 694 638 l 694 543 q 784 626 731 599 q 894 654 838 654 q 1115 570 1046 654 q 1185 344 1185 486 q 1181 267 1185 307 l 722 267 q 784 144 738 181 q 908 107 831 107 q 1026 121 983 107 q 1097 149 1069 135 l 1143 42 q 1057 5 1115 24 q 904 -14 999 -14 q 774 26 825 -14 q 694 121 724 65 l 694 0 l 594 0 l 567 171 q 494 38 551 89 q 353 -14 436 -14 m 722 371 l 1039 371 q 999 494 1040 461 q 890 528 957 528 q 777 491 821 528 q 722 371 733 454 m 378 111 q 472 142 429 111 q 540 223 514 172 q 565 335 565 274 l 565 344 q 540 440 565 399 q 472 503 514 481 q 378 526 429 526 q 258 467 296 526 q 219 319 219 407 q 257 171 219 231 q 378 111 294 111 z "},"ǽ":{"ha":1243,"x_min":61,"x_max":1185,"o":"m 353 -14 q 202 26 268 -14 q 99 142 136 67 q 61 321 61 217 q 98 496 61 421 q 200 613 135 571 q 347 654 265 654 q 493 608 435 654 q 578 494 551 561 l 581 638 l 694 638 l 694 543 q 784 626 731 599 q 894 654 838 654 q 1115 570 1046 654 q 1185 344 1185 486 q 1181 267 1185 307 l 722 267 q 784 144 738 181 q 908 107 831 107 q 1026 121 983 107 q 1097 149 1069 135 l 1143 42 q 1057 5 1115 24 q 904 -14 999 -14 q 774 26 825 -14 q 694 121 724 65 l 694 0 l 594 0 l 567 171 q 494 38 551 89 q 353 -14 436 -14 m 722 371 l 1039 371 q 999 494 1040 461 q 890 528 957 528 q 777 491 821 528 q 722 371 733 454 m 378 111 q 472 142 429 111 q 540 223 514 172 q 565 335 565 274 l 565 344 q 540 440 565 399 q 472 503 514 481 q 378 526 429 526 q 258 467 296 526 q 219 319 219 407 q 257 171 219 231 q 378 111 294 111 m 639 743 l 538 800 l 750 1118 l 882 1033 l 639 743 z "},"ǣ":{"ha":1243,"x_min":61,"x_max":1185,"o":"m 353 -14 q 202 26 268 -14 q 99 142 136 67 q 61 321 61 217 q 98 496 61 421 q 200 613 135 571 q 347 654 265 654 q 493 608 435 654 q 578 494 551 561 l 581 638 l 694 638 l 694 543 q 784 626 731 599 q 894 654 838 654 q 1115 570 1046 654 q 1185 344 1185 486 q 1181 267 1185 307 l 722 267 q 784 144 738 181 q 908 107 831 107 q 1026 121 983 107 q 1097 149 1069 135 l 1143 42 q 1057 5 1115 24 q 904 -14 999 -14 q 774 26 825 -14 q 694 121 724 65 l 694 0 l 594 0 l 567 171 q 494 38 551 89 q 353 -14 436 -14 m 722 371 l 1039 371 q 999 494 1040 461 q 890 528 957 528 q 777 491 821 528 q 722 371 733 454 m 378 111 q 472 142 429 111 q 540 223 514 172 q 565 335 565 274 l 565 344 q 540 440 565 399 q 472 503 514 481 q 378 526 429 526 q 258 467 296 526 q 219 319 219 407 q 257 171 219 231 q 378 111 294 111 m 408 782 l 408 896 l 881 896 l 881 782 l 408 782 z "},"b":{"ha":857,"x_min":104,"x_max":796,"o":"m 476 -14 q 375 5 421 -14 q 298 53 329 24 q 251 113 267 82 l 249 0 l 104 0 l 104 1021 l 251 1021 l 251 628 l 244 519 q 296 586 260 556 q 381 635 332 617 q 486 654 431 654 q 651 612 582 654 q 758 494 721 569 q 796 318 796 418 q 751 140 796 214 q 635 26 707 65 q 476 -14 563 -14 m 451 111 q 592 171 546 111 q 639 318 639 231 q 592 467 639 408 q 451 526 546 526 q 358 502 401 526 q 290 433 315 478 q 264 328 264 389 l 264 318 q 290 210 265 257 q 358 137 315 163 q 451 111 400 111 z "},"ḃ":{"ha":857,"x_min":78,"x_max":796,"o":"m 476 -14 q 375 5 421 -14 q 298 53 329 24 q 251 113 267 82 l 249 0 l 104 0 l 104 1021 l 251 1021 l 251 628 l 244 519 q 296 586 260 556 q 381 635 332 617 q 486 654 431 654 q 651 612 582 654 q 758 494 721 569 q 796 318 796 418 q 751 140 796 214 q 635 26 707 65 q 476 -14 563 -14 m 451 111 q 592 171 546 111 q 639 318 639 231 q 592 467 639 408 q 451 526 546 526 q 358 502 401 526 q 290 433 315 478 q 264 328 264 389 l 264 318 q 290 210 265 257 q 358 137 315 163 q 451 111 400 111 m 178 1122 q 106 1151 135 1122 q 78 1221 78 1179 q 106 1292 78 1264 q 178 1321 135 1321 q 249 1292 221 1321 q 278 1221 278 1264 q 249 1151 278 1179 q 178 1122 219 1122 z "},"ḅ":{"ha":857,"x_min":104,"x_max":796,"o":"m 476 -14 q 375 5 421 -14 q 298 53 329 24 q 251 113 267 82 l 249 0 l 104 0 l 104 1021 l 251 1021 l 251 628 l 244 519 q 296 586 260 556 q 381 635 332 617 q 486 654 431 654 q 651 612 582 654 q 758 494 721 569 q 796 318 796 418 q 751 140 796 214 q 635 26 707 65 q 476 -14 563 -14 m 451 111 q 592 171 546 111 q 639 318 639 231 q 592 467 639 408 q 451 526 546 526 q 358 502 401 526 q 290 433 315 478 q 264 328 264 389 l 264 318 q 290 210 265 257 q 358 137 315 163 q 451 111 400 111 m 431 -303 q 358 -274 388 -303 q 329 -201 329 -244 q 358 -135 329 -162 q 431 -107 388 -107 q 501 -135 474 -107 q 529 -201 529 -162 q 501 -274 529 -244 q 431 -303 474 -303 z "},"ɓ":{"ha":857,"x_min":104,"x_max":796,"o":"m 476 -14 q 375 5 421 -14 q 298 53 329 24 q 251 113 267 82 l 249 0 l 104 0 l 104 747 q 132 897 104 832 q 218 1000 160 963 q 369 1038 276 1038 q 461 1026 428 1038 q 504 1011 494 1015 l 475 869 q 444 890 468 878 q 374 901 421 901 q 288 869 324 901 q 251 753 251 836 l 251 628 l 244 519 q 296 586 260 556 q 381 635 332 617 q 486 654 431 654 q 651 612 582 654 q 758 494 721 569 q 796 318 796 418 q 751 140 796 214 q 635 26 707 65 q 476 -14 563 -14 m 451 111 q 592 171 546 111 q 639 318 639 231 q 592 467 639 408 q 451 526 546 526 q 358 502 401 526 q 290 433 315 478 q 264 328 264 389 l 264 318 q 290 210 265 257 q 358 137 315 163 q 451 111 400 111 z "},"ʘ":{"ha":1156,"x_min":65,"x_max":1090,"o":"m 578 -14 q 381 22 474 -14 q 218 127 289 58 q 106 293 147 196 q 65 513 65 390 q 106 733 65 636 q 219 899 147 831 q 383 1002 290 967 q 578 1038 475 1038 q 773 1002 681 1038 q 937 899 865 967 q 1049 733 1008 831 q 1090 513 1090 636 q 1049 293 1090 390 q 938 127 1008 196 q 774 22 867 58 q 578 -14 682 -14 m 578 126 q 751 171 672 126 q 878 301 831 215 q 925 511 925 386 q 878 723 925 638 q 752 852 831 808 q 578 896 674 896 q 403 852 482 896 q 278 723 325 808 q 231 511 231 638 q 279 301 231 386 q 407 171 328 215 q 578 126 486 126 m 578 413 q 508 442 536 413 q 479 514 479 471 q 507 584 479 556 q 578 613 535 613 q 651 584 622 613 q 681 514 681 556 q 651 442 681 471 q 578 413 622 413 z "},"ḇ":{"ha":857,"x_min":104,"x_max":796,"o":"m 476 -14 q 375 5 421 -14 q 298 53 329 24 q 251 113 267 82 l 249 0 l 104 0 l 104 1021 l 251 1021 l 251 628 l 244 519 q 296 586 260 556 q 381 635 332 617 q 486 654 431 654 q 651 612 582 654 q 758 494 721 569 q 796 318 796 418 q 751 140 796 214 q 635 26 707 65 q 476 -14 563 -14 m 451 111 q 592 171 546 111 q 639 318 639 231 q 592 467 639 408 q 451 526 546 526 q 358 502 401 526 q 290 433 315 478 q 264 328 264 389 l 264 318 q 290 210 265 257 q 358 137 315 163 q 451 111 400 111 m 207 -225 l 207 -111 l 651 -111 l 651 -225 l 207 -225 z "},"c":{"ha":647,"x_min":61,"x_max":603,"o":"m 396 -14 q 227 26 303 -14 q 106 143 151 67 q 61 326 61 219 q 102 500 61 426 q 217 614 143 574 q 389 654 292 654 q 522 633 469 654 q 600 589 574 613 l 533 468 q 511 489 528 475 q 467 515 494 503 q 401 526 440 526 q 265 471 310 526 q 219 328 219 415 q 267 169 219 226 q 401 111 315 111 q 488 124 447 111 q 549 153 528 138 l 603 47 q 524 7 578 28 q 396 -14 469 -14 z "},"ć":{"ha":647,"x_min":61,"x_max":604,"o":"m 396 -14 q 227 26 303 -14 q 106 143 151 67 q 61 326 61 219 q 102 500 61 426 q 217 614 143 574 q 389 654 292 654 q 522 633 469 654 q 600 589 574 613 l 533 468 q 511 489 528 475 q 467 515 494 503 q 401 526 440 526 q 265 471 310 526 q 219 328 219 415 q 267 169 219 226 q 401 111 315 111 q 488 124 447 111 q 549 153 528 138 l 603 47 q 524 7 578 28 q 396 -14 469 -14 m 361 743 l 260 800 l 472 1118 l 604 1033 l 361 743 z "},"č":{"ha":647,"x_min":61,"x_max":611,"o":"m 396 -14 q 227 26 303 -14 q 106 143 151 67 q 61 326 61 219 q 102 500 61 426 q 217 614 143 574 q 389 654 292 654 q 522 633 469 654 q 600 589 574 613 l 533 468 q 511 489 528 475 q 467 515 494 503 q 401 526 440 526 q 265 471 310 526 q 219 328 219 415 q 267 169 219 226 q 401 111 315 111 q 488 124 447 111 q 549 153 528 138 l 603 47 q 524 7 578 28 q 396 -14 469 -14 m 363 729 l 114 1029 l 204 1104 l 363 897 l 522 1104 l 611 1029 l 363 729 z "},"ç":{"ha":647,"x_min":61,"x_max":603,"o":"m 396 -14 q 227 26 303 -14 q 106 143 151 67 q 61 326 61 219 q 102 500 61 426 q 217 614 143 574 q 389 654 292 654 q 522 633 469 654 q 600 589 574 613 l 533 468 q 511 489 528 475 q 467 515 494 503 q 401 526 440 526 q 265 471 310 526 q 219 328 219 415 q 267 169 219 226 q 401 111 315 111 q 488 124 447 111 q 549 153 528 138 l 603 47 q 524 7 578 28 q 396 -14 469 -14 m 232 -367 q 190 -364 211 -367 q 157 -360 169 -361 l 169 -231 q 208 -233 189 -233 q 285 -216 264 -233 q 307 -171 307 -199 q 294 -130 307 -149 q 269 -90 282 -111 q 257 -42 257 -69 q 262 -10 257 -18 q 268 0 267 -3 l 307 8 l 367 0 q 385 -47 367 -25 q 423 -99 404 -69 q 442 -181 442 -129 q 383 -324 442 -282 q 232 -367 324 -367 z "},"ḉ":{"ha":647,"x_min":61,"x_max":604,"o":"m 396 -14 q 227 26 303 -14 q 106 143 151 67 q 61 326 61 219 q 102 500 61 426 q 217 614 143 574 q 389 654 292 654 q 522 633 469 654 q 600 589 574 613 l 533 468 q 511 489 528 475 q 467 515 494 503 q 401 526 440 526 q 265 471 310 526 q 219 328 219 415 q 267 169 219 226 q 401 111 315 111 q 488 124 447 111 q 549 153 528 138 l 603 47 q 524 7 578 28 q 396 -14 469 -14 m 232 -367 q 190 -364 211 -367 q 157 -360 169 -361 l 169 -231 q 208 -233 189 -233 q 285 -216 264 -233 q 307 -171 307 -199 q 294 -130 307 -149 q 269 -90 282 -111 q 257 -42 257 -69 q 262 -10 257 -18 q 268 0 267 -3 l 307 8 l 367 0 q 385 -47 367 -25 q 423 -99 404 -69 q 442 -181 442 -129 q 383 -324 442 -282 q 232 -367 324 -367 m 361 743 l 260 800 l 472 1118 l 604 1033 l 361 743 z "},"ĉ":{"ha":647,"x_min":61,"x_max":611,"o":"m 396 -14 q 227 26 303 -14 q 106 143 151 67 q 61 326 61 219 q 102 500 61 426 q 217 614 143 574 q 389 654 292 654 q 522 633 469 654 q 600 589 574 613 l 533 468 q 511 489 528 475 q 467 515 494 503 q 401 526 440 526 q 265 471 310 526 q 219 328 219 415 q 267 169 219 226 q 401 111 315 111 q 488 124 447 111 q 549 153 528 138 l 603 47 q 524 7 578 28 q 396 -14 469 -14 m 204 743 l 114 818 l 363 1104 l 611 818 l 522 743 l 363 936 l 204 743 z "},"ċ":{"ha":647,"x_min":61,"x_max":603,"o":"m 396 -14 q 227 26 303 -14 q 106 143 151 67 q 61 326 61 219 q 102 500 61 426 q 217 614 143 574 q 389 654 292 654 q 522 633 469 654 q 600 589 574 613 l 533 468 q 511 489 528 475 q 467 515 494 503 q 401 526 440 526 q 265 471 310 526 q 219 328 219 415 q 267 169 219 226 q 401 111 315 111 q 488 124 447 111 q 549 153 528 138 l 603 47 q 524 7 578 28 q 396 -14 469 -14 m 363 757 q 291 786 319 757 q 263 858 263 815 q 291 925 263 897 q 363 953 319 953 q 434 925 406 953 q 463 858 463 897 q 434 786 463 815 q 363 757 406 757 z "},"d":{"ha":853,"x_min":61,"x_max":753,"o":"m 381 -14 q 223 26 296 -14 q 106 142 150 67 q 61 321 61 217 q 99 497 61 422 q 208 613 138 571 q 375 654 278 654 q 479 635 431 654 q 563 586 528 617 q 613 519 597 556 l 606 628 l 606 1021 l 753 1021 l 753 0 l 610 0 l 607 113 q 560 53 593 82 q 482 5 528 24 q 381 -14 436 -14 m 406 113 q 499 137 457 113 q 567 206 542 161 q 593 311 593 250 l 593 321 q 567 430 593 383 q 499 502 542 476 q 406 528 457 528 q 266 468 313 528 q 219 321 219 408 q 266 172 219 232 q 406 113 313 113 z "},"ď":{"ha":988,"x_min":61,"x_max":988,"o":"m 381 -14 q 223 26 296 -14 q 106 142 150 67 q 61 321 61 217 q 99 497 61 422 q 208 613 138 571 q 375 654 278 654 q 479 635 431 654 q 563 586 528 617 q 613 519 597 556 l 606 628 l 606 1021 l 753 1021 l 753 0 l 610 0 l 607 113 q 560 53 593 82 q 482 5 528 24 q 381 -14 436 -14 m 406 113 q 499 137 457 113 q 567 206 542 161 q 593 311 593 250 l 593 321 q 567 430 593 383 q 499 502 542 476 q 406 528 457 528 q 266 468 313 528 q 219 321 219 408 q 266 172 219 232 q 406 113 313 113 m 851 681 l 851 1021 l 988 1021 l 949 681 l 851 681 z "},"ḑ":{"ha":853,"x_min":61,"x_max":753,"o":"m 381 -14 q 223 26 296 -14 q 106 142 150 67 q 61 321 61 217 q 99 497 61 422 q 208 613 138 571 q 375 654 278 654 q 479 635 431 654 q 563 586 528 617 q 613 519 597 556 l 606 628 l 606 1021 l 753 1021 l 753 0 l 610 0 l 607 113 q 560 53 593 82 q 482 5 528 24 q 381 -14 436 -14 m 406 113 q 499 137 457 113 q 567 206 542 161 q 593 311 593 250 l 593 321 q 567 430 593 383 q 499 502 542 476 q 406 528 457 528 q 266 468 313 528 q 219 321 219 408 q 266 172 219 232 q 406 113 313 113 m 336 -367 q 358 -303 347 -333 q 371 -243 368 -274 q 326 -161 326 -214 q 356 -90 326 -118 q 428 -62 385 -62 q 499 -90 472 -62 q 526 -161 526 -118 q 507 -244 526 -201 q 463 -321 488 -287 q 422 -367 438 -354 l 336 -367 z "},"ḓ":{"ha":853,"x_min":61,"x_max":753,"o":"m 381 -14 q 223 26 296 -14 q 106 142 150 67 q 61 321 61 217 q 99 497 61 422 q 208 613 138 571 q 375 654 278 654 q 479 635 431 654 q 563 586 528 617 q 613 519 597 556 l 606 628 l 606 1021 l 753 1021 l 753 0 l 610 0 l 607 113 q 560 53 593 82 q 482 5 528 24 q 381 -14 436 -14 m 406 113 q 499 137 457 113 q 567 206 542 161 q 593 311 593 250 l 593 321 q 567 430 593 383 q 499 502 542 476 q 406 528 457 528 q 266 468 313 528 q 219 321 219 408 q 266 172 219 232 q 406 113 313 113 m 268 -419 l 178 -344 l 426 -58 l 675 -344 l 586 -419 l 426 -226 l 268 -419 z "},"đ":{"ha":853,"x_min":61,"x_max":850,"o":"m 381 -14 q 223 26 296 -14 q 106 142 150 67 q 61 321 61 217 q 99 497 61 422 q 208 613 138 571 q 375 654 278 654 q 479 635 431 654 q 563 586 528 617 q 613 519 597 556 l 606 628 l 606 781 l 463 781 l 463 879 l 606 879 l 606 1021 l 753 1021 l 753 879 l 850 879 l 850 781 l 753 781 l 753 0 l 610 0 l 607 113 q 560 53 593 82 q 482 5 528 24 q 381 -14 436 -14 m 406 113 q 499 137 457 113 q 567 206 542 161 q 593 311 593 250 l 593 321 q 567 430 593 383 q 499 502 542 476 q 406 528 457 528 q 266 468 313 528 q 219 321 219 408 q 266 172 219 232 q 406 113 313 113 z "},"ḋ":{"ha":853,"x_min":61,"x_max":753,"o":"m 381 -14 q 223 26 296 -14 q 106 142 150 67 q 61 321 61 217 q 99 497 61 422 q 208 613 138 571 q 375 654 278 654 q 479 635 431 654 q 563 586 528 617 q 613 519 597 556 l 606 628 l 606 1021 l 753 1021 l 753 0 l 610 0 l 607 113 q 560 53 593 82 q 482 5 528 24 q 381 -14 436 -14 m 406 113 q 499 137 457 113 q 567 206 542 161 q 593 311 593 250 l 593 321 q 567 430 593 383 q 499 502 542 476 q 406 528 457 528 q 266 468 313 528 q 219 321 219 408 q 266 172 219 232 q 406 113 313 113 m 314 844 q 242 873 271 844 q 214 943 214 901 q 242 1015 214 986 q 314 1043 271 1043 q 385 1015 357 1043 q 414 943 414 986 q 385 873 414 901 q 314 844 356 844 z "},"ḍ":{"ha":853,"x_min":61,"x_max":753,"o":"m 381 -14 q 223 26 296 -14 q 106 142 150 67 q 61 321 61 217 q 99 497 61 422 q 208 613 138 571 q 375 654 278 654 q 479 635 431 654 q 563 586 528 617 q 613 519 597 556 l 606 628 l 606 1021 l 753 1021 l 753 0 l 610 0 l 607 113 q 560 53 593 82 q 482 5 528 24 q 381 -14 436 -14 m 406 113 q 499 137 457 113 q 567 206 542 161 q 593 311 593 250 l 593 321 q 567 430 593 383 q 499 502 542 476 q 406 528 457 528 q 266 468 313 528 q 219 321 219 408 q 266 172 219 232 q 406 113 313 113 m 428 -303 q 356 -274 385 -303 q 326 -201 326 -244 q 356 -135 326 -162 q 428 -107 385 -107 q 499 -135 471 -107 q 526 -201 526 -162 q 499 -274 526 -244 q 428 -303 471 -303 z "},"ɗ":{"ha":954,"x_min":61,"x_max":926,"o":"m 381 -14 q 223 26 296 -14 q 106 142 150 67 q 61 321 61 217 q 99 497 61 422 q 208 613 138 571 q 375 654 278 654 q 479 635 431 654 q 563 586 528 617 q 613 519 597 556 l 606 628 l 606 775 q 663 968 606 899 q 828 1038 719 1038 q 888 1028 860 1038 q 926 1011 917 1019 l 897 869 q 871 890 890 878 q 832 901 851 901 q 794 894 813 901 q 763 860 775 886 q 751 781 751 835 l 751 0 l 610 0 l 607 113 q 560 53 593 82 q 482 5 528 24 q 381 -14 436 -14 m 406 113 q 499 137 457 113 q 567 206 542 161 q 593 311 593 250 l 593 321 q 567 430 593 383 q 499 502 542 476 q 406 528 457 528 q 266 468 313 528 q 219 321 219 408 q 266 172 219 232 q 406 113 313 113 z "},"ḏ":{"ha":853,"x_min":61,"x_max":753,"o":"m 381 -14 q 223 26 296 -14 q 106 142 150 67 q 61 321 61 217 q 99 497 61 422 q 208 613 138 571 q 375 654 278 654 q 479 635 431 654 q 563 586 528 617 q 613 519 597 556 l 606 628 l 606 1021 l 753 1021 l 753 0 l 610 0 l 607 113 q 560 53 593 82 q 482 5 528 24 q 381 -14 436 -14 m 406 113 q 499 137 457 113 q 567 206 542 161 q 593 311 593 250 l 593 321 q 567 430 593 383 q 499 502 542 476 q 406 528 457 528 q 266 468 313 528 q 219 321 219 408 q 266 172 219 232 q 406 113 313 113 m 204 -225 l 204 -111 l 649 -111 l 649 -225 l 204 -225 z "},"ɖ":{"ha":964,"x_min":61,"x_max":950,"o":"m 381 -14 q 223 26 296 -14 q 106 142 150 67 q 61 321 61 217 q 99 497 61 422 q 208 613 138 571 q 375 654 278 654 q 479 635 431 654 q 563 586 528 617 q 613 519 597 556 l 606 628 l 606 1021 l 753 1021 l 753 0 q 769 -79 754 -53 q 806 -113 785 -106 q 847 -121 828 -121 q 894 -109 874 -121 q 921 -89 914 -97 l 950 -231 q 910 -246 940 -235 q 843 -257 881 -257 q 667 -190 725 -257 q 610 0 610 -122 l 607 113 q 560 53 593 82 q 482 5 528 24 q 381 -14 436 -14 m 406 113 q 499 137 457 113 q 567 206 542 161 q 593 311 593 250 l 593 321 q 567 430 593 383 q 499 502 542 476 q 406 528 457 528 q 266 468 313 528 q 219 321 219 408 q 266 172 219 232 q 406 113 313 113 z "},"ǳ":{"ha":1467,"x_min":61,"x_max":1424,"o":"m 381 -14 q 223 26 296 -14 q 106 142 150 67 q 61 321 61 217 q 99 497 61 422 q 208 613 138 571 q 375 654 278 654 q 479 635 431 654 q 563 586 528 617 q 613 519 597 556 l 606 628 l 606 1021 l 753 1021 l 753 0 l 610 0 l 607 113 q 560 53 593 82 q 482 5 528 24 q 381 -14 436 -14 m 406 113 q 499 137 457 113 q 567 206 542 161 q 593 311 593 250 l 593 321 q 567 430 593 383 q 499 502 542 476 q 406 528 457 528 q 266 468 313 528 q 219 321 219 408 q 266 172 219 232 q 406 113 313 113 m 867 0 l 1157 468 l 1192 518 l 1038 514 l 928 514 l 928 638 l 1424 638 l 1136 168 l 1101 115 l 1251 124 l 1413 124 l 1413 0 l 867 0 z "},"ǆ":{"ha":1472,"x_min":61,"x_max":1429,"o":"m 381 -14 q 223 26 296 -14 q 106 142 150 67 q 61 321 61 217 q 99 497 61 422 q 208 613 138 571 q 375 654 278 654 q 479 635 431 654 q 563 586 528 617 q 613 519 597 556 l 606 628 l 606 1021 l 753 1021 l 753 0 l 610 0 l 607 113 q 560 53 593 82 q 482 5 528 24 q 381 -14 436 -14 m 406 113 q 499 137 457 113 q 567 206 542 161 q 593 311 593 250 l 593 321 q 567 430 593 383 q 499 502 542 476 q 406 528 457 528 q 266 468 313 528 q 219 321 219 408 q 266 172 219 232 q 406 113 313 113 m 872 0 l 1163 468 l 1197 518 l 1043 514 l 933 514 l 933 638 l 1429 638 l 1142 168 l 1107 115 l 1257 124 l 1418 124 l 1418 0 l 872 0 m 1165 729 l 917 1029 l 1007 1104 l 1165 897 l 1325 1104 l 1414 1029 l 1165 729 z "},"ð":{"ha":785,"x_min":61,"x_max":726,"o":"m 399 -12 q 227 27 304 -12 q 106 138 150 67 q 61 304 61 210 q 104 478 61 406 q 219 588 147 550 q 379 626 292 626 q 492 610 446 626 q 567 571 538 594 q 494 706 540 642 q 378 829 449 769 l 293 736 l 221 808 l 304 892 q 237 944 269 921 q 164 990 204 968 l 228 1072 q 303 1029 265 1053 q 378 979 340 1006 l 463 1075 l 536 1003 l 458 915 q 591 786 531 864 q 689 608 651 708 q 726 390 726 508 q 684 158 726 247 q 567 28 642 69 q 399 -12 493 -12 m 399 115 q 488 139 446 115 q 556 209 529 163 q 582 321 582 256 q 578 376 582 343 q 567 436 574 410 q 488 488 528 476 q 386 499 447 499 q 264 452 307 499 q 221 304 221 406 q 274 159 221 203 q 399 115 326 115 z "},"e":{"ha":739,"x_min":61,"x_max":681,"o":"m 400 -14 q 206 33 281 -14 q 96 156 131 79 q 61 318 61 232 q 103 497 61 422 q 221 613 146 572 q 390 654 296 654 q 611 570 542 654 q 681 344 681 486 q 676 267 681 307 l 218 267 q 280 144 233 181 q 404 107 326 107 q 522 121 479 107 q 593 149 565 135 l 639 42 q 553 5 611 24 q 400 -14 494 -14 m 218 371 l 535 371 q 494 494 536 461 q 386 528 453 528 q 273 491 317 528 q 218 371 229 454 z "},"é":{"ha":739,"x_min":61,"x_max":681,"o":"m 400 -14 q 206 33 281 -14 q 96 156 131 79 q 61 318 61 232 q 103 497 61 422 q 221 613 146 572 q 390 654 296 654 q 611 570 542 654 q 681 344 681 486 q 676 267 681 307 l 218 267 q 280 144 233 181 q 404 107 326 107 q 522 121 479 107 q 593 149 565 135 l 639 42 q 553 5 611 24 q 400 -14 494 -14 m 218 371 l 535 371 q 494 494 536 461 q 386 528 453 528 q 273 491 317 528 q 218 371 229 454 m 376 743 l 275 800 l 488 1118 l 619 1033 l 376 743 z "},"ĕ":{"ha":739,"x_min":61,"x_max":681,"o":"m 400 -14 q 206 33 281 -14 q 96 156 131 79 q 61 318 61 232 q 103 497 61 422 q 221 613 146 572 q 390 654 296 654 q 611 570 542 654 q 681 344 681 486 q 676 267 681 307 l 218 267 q 280 144 233 181 q 404 107 326 107 q 522 121 479 107 q 593 149 565 135 l 639 42 q 553 5 611 24 q 400 -14 494 -14 m 218 371 l 535 371 q 494 494 536 461 q 386 528 453 528 q 273 491 317 528 q 218 371 229 454 m 378 749 q 192 819 258 749 q 126 996 126 889 l 260 996 q 270 936 260 965 q 307 888 281 907 q 378 869 333 869 q 466 910 435 869 q 497 996 497 950 l 629 996 q 563 819 629 889 q 378 749 496 749 z "},"ě":{"ha":739,"x_min":61,"x_max":681,"o":"m 400 -14 q 206 33 281 -14 q 96 156 131 79 q 61 318 61 232 q 103 497 61 422 q 221 613 146 572 q 390 654 296 654 q 611 570 542 654 q 681 344 681 486 q 676 267 681 307 l 218 267 q 280 144 233 181 q 404 107 326 107 q 522 121 479 107 q 593 149 565 135 l 639 42 q 553 5 611 24 q 400 -14 494 -14 m 218 371 l 535 371 q 494 494 536 461 q 386 528 453 528 q 273 491 317 528 q 218 371 229 454 m 378 729 l 129 1029 l 219 1104 l 378 897 l 538 1104 l 626 1029 l 378 729 z "},"ȩ":{"ha":739,"x_min":61,"x_max":681,"o":"m 400 -14 q 206 33 281 -14 q 96 156 131 79 q 61 318 61 232 q 103 497 61 422 q 221 613 146 572 q 390 654 296 654 q 611 570 542 654 q 681 344 681 486 q 676 267 681 307 l 218 267 q 280 144 233 181 q 404 107 326 107 q 522 121 479 107 q 593 149 565 135 l 639 42 q 553 5 611 24 q 400 -14 494 -14 m 218 371 l 535 371 q 494 494 536 461 q 386 528 453 528 q 273 491 317 528 q 218 371 229 454 m 278 -367 q 236 -364 257 -367 q 203 -360 215 -361 l 215 -231 q 254 -233 235 -233 q 331 -216 310 -233 q 353 -171 353 -199 q 340 -130 353 -149 q 315 -90 328 -111 q 303 -42 303 -69 q 308 -10 303 -18 q 314 0 313 -3 l 353 8 l 413 0 q 431 -47 413 -25 q 469 -99 450 -69 q 488 -181 488 -129 q 428 -324 488 -282 q 278 -367 369 -367 z "},"ḝ":{"ha":739,"x_min":61,"x_max":681,"o":"m 400 -14 q 206 33 281 -14 q 96 156 131 79 q 61 318 61 232 q 103 497 61 422 q 221 613 146 572 q 390 654 296 654 q 611 570 542 654 q 681 344 681 486 q 676 267 681 307 l 218 267 q 280 144 233 181 q 404 107 326 107 q 522 121 479 107 q 593 149 565 135 l 639 42 q 553 5 611 24 q 400 -14 494 -14 m 218 371 l 535 371 q 494 494 536 461 q 386 528 453 528 q 273 491 317 528 q 218 371 229 454 m 278 -367 q 236 -364 257 -367 q 203 -360 215 -361 l 215 -231 q 254 -233 235 -233 q 331 -216 310 -233 q 353 -171 353 -199 q 340 -130 353 -149 q 315 -90 328 -111 q 303 -42 303 -69 q 308 -10 303 -18 q 314 0 313 -3 l 353 8 l 413 0 q 431 -47 413 -25 q 469 -99 450 -69 q 488 -181 488 -129 q 428 -324 488 -282 q 278 -367 369 -367 m 378 749 q 192 819 258 749 q 126 996 126 889 l 260 996 q 270 936 260 965 q 307 888 281 907 q 378 869 333 869 q 466 910 435 869 q 497 996 497 950 l 629 996 q 563 819 629 889 q 378 749 496 749 z "},"ê":{"ha":739,"x_min":61,"x_max":681,"o":"m 400 -14 q 206 33 281 -14 q 96 156 131 79 q 61 318 61 232 q 103 497 61 422 q 221 613 146 572 q 390 654 296 654 q 611 570 542 654 q 681 344 681 486 q 676 267 681 307 l 218 267 q 280 144 233 181 q 404 107 326 107 q 522 121 479 107 q 593 149 565 135 l 639 42 q 553 5 611 24 q 400 -14 494 -14 m 218 371 l 535 371 q 494 494 536 461 q 386 528 453 528 q 273 491 317 528 q 218 371 229 454 m 219 743 l 129 818 l 378 1104 l 626 818 l 538 743 l 378 936 l 219 743 z "},"ế":{"ha":739,"x_min":61,"x_max":722,"o":"m 400 -14 q 206 33 281 -14 q 96 156 131 79 q 61 318 61 232 q 103 497 61 422 q 221 613 146 572 q 390 654 296 654 q 611 570 542 654 q 681 344 681 486 q 676 267 681 307 l 218 267 q 280 144 233 181 q 404 107 326 107 q 522 121 479 107 q 593 149 565 135 l 639 42 q 553 5 611 24 q 400 -14 494 -14 m 218 371 l 535 371 q 494 494 536 461 q 386 528 453 528 q 273 491 317 528 q 218 371 229 454 m 540 1039 l 439 1090 l 604 1326 l 722 1256 l 540 1039 m 206 768 l 135 839 l 378 1047 l 619 839 l 550 768 l 378 892 l 206 768 z "},"ḙ":{"ha":739,"x_min":61,"x_max":681,"o":"m 400 -14 q 206 33 281 -14 q 96 156 131 79 q 61 318 61 232 q 103 497 61 422 q 221 613 146 572 q 390 654 296 654 q 611 570 542 654 q 681 344 681 486 q 676 267 681 307 l 218 267 q 280 144 233 181 q 404 107 326 107 q 522 121 479 107 q 593 149 565 135 l 639 42 q 553 5 611 24 q 400 -14 494 -14 m 218 371 l 535 371 q 494 494 536 461 q 386 528 453 528 q 273 491 317 528 q 218 371 229 454 m 211 -419 l 121 -344 l 369 -58 l 618 -344 l 529 -419 l 369 -226 l 211 -419 z "}}}
